<?xml version="1.0" standalone="no"?>
<!DOCTYPE svg PUBLIC "-//W3C//DTD SVG 1.1//EN" "http://www.w3.org/Graphics/SVG/1.1/DTD/svg11.dtd" >
<svg>
<metadata>
Created by FontForge 20090914 at Sat Mar 12 03:47:08 2016
 By www-data
Copyright (c) 1991, 1998 Adobe Systems Incorporated.  All Rights Reserved.Berthold Akzidenz-Grotesk is either a registered trademark or trademark of Berthold Types Limited in the United States and/or other countries.
</metadata>
<defs>
<font id="AkzidenzGroteskBE-BoldEx" horiz-adv-x="375" >
  <font-face 
    font-family="Berthold Akzidenz Grotesk"
    font-weight="700"
    font-stretch="normal"
    units-per-em="1000"
    panose-1="2 11 8 5 0 0 0 0 0 0"
    ascent="742"
    descent="-258"
    x-height="529"
    cap-height="706"
    bbox="-173 -258.007 1792 925.154"
    underline-thickness="50"
    underline-position="-50"
    unicode-range="U+0020-U+FB02"
  />
<missing-glyph 
 />
    <glyph glyph-name=".notdef" 
 />
    <glyph glyph-name="space" unicode=" " 
 />
    <glyph glyph-name="space" unicode="&#xa0;" 
 />
    <glyph glyph-name="exclam" unicode="!" horiz-adv-x="333" 
d="M92 185h188v-185h-188v185zM301 706v-136.002c-0.666992 -17.333 -1.16699 -32 -1.5 -44s-0.833008 -24.167 -1.5 -36.5s-1.66699 -26.166 -3 -41.499l-5 -59l-10 -127h-188l-9 127l-5 59.5l-3.5 42c-1 12.333 -1.66699 24.333 -2 36s-0.833008 25.834 -1.5 42.501v137
h230z" />
    <glyph glyph-name="quotedbl" unicode="&#x22;" horiz-adv-x="396" 
d="M111 408h-32l-54 250c-2 8.66699 -3 16.667 -3 24c0 11.333 2.33301 21.166 7 29.499s10.5 15.333 17.5 21s15 9.83398 24 12.501s17.833 4 26.5 4c18 0 33.833 -5.33301 47.5 -16s20.5 -26 20.5 -46c0 -3.33301 -0.166992 -6.33301 -0.5 -9s-0.5 -5.66699 -0.5 -9z
M319 408h-31l-55 250c-0.666992 4.66699 -1.16699 9 -1.5 13s-0.5 7.66699 -0.5 11c0 22.667 8 39.5 24 50.5s33 16.5 51 16.5c17.333 0 32.833 -5.33301 46.5 -16s20.5 -26 20.5 -46v-9c0 -2.66699 -0.333008 -5.66699 -1 -9z" />
    <glyph glyph-name="numbersign" unicode="#" horiz-adv-x="667" 
d="M377 309l14 96h-99l-14 -96h99zM459 0h-125l26 186h-99l-26 -186h-124l25 186h-94v123h112l13 96h-100v124h117l25 177h125l-26 -177h100l24 177h125l-24 -177h91v-124h-109l-12 -96h98v-123h-116z" />
    <glyph glyph-name="dollar" unicode="$" horiz-adv-x="854" 
d="M464 120c10 1.33301 20.666 3.16602 31.999 5.49902s23.333 7.16602 36 14.499c11.333 6.66699 20.833 15.334 28.5 26.001s11.5 22.667 11.5 36c0 20.667 -8.66699 35.834 -26 45.501s-44.666 17.167 -81.999 22.5v-150zM373.999 543
c-7.33301 -0.666992 -16.666 -1.99707 -27.999 -3.99707s-22.333 -5.33301 -33 -10s-19.834 -11.334 -27.501 -20.001s-11.5 -20 -11.5 -34c0 -8 1.5 -14.5 4.5 -19.5s8.16699 -9.33301 15.5 -13s17.5 -6.83398 30.5 -9.50098s29.5 -5.33398 49.5 -8.00098v118z
M463.999 804.003l-0.00292969 -115.002c26.667 -2.66699 56.834 -6.83398 90.501 -12.501s66.5 -15.834 98.5 -30.501s60.5 -35.667 85.5 -63s42.167 -63.666 51.5 -108.999l-235 -13c-1.33301 10.667 -3.66602 20.334 -6.99902 29.001s-8.5 16.167 -15.5 22.5
s-16 11.833 -27 16.5s-24.833 8.66699 -41.5 12v-127c40.667 -3.33301 75.667 -6.5 105 -9.5s54.833 -6.5 76.5 -10.5s40.667 -9.16699 57 -15.5s31.833 -14.5 46.5 -24.5c21.333 -15.333 37.333 -33 48 -53s16 -46 16 -78c0 -25.333 -4.66699 -50.5 -14 -75.5
s-25.333 -48.167 -48 -69.5c-22 -22 -46.667 -39.333 -74 -52s-54.333 -22.5 -81 -29.5s-51.667 -11.667 -75 -14s-42 -3.83301 -56 -4.5v-137h-90v136c-44.667 2 -88.334 7.33301 -131.001 16s-83 24.667 -121 48c-22 14 -40 28.5 -54 43.5s-25 29.833 -33 44.5
s-14 28.5 -18 41.5s-7 24.167 -9 33.5l244 11c0.666992 -3.33301 1.33398 -7 2.00098 -11s2.33398 -9 5.00098 -15c6 -12.667 13.833 -23 23.5 -31s19.667 -14.5 30 -19.5s20.833 -8.66699 31.5 -11l30 -6.5v160c-40.667 4 -76.167 7.66699 -106.5 11s-57 7.33301 -80 12
s-42.667 10 -59 16s-30.5 14 -42.5 24c-16.667 13.333 -30 30.333 -40 51s-15 44.334 -15 71.001c0 40 10.667 75 32 105s50 54 86 72c20 10 40.667 18 62 24s41.833 10.5 61.5 13.5s38 4.83301 55 5.5s31.833 1.33398 44.5 2.00098v115z" />
    <glyph glyph-name="percent" unicode="%" horiz-adv-x="1250" 
d="M966 340c-12 0 -23.667 -1.99902 -35 -5.99902s-21.666 -12.333 -30.999 -25c-10 -13.333 -16.5 -28 -19.5 -44s-4.5 -32.333 -4.5 -49c0 -8.66699 0.666992 -19 2 -31s4.33301 -23.667 9 -35c6.66699 -17.333 16 -30.833 28 -40.5s28.667 -14.5 50 -14.5
c32 0 55.833 10.5 71.5 31.5s23.5 50.833 23.5 89.5c0 15.333 -1.33301 30.5 -4 45.5s-7.33398 28.167 -14.001 39.5c-5.33301 9.33301 -13.5 18.166 -24.5 26.499s-28.167 12.5 -51.5 12.5zM958 452.001c36 1.33301 70.5 -2 103.5 -10s61.833 -21.167 86.5 -39.5
s44.334 -42.333 59.001 -72s22 -65.5 22 -107.5v-13c0 -4 -0.333008 -8.33301 -1 -13c-3.33301 -43.333 -13.5 -78.5 -30.5 -105.5s-38 -48.167 -63 -63.5s-53 -25.833 -84 -31.5s-61.833 -8.5 -92.5 -8.5c-12.667 0 -26.834 0.666992 -42.501 2s-31.667 4 -48 8
s-32.666 9.83301 -48.999 17.5s-31.5 18.167 -45.5 31.5c-14.667 14 -26.334 29.167 -35.001 45.5s-15.167 32.5 -19.5 48.5s-7 30.833 -8 44.5s-1.5 24.167 -1.5 31.5c0 26.667 4 55 12 85s24 57 48 81c24.667 24.667 53.5 42 86.5 52s67.167 15.667 102.5 17zM829 736.001
l87 -60l-494 -706l-87 62zM279 605.001c-12 0 -23.667 -1.99902 -35 -5.99902s-21.666 -12.333 -30.999 -25c-10 -13.333 -16.5 -28 -19.5 -44s-4.5 -32.333 -4.5 -49c0 -8.66699 0.666992 -19 2 -31s4.33301 -23.667 9 -35c6.66699 -17.333 16 -30.833 28 -40.5
s28.667 -14.5 50 -14.5c32 0 55.833 10.5 71.5 31.5s23.5 50.833 23.5 89.5c0 15.333 -1.33301 30.5 -4 45.5s-7.33398 28.167 -14.001 39.5c-5.33301 9.33301 -13.5 18.166 -24.5 26.499s-28.167 12.5 -51.5 12.5zM271 717.002c36 1.33301 70.5 -2.00098 103.5 -10.001
s61.833 -21.167 86.5 -39.5s44.334 -42.333 59.001 -72s22 -65.5 22 -107.5c0 -13.333 -1 -28.333 -3 -45s-6.16699 -33.667 -12.5 -51s-15 -34.166 -26 -50.499s-25.5 -30.5 -43.5 -42.5c-26 -18 -55.5 -30.167 -88.5 -36.5s-65.5 -9.5 -97.5 -9.5
c-12 0 -25.833 0.666992 -41.5 2s-31.667 4 -48 8s-32.833 9.83301 -49.5 17.5s-32 18.167 -46 31.5c-14.667 14 -26.334 29.167 -35.001 45.5s-15.167 32.5 -19.5 48.5s-7 30.833 -8 44.5s-1.5 24.167 -1.5 31.5c0 26.667 4 55 12 85s24 57 48 81
c24.667 24.667 53.5 42 86.5 52s67.167 15.667 102.5 17z" />
    <glyph glyph-name="ampersand" unicode="&#x26;" horiz-adv-x="854" 
d="M328 291c-6 -2 -13.832 -4.83203 -23.499 -8.49902s-19 -8.5 -28 -14.5s-16.833 -13.5 -23.5 -22.5s-10 -20.167 -10 -33.5c0 -24.667 10.167 -45 30.5 -61s49.5 -24 87.5 -24c22.667 0 42.667 2.16699 60 6.5s31.666 8.16602 42.999 11.499zM449.001 442.001
c22.667 6 41.666 13.5 56.999 22.5s23 23.167 23 42.5c0 4 -0.833008 9.16699 -2.5 15.5s-4.66699 12.166 -9 17.499s-10.666 10 -18.999 14s-19.166 6 -32.499 6c-19.333 0 -34 -4.5 -44 -13.5s-15 -19.833 -15 -32.5c0 -9.33301 3.16699 -20.166 9.5 -32.499
s17.166 -25.5 32.499 -39.5zM569 34.001l-44.502 -17c-16.333 -6 -35 -11.667 -56 -17s-44.667 -9.83301 -71 -13.5s-55.833 -5.5 -88.5 -5.5c-41.333 0 -80 4.83301 -116 14.5s-67.5 23.5 -94.5 41.5s-48.333 40.167 -64 66.5s-23.5 56.166 -23.5 89.499
c0 34 7.16699 62.333 21.5 85s32.333 41.5 54 56.5s45.334 27 71.001 36s50.167 17.167 73.5 24.5c-9.33301 12.667 -18.833 27.334 -28.5 44.001s-14.5 38.667 -14.5 66c0 23.333 4.83301 44.333 14.5 63s21.834 34.334 36.501 47.001c19.333 17.333 46.5 30.833 81.5 40.5
s80.833 14.5 137.5 14.5c26.667 0 53.167 -1.66699 79.5 -5s51.833 -10.333 76.5 -21c4.66699 -2 12.5 -5.83301 23.5 -11.5s22 -14 33 -25s20.667 -24.833 29 -41.5s12.5 -37.334 12.5 -62.001c0 -26 -4.66699 -48 -14 -66s-22 -33.5 -38 -46.5s-34.5 -23.833 -55.5 -32.5
s-43.167 -16.334 -66.5 -23.001l86 -90l12.5 14.5c3.66699 4.33301 7 8.83301 10 13.5s6 10 9 16s6.5 13.667 10.5 23l180 -25c-6.66699 -15.333 -13 -29.166 -19 -41.499s-13.167 -24.333 -21.5 -36s-18.5 -24 -30.5 -37s-27 -27.5 -45 -43.5l121 -130h-250z" />
    <glyph glyph-name="quotesingle" unicode="'" horiz-adv-x="208" 
d="M121 408h-31l-55 250c-0.666992 4.66699 -1.16699 9 -1.5 13s-0.5 7.66699 -0.5 11c0 22.667 8 39.5 24 50.5s33 16.5 51 16.5c17.333 0 32.833 -5.33301 46.5 -16s20.5 -26 20.5 -46v-9c0 -2.66699 -0.333008 -5.66699 -1 -9z" />
    <glyph glyph-name="parenleft" unicode="(" 
d="M262 -222c-9.33301 8.66699 -18.8301 18.168 -28.4971 28.501s-19.167 21.166 -28.5 32.499c-9.33301 10.667 -20 24.334 -32 41.001s-23.833 34.5 -35.5 53.5s-23 38.833 -34 59.5s-20.167 40.667 -27.5 60c-11.333 30 -20.833 64.333 -28.5 103s-11.5 77 -11.5 115
c0 45.333 4.83301 87.166 14.5 125.499s21.667 73.166 36 104.499s29.666 59.166 45.999 83.499s31.166 45.5 44.499 63.5l21 27.5l18 22l18.5 21c6.33301 7 14.166 15.167 23.499 24.5l114 -86c-9.33301 -13.333 -20.166 -30.166 -32.499 -50.499s-24.333 -46 -36 -77
s-21.5 -68.333 -29.5 -112s-12 -95.167 -12 -154.5c0 -43.333 3.16699 -86.166 9.5 -128.499s16.166 -83.5 29.499 -123.5c12 -36 24.5 -65 37.5 -87s25.167 -41.667 36.5 -59z" />
    <glyph glyph-name="parenright" unicode=")" 
d="M112 744l28.4941 -29.001c9.66699 -10 19.167 -20.667 28.5 -32s20 -25.166 32 -41.499s23.833 -34 35.5 -53s23 -38.833 34 -59.5s20.167 -40.667 27.5 -60c11.333 -30 20.833 -64.5 28.5 -103.5s11.5 -77.5 11.5 -115.5c0 -45.333 -4.83301 -87 -14.5 -125
s-21.667 -72.667 -36 -104s-29.666 -59.166 -45.999 -83.499s-31.166 -45.5 -44.499 -63.5c-8 -11.333 -15 -20.833 -21 -28.5l-18 -22c-6 -7 -12.333 -14 -19 -21l-23 -24.5l-114 87c8.66699 12.667 19.334 29.334 32.001 50.001s24.834 46.5 36.501 77.5
s21.5 68.167 29.5 111.5s12 94.666 12 153.999c0 43.333 -3.16699 86.166 -9.5 128.499s-16.166 83.5 -29.499 123.5c-6 18 -12 34 -18 48s-12.167 26.667 -18.5 38s-12.666 22 -18.999 32l-18.5 29z" />
    <glyph glyph-name="asterisk" unicode="*" horiz-adv-x="396" 
d="M140 709h115l-31 -150l134 76l36 -108l-153 -18l112 -103l-92 -69l-64 142l-65 -140l-90 65l112 104l-153 15l35 110l134 -75z" />
    <glyph glyph-name="plus" unicode="+" horiz-adv-x="667" 
d="M398 0h-127v228h-229v127h229v228h127v-228h227v-127h-227v-228z" />
    <glyph glyph-name="comma" unicode="," horiz-adv-x="313" 
d="M40 184h231.001v-169c-0.666992 -10 -1.83398 -22.167 -3.50098 -36.5s-5.66699 -29.333 -12 -45s-15.666 -31.334 -27.999 -47.001s-29.5 -29.5 -51.5 -41.5c-27.333 -15.333 -52.5 -24.166 -75.5 -26.499s-43.167 -3.5 -60.5 -3.5v82c14 2 26.167 4.83301 36.5 8.5
s19.166 9.16699 26.499 16.5s13.333 17.333 18 30s8 28.667 10 48h-91v184z" />
    <glyph glyph-name="hyphen" unicode="-" horiz-adv-x="458" 
d="M37 430h368v-175h-368v175z" />
    <glyph glyph-name="hyphen" unicode="&#xad;" horiz-adv-x="458" 
d="M37 430h368v-175h-368v175z" />
    <glyph glyph-name="period" unicode="." horiz-adv-x="313" 
d="M41 184h230v-184h-230v184z" />
    <glyph glyph-name="slash" unicode="/" horiz-adv-x="479" 
d="M273 706h188l-278 -706h-187z" />
    <glyph glyph-name="zero" unicode="0" horiz-adv-x="854" 
d="M424 545c-18 -0.666992 -37.3301 -4.5 -57.9971 -11.5s-39.667 -22.167 -57 -45.5c-12 -17.333 -21.333 -38.5 -28 -63.5s-10 -51.833 -10 -80.5c0 -9.33301 0.333008 -18.333 1 -27s1.66699 -17.667 3 -27c1.33301 -10 4 -23.667 8 -41s11.167 -34.5 21.5 -51.5
s25.166 -31.667 44.499 -44s45 -18.5 77 -18.5c8 0 17 0.5 27 1.5s20.333 3.33301 31 7s21.167 9.16699 31.5 16.5s20.166 17.666 29.499 30.999c8 11.333 14.5 24 19.5 38s9 28 12 42s5 27.167 6 39.5s1.5 23.166 1.5 32.499c0 22 -2.33301 46 -7 72s-13.667 49 -27 69
c-10.667 16.667 -25.834 31.334 -45.501 44.001s-46.5 18.334 -80.5 17.001zM443.003 693c59.333 -0.666992 112.999 -7.66602 160.999 -20.999s88.667 -35 122 -65c22 -20 39.667 -41.5 53 -64.5s23.666 -46.333 30.999 -70s12.166 -47.167 14.499 -70.5
s3.5 -45.666 3.5 -66.999c0 -63.333 -10.167 -117.5 -30.5 -162.5s-48.166 -81.667 -83.499 -110s-77.5 -49.166 -126.5 -62.499s-101.833 -20 -158.5 -20c-15.333 0 -33.166 0.5 -53.499 1.5s-42 3.66699 -65 8s-46.5 10.666 -70.5 18.999s-47.667 19.833 -71 34.5
c-32 20 -57.333 42.333 -76 67s-33 50 -43 76s-16.5 51.667 -19.5 77s-4.5 48.666 -4.5 69.999c0 20 1 39.833 3 59.5s5.66699 39.167 11 58.5c12.667 48 32.334 87.667 59.001 119s58 56.166 94 74.499s75.333 31 118 38s86.667 10.5 132 10.5z" />
    <glyph glyph-name="one" unicode="1" horiz-adv-x="854" 
d="M163 587c29.333 3.33301 55.167 8.16602 77.5 14.499s42 13.5 59 21.5s32.333 16.833 46 26.5l39.5 28.5h176v-678h-234v474l-44 -13.5c-12 -3.66699 -23.667 -6.5 -35 -8.5s-23.5 -3.66699 -36.5 -5s-29.167 -2.66602 -48.5 -3.99902v144z" />
    <glyph glyph-name="two" unicode="2" horiz-adv-x="854" 
d="M779 0l-707.001 -0.00292969v139c6 10.667 13 22.5 21 35.5s18.667 26.833 32 41.5s30.166 30.167 50.499 46.5s45.833 33.5 76.5 51.5c6.66699 4 13.334 7.66699 20.001 11s15.834 7.66602 27.501 12.999l45.5 21l76 35l46.5 22c13.667 6.66699 25 13.334 34 20.001
s15.833 13.834 20.5 21.501s7 16.834 7 27.501c0 14.667 -4.5 26 -13.5 34s-19.5 14 -31.5 18s-24.167 6.33301 -36.5 7s-21.833 1 -28.5 1c-14 0 -27.833 -1.16699 -41.5 -3.5s-26.167 -7.16602 -37.5 -14.499c-9.33301 -6 -16.666 -12.667 -21.999 -20
s-9.33301 -14.833 -12 -22.5s-4.33398 -15.334 -5.00098 -23.001s-1 -14.5 -1 -20.5l-208 5c2 25.333 5 50 9 74s14.333 48 31 72c10.667 14.667 23.334 28 38.001 40s33.834 22.167 57.501 30.5s53 14.833 88 19.5s78.167 7 129.5 7
c75.333 0 134.666 -6.83301 177.999 -20.5s76.666 -32.834 99.999 -57.501c16 -17.333 27.5 -35.833 34.5 -55.5s10.5 -40.5 10.5 -62.5c0 -24.667 -4.66699 -46.667 -14 -66s-21.5 -36.5 -36.5 -51.5s-31.5 -28 -49.5 -39s-35.667 -20.5 -53 -28.5
c-20 -9.33301 -40.333 -18.166 -61 -26.499s-41 -17.166 -61 -26.499c-6.66699 -2.66699 -16 -6.66699 -28 -12s-25.333 -11.833 -40 -19.5l-45 -24.5c-15.333 -8.66699 -29.666 -18 -42.999 -28c-3.33301 -2 -6.5 -4.16699 -9.5 -6.5l-9.5 -7.5
c5.33301 0.666992 10.333 1 15 1h15c5.33301 0.666992 10.666 1 15.999 1h16h399v-159z" />
    <glyph glyph-name="three" unicode="3" horiz-adv-x="854" 
d="M278 412l56.0068 0.000976562c36 0 68 0.666992 96 2s48.667 4.66602 62 9.99902c11.333 4.66699 20.333 11.334 27 20.001s10.334 22 11.001 40c0 13.333 -3.33301 24.166 -10 32.499s-15.334 15 -26.001 20s-23 8.33301 -37 10s-28.333 2.5 -43 2.5
c-29.333 -0.666992 -53.333 -3.33398 -72 -8.00098s-33.5 -10.167 -44.5 -16.5s-18.833 -13 -23.5 -20s-8 -12.833 -10 -17.5l-229 10c2.66699 11.333 6 24 10 38s10.833 28.333 20.5 43s22.667 29.167 39 43.5s38.166 27 65.499 38s60.833 19.833 100.5 26.5
s87.5 10 143.5 10c18.667 0 37.167 -0.333008 55.5 -1s36.833 -1.66699 55.5 -3l45 -4.5c16 -1.66699 32.333 -4.33398 49 -8.00098s33.167 -8.5 49.5 -14.5s31.5 -14 45.5 -24s25.5 -20.833 34.5 -32.5s16.333 -23.5 22 -35.5s9.66699 -24 12 -36s3.5 -23 3.5 -33
c0 -9.33301 -1 -19.333 -3 -30s-6 -21.334 -12 -32.001c-7.33301 -13.333 -20.333 -27.166 -39 -41.499s-45 -25.833 -79 -34.5c-4.66699 -1.33301 -9.16699 -2.33301 -13.5 -3s-9.16602 -1.66699 -14.499 -3c5.33301 -0.666992 10.166 -1.33398 14.499 -2.00098
s9.16602 -1.66699 14.499 -3c44.667 -8.66699 80.667 -25 108 -49s41 -57.333 41 -100c0 -34 -6.33301 -63 -19 -87s-29.667 -44.333 -51 -61s-45.833 -29.667 -73.5 -39s-56.334 -16.666 -86.001 -21.999s-59.334 -8.66602 -89.001 -9.99902s-56.834 -2 -81.501 -2
c-29.333 0 -58.333 0.666992 -87 2s-56.5 4 -83.5 8s-52.5 10.167 -76.5 18.5s-46 19.5 -66 33.5c-18.667 13.333 -33.834 27.333 -45.501 42s-20.834 29 -27.501 43s-11.5 27.333 -14.5 40s-5.16699 23.334 -6.5 32.001l225 10c0 -4 3.83301 -11.667 11.5 -23
s17.834 -20.666 30.501 -27.999c17.333 -10 37.166 -17 59.499 -21s46.833 -6 73.5 -6c54 0 92.333 6.83301 115 20.5s34 33.167 34 58.5c0 16 -4.33301 28.667 -13 38s-19 16.166 -31 20.499s-24.667 7 -38 8s-25 1.5 -35 1.5h-150v129z" />
    <glyph glyph-name="four" unicode="4" horiz-adv-x="854" 
d="M473 498l-214 -216h214v216zM428 677h271v-395h118v-159h-120v-123h-225v123h-444v148z" />
    <glyph glyph-name="five" unicode="5" horiz-adv-x="854" 
d="M290 524l-9.00098 -103.001c9.33301 4 20.833 8.33301 34.5 13s29.667 9.16699 48 13.5s38.833 8 61.5 11s47.667 4.5 75 4.5c46.667 0 90.167 -5.16699 130.5 -15.5s75.166 -26.833 104.499 -49.5c18.667 -15.333 33.167 -31 43.5 -47s18 -31 23 -45
s7.83301 -26.667 8.5 -38s1 -19.333 1 -24c0 -20.667 -3.16699 -42.167 -9.5 -64.5s-16.833 -43.833 -31.5 -64.5s-34 -39.834 -58 -57.501s-53.667 -32.5 -89 -44.5c-21.333 -7.33301 -43.666 -12.833 -66.999 -16.5s-45.5 -6.5 -66.5 -8.5s-39.333 -3.16699 -55 -3.5
s-26.5 -0.5 -32.5 -0.5c-64.667 0 -117.334 5.33301 -158.001 16s-72 21.667 -94 33c-25.333 12.667 -45.5 26.5 -60.5 41.5s-26.333 29.667 -34 44s-12.834 27.833 -15.501 40.5s-4.66699 23.334 -6 32.001l240 10c4 -13.333 11.333 -24.333 22 -33
s22.834 -15.5 36.501 -20.5s28 -8.5 43 -10.5s29.167 -3 42.5 -3c18 0 35.833 1.83301 53.5 5.5s33.334 9.5 47.001 17.5s24.834 18.333 33.501 31s13 28 13 46c0 18.667 -5.16699 34 -15.5 46s-23.333 21.333 -39 28s-32.167 11.167 -49.5 13.5s-33 3.5 -47 3.5
c-20 0 -37.333 -1.33301 -52 -4s-27.167 -6 -37.5 -10s-19 -8.16699 -26 -12.5s-12.833 -8.16602 -17.5 -11.499l-210 4l35 387h673l-14 -154h-475z" />
    <glyph glyph-name="six" unicode="6" horiz-adv-x="854" 
d="M449 313c-8 0 -20.6699 -0.666992 -38.0029 -2s-34.5 -4.66602 -51.5 -9.99902s-32 -13.833 -45 -25.5s-19.5 -27.834 -19.5 -48.501s5.33301 -37 16 -49s23.834 -21 39.501 -27s32.334 -9.66699 50.001 -11s33.834 -2 48.501 -2c44 0 76.833 8 98.5 24s32.5 38 32.5 66
c0 22.667 -10.5 42.5 -31.5 59.5s-54.167 25.5 -99.5 25.5zM437.997 548c-17.333 0 -32.5029 -1.66699 -45.5029 -5s-24.167 -7.5 -33.5 -12.5s-17.166 -10 -23.499 -15s-11.166 -9.5 -14.499 -13.5c-10 -10.667 -18 -22.167 -24 -34.5s-10.667 -24.666 -14 -36.999
s-5.66602 -24.333 -6.99902 -36s-2.33301 -22.167 -3 -31.5c21.333 20.667 43.833 37 67.5 49s46.667 21 69 27s43.166 9.66699 62.499 11s36 2 50 2c48.667 0 91.667 -5.33301 129 -16s68.5 -25.667 93.5 -45s43.833 -42.5 56.5 -69.5s19 -56.833 19 -89.5
c0 -50 -15.833 -95 -47.5 -135s-81.834 -69.667 -150.501 -89c-28 -7.33301 -56.5 -12.5 -85.5 -15.5s-58.167 -4.5 -87.5 -4.5c-42 0 -80 2.83301 -114 8.5s-62.667 12.167 -86 19.5c-24 8 -46.833 18.333 -68.5 31s-41.5 28.667 -59.5 48
c-30.667 32 -52.334 69 -65.001 111s-19 85.333 -19 130c0 30.667 3.16699 61.5 9.5 92.5s15.833 59.167 28.5 84.5c8.66699 18.667 20.834 38.667 36.501 60s37.834 41.166 66.501 59.499s65.334 33.5 110.001 45.5s100.334 18 167.001 18c56 0 106 -5.33301 150 -16
s79 -24.667 105 -42c15.333 -10 28.166 -20.5 38.499 -31.5s19 -22 26 -33s12.5 -21.5 16.5 -31.5l11 -27l-253 -11c-14.667 18.667 -32.667 30.667 -54 36s-40.333 8 -57 8z" />
    <glyph glyph-name="seven" unicode="7" horiz-adv-x="854" 
d="M63 677l747.001 -0.00195312l-7 -77c-2.66699 -24.667 -6.16699 -45.5 -10.5 -62.5s-11.833 -33.667 -22.5 -50s-25.5 -33.833 -44.5 -52.5s-44.167 -42 -75.5 -70l-85 -77c-23.333 -22 -43.5 -42.167 -60.5 -60.5s-31 -35.666 -42 -51.999s-20.333 -33.166 -28 -50.499
s-14.5 -36 -20.5 -56s-12.333 -43 -19 -69h-268c8 53.333 19.333 98.5 34 135.5s32.167 69.167 52.5 96.5s43.5 51.5 69.5 72.5s55 42.167 87 63.5c2.66699 1.33301 7 4 13 8l19.5 12.5l20 12.5c6.33301 4 10.833 7 13.5 9c20.667 13.333 37.167 25 49.5 35
s21.666 19 27.999 27s10.5 15.333 12.5 22s3.33301 14 4 22h-467v161z" />
    <glyph glyph-name="eight" unicode="8" horiz-adv-x="854" 
d="M432 292c-15.333 0 -31.333 -0.667969 -48 -2.00098s-32 -4.66602 -46 -9.99902s-25.667 -13.166 -35 -23.499s-14 -24.5 -14 -42.5c0 -16.667 4.16699 -30.334 12.5 -41.001s19.166 -19 32.499 -25s28.333 -9.83301 45 -11.5s33.667 -2.16699 51 -1.5
c48 2 82.667 8.66699 104 20s32 31 32 59c0 19.333 -5 34.333 -15 45s-22.167 18.5 -36.5 23.5s-29.166 7.83301 -44.499 8.5s-28 1 -38 1zM423 547.999c-8 0 -18.498 -0.49707 -31.498 -1.49707s-26 -3.83301 -39 -8.5s-24.167 -11.334 -33.5 -20.001s-14 -21 -14 -37
s4 -28.5 12 -37.5s18.167 -15.667 30.5 -20s25.666 -7 39.999 -8s27.833 -1.5 40.5 -1.5c8 0 18.833 0.333008 32.5 1s27.167 3.16699 40.5 7.5s25 11.166 35 20.499s15 22.666 15 39.999c0 15.333 -4.33301 27.333 -13 36s-19.5 15.167 -32.5 19.5s-26.833 7 -41.5 8
s-28.334 1.5 -41.001 1.5zM652.002 355.002c8.66699 -2 22.001 -5.33691 40.001 -10.0039s36 -12.667 54 -24s33.667 -26.833 47 -46.5s20 -45.167 20 -76.5c-1.33301 -41.333 -12.833 -75.666 -34.5 -102.999s-50.667 -49.166 -87 -65.499s-78.5 -27.666 -126.5 -33.999
s-99 -8.83301 -153 -7.5c-65.333 0 -121.333 5.5 -168 16.5s-85 26 -115 45s-52 41.167 -66 66.5s-21 52.666 -21 81.999c0 30 6.33301 54.5 19 73.5s27.667 34.333 45 46s35.333 20.334 54 26.001s33.667 9.83398 45 12.501c-29.333 6.66699 -53 15.5 -71 26.5
s-32.333 22.5 -43 34.5s-17.834 24.333 -21.501 37s-5.5 24.667 -5.5 36c0 26 6.83301 51.167 20.5 75.5s35.5 45.833 65.5 64.5s68.833 33.667 116.5 45s105.5 17 173.5 17c64 0 118.5 -5.5 163.5 -16.5s81.667 -25.5 110 -43.5s48.833 -38.833 61.5 -62.5
s19 -48.5 19 -74.5c0 -22 -4.5 -40.667 -13.5 -56s-19.333 -28 -31 -38s-23.5 -17.833 -35.5 -23.5s-21 -9.5 -27 -11.5c-4 -1.33301 -8 -2.5 -12 -3.5s-7.66699 -2.16699 -11 -3.5z" />
    <glyph glyph-name="nine" unicode="9" horiz-adv-x="854" 
d="M402 542c-13.333 -0.666992 -27.668 -1.99902 -43.001 -3.99902s-29.666 -6 -42.999 -12s-24.333 -14.333 -33 -25s-13 -25 -13 -43c0 -20.667 5.83301 -36.5 17.5 -47.5s25.334 -19.167 41.001 -24.5s31.167 -8.5 46.5 -9.5s26.666 -1.5 33.999 -1.5
c100 0 150 27.333 150 82c0 33.333 -13.5 56.166 -40.5 68.499s-65.833 17.833 -116.5 16.5zM566.998 307.001c-8.66699 -7.33301 -19.002 -15.5029 -31.002 -24.5029s-27 -17.5 -45 -25.5s-39.833 -14.667 -65.5 -20s-56.5 -8 -92.5 -8
c-41.333 0 -80.333 4.16699 -117 12.5s-68.834 21.333 -96.501 39s-49.5 40.334 -65.5 68.001s-24 60.834 -24 99.501c0 16.667 2.16699 34 6.5 52s11.666 35.833 21.999 53.5s24.333 34.5 42 50.5s39.5 30 65.5 42c23.333 10.667 48.666 18.834 75.999 24.501
s53.333 10 78 13s46.5 4.83301 65.5 5.5s31.833 1 38.5 1c58.667 0 111.834 -6.33301 159.501 -19s88.334 -32.5 122.001 -59.5s59.667 -61.5 78 -103.5s27.5 -92.667 27.5 -152c0 -18.667 -1.33301 -40.5 -4 -65.5s-8.5 -50.833 -17.5 -77.5s-22.167 -53.334 -39.5 -80.001
s-40.333 -51 -69 -73c-22 -16.667 -45.167 -29.834 -69.5 -39.501s-49.166 -17.167 -74.499 -22.5s-50.833 -8.83301 -76.5 -10.5s-50.834 -2.5 -75.501 -2.5c-28 0 -58.5 1.5 -91.5 4.5s-67.167 10.167 -102.5 21.5c-27.333 8.66699 -50.166 18.667 -68.499 30
s-33.666 23.833 -45.999 37.5s-22.166 28.334 -29.499 44.001s-13.333 31.834 -18 48.501l262 6l13.5 -15c5 -5.33301 11.333 -10.166 19 -14.499s17 -7.83301 28 -10.5s24.5 -4 40.5 -4c20.667 0 41 2.5 61 7.5s38 14.167 54 27.5c13.333 10.667 24 22.667 32 36
s14 26.333 18 39s6.66699 24.667 8 36s2 20.666 2 27.999z" />
    <glyph glyph-name="colon" unicode=":" horiz-adv-x="354" 
d="M80 184h231v-184h-231v184zM81 529h232v-183h-232v183z" />
    <glyph glyph-name="semicolon" unicode=";" horiz-adv-x="354" 
d="M78 184h231.001v-169c-0.666992 -10 -1.83398 -22.167 -3.50098 -36.5s-5.66699 -29.333 -12 -45s-15.666 -31.334 -27.999 -47.001s-29.5 -29.5 -51.5 -41.5c-27.333 -15.333 -52.5 -24.166 -75.5 -26.499s-43.167 -3.5 -60.5 -3.5v82c14 2 26.167 4.83301 36.5 8.5
s19.166 9.16699 26.499 16.5s13.333 17.333 18 30s8 28.667 10 48h-91v184zM78.001 531h232v-185h-232v185z" />
    <glyph glyph-name="less" unicode="&#x3c;" horiz-adv-x="667" 
d="M667 -3l-667 292v124l667 296v-139l-489 -219l489 -215v-139z" />
    <glyph glyph-name="equal" unicode="=" horiz-adv-x="667" 
d="M667 333h-667v126h667v-126zM667 124h-667v127h667v-127z" />
    <glyph glyph-name="greater" unicode="&#x3e;" horiz-adv-x="667" 
d="M0 -3v139l489 215l-489 219v139l667 -296v-124z" />
    <glyph glyph-name="question" unicode="?" horiz-adv-x="771" 
d="M289 184h215v-184h-215v184zM63 463c0.666992 12.667 1.83301 27.167 3.5 43.5s5.33398 33.166 11.001 50.499s14 34.833 25 52.5s26.5 34.167 46.5 49.5c19.333 14.667 40.833 26.334 64.5 35.001s47.667 15 72 19s48.166 6.5 71.499 7.5s44.333 1.5 63 1.5
c16.667 0 36.667 -0.333008 60 -1s47.166 -3.16699 71.499 -7.5s48.5 -11 72.5 -20s45.333 -21.5 64 -37.5c12.667 -11.333 23.167 -23.5 31.5 -36.5s14.666 -25.667 18.999 -38s7.33301 -24.333 9 -36s2.5 -21.834 2.5 -30.501c0 -22 -4 -41.5 -12 -58.5
s-19.167 -32.5 -33.5 -46.5s-31.666 -27 -51.999 -39s-42.833 -24.333 -67.5 -37c-25.333 -12.667 -45.166 -23.834 -59.499 -33.501s-21.833 -23.167 -22.5 -40.5h-216c0 18.667 1 34.834 3 48.501s6.5 26.167 13.5 37.5s17.167 21.833 30.5 31.5s31.333 19.5 54 29.5
l53 25.5c14.667 7 26.5 14 35.5 21s15.5 14.333 19.5 22s6 17.167 6 28.5c0 2.66699 -0.666992 8.33398 -2 17.001s-5.5 17.5 -12.5 26.5s-17.667 17 -32 24s-34.5 10.5 -60.5 10.5c-16 0 -32 -1.5 -48 -4.5s-30.333 -9.33301 -43 -19s-22.667 -23 -30 -40
s-10.333 -39.5 -9 -67.5z" />
    <glyph glyph-name="at" unicode="@" horiz-adv-x="896" 
d="M524 349c-0.666992 27.333 -7.33594 48.166 -20.0029 62.499s-28.667 21.5 -48 21.5c-18 0 -34.333 -6.33301 -49 -19s-27.167 -28.5 -37.5 -47.5s-18.166 -39.667 -23.499 -62s-8 -43.5 -8 -63.5c0 -20.667 2.83301 -36.667 8.5 -48s12 -19.833 19 -25.5
s14 -9.16699 21 -10.5s11.833 -2 14.5 -2c12.667 0 25.834 4.33301 39.501 13s26.167 20.334 37.5 35.001c8 10.667 15 22.5 21 35.5s10.833 26 14.5 39s6.33398 25.667 8.00098 38s2.5 23.5 2.5 33.5zM825.998 40c-15.333 -14 -34.3369 -30.5029 -57.0039 -49.5029
s-49.167 -37 -79.5 -54s-64.666 -31.333 -102.999 -43s-80.833 -17.5 -127.5 -17.5c-25.333 0 -52.5 2.33301 -81.5 7s-58 12.5 -87 23.5s-56.833 25.667 -83.5 44s-50.167 40.833 -70.5 67.5s-36.666 58.167 -48.999 94.5s-18.5 78.166 -18.5 125.499
c0 63.333 11.667 123.666 35 180.999s55.5 107.666 96.5 150.999s89.5 77.833 145.5 103.5s117 38.5 183 38.5c46.667 0 88.334 -7.33301 125.001 -22s67.834 -35 93.501 -61s45.334 -56.833 59.001 -92.5s20.5 -74.5 20.5 -116.5c0 -45.333 -6.5 -89.166 -19.5 -131.499
s-30.5 -80 -52.5 -113s-47.333 -59.5 -76 -79.5s-58.667 -30 -90 -30c-18.667 0 -33.667 2.83301 -45 8.5s-20.333 12.334 -27 20.001s-11.167 15.334 -13.5 23.001s-3.83301 13.167 -4.5 16.5c-15.333 -18 -33 -33.833 -53 -47.5s-44.333 -20.5 -73 -20.5
c-18.667 0 -36.5 3.5 -53.5 10.5s-31.833 17.5 -44.5 31.5s-22.667 31.667 -30 53s-11 46.333 -11 75c0 34.667 5.33301 69 16 103s25.667 64.667 45 92s42.166 49.5 68.499 66.5s55.5 25.5 87.5 25.5c16.667 0 31 -2.16699 43 -6.5s22 -9.66602 30 -15.999
s14.667 -13 20 -20l13 -17.5l9 39h91l-34 -158l-7.5 -36.5l-9 -46.5c-3 -16 -5.5 -31.333 -7.5 -46s-3 -26 -3 -34c0 -6 0.833008 -12.5 2.5 -19.5s7.16699 -10.5 16.5 -10.5c10.667 0 23.334 7.16699 38.001 21.5s28.667 33.5 42 57.5s24.666 52 33.999 84s14 66 14 102
c0 40 -6.66699 73.833 -20 101.5s-30.666 50 -51.999 67s-45.333 29.333 -72 37s-53 11.5 -79 11.5c-48 0 -94.167 -10.333 -138.5 -31s-83.5 -49 -117.5 -85s-61.333 -78 -82 -126s-31 -99.333 -31 -154c0 -55.333 10 -101.166 30 -137.499s45.167 -65.166 75.5 -86.499
s63.166 -36.333 98.499 -45s68.333 -13 99 -13c44 0 88.667 7.5 134 22.5s89.333 38.5 132 70.5c25.333 20 45 37.667 59 53z" />
    <glyph glyph-name="A" unicode="A" horiz-adv-x="896" 
d="M449 510l-81 -239h164zM304 706h288l306 -706h-275l-38 115h-270l-38 -115h-277z" />
    <glyph glyph-name="B" unicode="B" horiz-adv-x="938" 
d="M314 161l255.999 -0.000976562c12.667 0 23.5 0.333008 32.5 1s16.167 2.33398 21.5 5.00098c16.667 6 27.334 14.667 32.001 26s7 23 7 35c0 27.333 -11.333 44.333 -34 51c-8 2.66699 -16.833 4.16699 -26.5 4.5s-22.167 0.5 -37.5 0.5h-251v-123zM314.999 436.999
l237.001 0.000976562c19.333 0 32.166 0.666992 38.499 2s11.166 2.66602 14.499 3.99902c20.667 7.33301 31 24.333 31 51c0 21.333 -10.667 36.666 -32 45.999c-5.33301 2.66699 -12.166 4.33398 -20.499 5.00098s-18.5 1 -30.5 1h-238v-109zM61 706l592.004 0.00292969
c12 0 25.167 -0.333008 39.5 -1s28.666 -2.16699 42.999 -4.5s28.666 -6 42.999 -11s27.5 -11.833 39.5 -20.5c12.667 -9.33301 23 -19.833 31 -31.5s14.167 -23.334 18.5 -35.001s7.16602 -23 8.49902 -34s2 -20.5 2 -28.5c0 -44 -11.833 -78.667 -35.5 -104
s-57.167 -43.333 -100.5 -54c10.667 -1.33301 21.667 -3 33 -5s22.666 -5 33.999 -9s22.5 -9.33301 33.5 -16s21.5 -15 31.5 -25c15.333 -16 25.833 -33.333 31.5 -52s8.5 -40.667 8.5 -66c0 -24.667 -3.33301 -46.834 -10 -66.501s-15.834 -37 -27.501 -52
s-25.167 -27.833 -40.5 -38.5s-31.666 -19.334 -48.999 -26.001c-30 -11.333 -61 -18.5 -93 -21.5s-62 -4.5 -90 -4.5h-543v706z" />
    <glyph glyph-name="C" unicode="C" horiz-adv-x="938" 
d="M509 574c-28.667 0 -55.9971 -4.50488 -81.9971 -13.5049s-49 -22.667 -69 -41s-35.833 -41.333 -47.5 -69s-17.5 -60.167 -17.5 -97.5c0 -26.667 4 -53 12 -79s20.5 -49.333 37.5 -70s38.667 -37.334 65 -50.001s57.5 -19 93.5 -19c28 0 54.167 4 78.5 12
s45.833 19.667 64.5 35c16.667 13.333 28.334 25.833 35.001 37.5s12 22.834 16 33.501l241 -25c-4 -13.333 -8.83301 -26.833 -14.5 -40.5s-14.167 -29.5 -25.5 -47.5c-20.667 -32 -45.834 -58.5 -75.501 -79.5s-62.167 -37.833 -97.5 -50.5s-72.333 -21.5 -111 -26.5
s-77.334 -7.5 -116.001 -7.5c-34.667 0 -68.834 1.83301 -102.501 5.5s-66.834 10.5 -99.501 20.5c-36 11.333 -70.167 26.833 -102.5 46.5s-60.5 43.834 -84.5 72.501s-43 62.167 -57 100.5s-21 81.833 -21 130.5c0 22.667 2.33301 48 7 76s13.5 56.167 26.5 84.5
s30.667 56 53 83s51 50.833 86 71.5s77.333 37.334 127 50.001s107.834 19 174.501 19c57.333 0 106.833 -4 148.5 -12s77.5 -18.333 107.5 -31s54.667 -27.167 74 -43.5s35 -32.666 47 -48.999s21.167 -32.166 27.5 -47.499s11.5 -28.666 15.5 -39.999l-234 -42
c-5.33301 10 -11.833 21.333 -19.5 34s-20.834 25 -39.501 37c-19.333 12 -39.833 20.333 -61.5 25s-41.5 7 -59.5 7z" />
    <glyph glyph-name="D" unicode="D" horiz-adv-x="917" 
d="M308 160h111c43.333 0 77.833 3.66699 103.5 11s45.834 17.666 60.501 30.999c17.333 15.333 31.166 36.5 41.499 63.5s15.5 55.5 15.5 85.5c0 34 -6 63.333 -18 88s-27 44.334 -45 59.001c-22 17.333 -46.833 28.333 -74.5 33s-53.167 7 -76.5 7h-118v-378zM61 706
l401.003 -0.00195312c12 0 27.5 -0.166992 46.5 -0.5s39.667 -2 62 -5s45.666 -7.66699 69.999 -14s48.5 -15.666 72.5 -27.999s46.667 -28.166 68 -47.499s40.333 -43.333 57 -72c4 -6.66699 8.66699 -15.5 14 -26.5s10.666 -24.5 15.999 -40.5s9.83301 -34.5 13.5 -55.5
s5.5 -44.5 5.5 -70.5c0 -28 -2.5 -55.5 -7.5 -82.5s-13.167 -53.167 -24.5 -78.5c-4.66699 -10 -10.334 -21 -17.001 -33s-15.167 -24.167 -25.5 -36.5s-22.833 -24.5 -37.5 -36.5s-32 -23.333 -52 -34c-38 -20 -74.667 -32.5 -110 -37.5s-70 -7.5 -104 -7.5h-448v706z" />
    <glyph glyph-name="E" unicode="E" horiz-adv-x="833" 
d="M804 706v-159h-491v-115h454v-160h-455v-112h502v-160h-754v706h744z" />
    <glyph glyph-name="F" unicode="F" horiz-adv-x="750" 
d="M61 706h692v-159h-439v-135h403v-158h-403v-254h-253v706z" />
    <glyph glyph-name="G" unicode="G" horiz-adv-x="1000" 
d="M530 423l419.998 -0.000976562v-423h-218v78c-6.66699 -6 -13.334 -11.667 -20.001 -17s-16.667 -12.333 -30 -21c-9.33301 -6 -21.166 -12.5 -35.499 -19.5s-31.5 -13.5 -51.5 -19.5s-43.5 -11.167 -70.5 -15.5s-57.833 -6.5 -92.5 -6.5
c-52.667 0 -103.167 7.5 -151.5 22.5s-91.166 37.5 -128.499 67.5s-67.166 67.833 -89.499 113.5s-33.5 99.5 -33.5 161.5c0 12.667 0.5 25.334 1.5 38.001s2.83301 25.334 5.5 38.001c6.66699 35.333 19.5 71.333 38.5 108s47.5 71 85.5 103
c24.667 20.667 51.167 37.834 79.5 51.501s57.833 24.667 88.5 33s62.167 14.166 94.5 17.499s64.5 5 96.5 5c54.667 0 109.667 -5.66699 165 -17c43.333 -9.33301 81.333 -22.5 114 -39.5s62.667 -41.167 90 -72.5c11.333 -12.667 19.5 -23.834 24.5 -33.501l15.5 -31.5
l-250 -26c-23.333 24 -48.166 40.167 -74.499 48.5s-53.166 12.5 -80.499 12.5c-42 0 -77.667 -7 -107 -21s-53.5 -32 -72.5 -54s-32.833 -46.5 -41.5 -73.5s-13 -53.5 -13 -79.5c0 -36 6 -67.167 18 -93.5s28.167 -48.333 48.5 -66s43.666 -30.667 69.999 -39
s53.833 -12.5 82.5 -12.5c24.667 0 48.667 3.16699 72 9.5s44.166 15 62.499 26s33.833 24 46.5 39s21 31.167 25 48.5h-184v160z" />
    <glyph glyph-name="H" unicode="H" horiz-adv-x="938" 
d="M59 706h255v-258h308v258h256v-706h-256v271h-308v-271h-255v706z" />
    <glyph glyph-name="I" unicode="I" 
d="M314 706v-706h-253v706h253z" />
    <glyph glyph-name="J" unicode="J" horiz-adv-x="458" 
d="M141 706l253.001 -0.000976562v-484c0 -11.333 -0.5 -23.833 -1.5 -37.5s-3.16699 -27.5 -6.5 -41.5s-8.5 -28.167 -15.5 -42.5s-16.833 -27.833 -29.5 -40.5c-13.333 -14 -28 -24.833 -44 -32.5s-32.5 -13.5 -49.5 -17.5s-34.5 -6.5 -52.5 -7.5s-36 -1.83301 -54 -2.5
h-145v167h57c13.333 0.666992 25.333 1.5 36 2.5s19.667 3.83301 27 8.5s13.166 11.834 17.499 21.501s6.83301 23.167 7.5 40.5v466z" />
    <glyph glyph-name="K" unicode="K" horiz-adv-x="833" 
d="M295 706v-264l237 264h306l-277 -267l309 -439h-303l-186 267l-87 -84v-183h-234v706h235z" />
    <glyph glyph-name="L" unicode="L" horiz-adv-x="688" 
d="M314 706v-534h360v-172h-614v706h254z" />
    <glyph glyph-name="M" unicode="M" horiz-adv-x="1146" 
d="M60 706h335l178 -461l178 461h334v-706h-250v452l-167 -452h-195l-165 450v-450h-248v706z" />
    <glyph glyph-name="N" unicode="N" horiz-adv-x="917" 
d="M62 706h209l217 -238l38.5 -42l28.5 -32.5l26 -32.5l32 -41c-1.33301 24 -2.16602 44.833 -2.49902 62.5s-0.833008 34.667 -1.5 51s-1 33.166 -1 50.499v62v160h249v-706h-210l-259 292l-23.5 27.5l-18 22l-17.5 21.5l-21 26
c0.666992 -30.667 1.16699 -56.167 1.5 -76.5s0.666016 -38.666 0.999023 -54.999l1 -49c0.333008 -16.333 0.5 -35.833 0.5 -58.5v-150h-250v706z" />
    <glyph glyph-name="O" unicode="O" horiz-adv-x="1000" 
d="M502 575c-40 0.666992 -73.499 -6.00195 -100.499 -20.002s-48.667 -31.833 -65 -53.5s-28.166 -45.667 -35.499 -72s-11 -51.5 -11 -75.5c0 -27.333 3.83301 -54.166 11.5 -80.499s20 -50 37 -71s39 -38 66 -51s59.5 -19.5 97.5 -19.5c17.333 0 34.833 1.33301 52.5 4
s34.167 8 49.5 16c19.333 10 35.666 22.667 48.999 38s24.166 32.333 32.499 51s14.333 37.667 18 57s5.5 38 5.5 56c0 19.333 -2.66699 41.666 -8 66.999s-15.5 49.333 -30.5 72s-36 41.834 -63 57.501s-62.167 23.834 -105.5 24.501zM487.001 731.998
c44 0.666992 88.6631 -1.83398 133.996 -7.50098s88.333 -16.834 129 -33.501s74.834 -37.834 102.501 -63.501s50.167 -53.5 67.5 -83.5s29.833 -61.333 37.5 -94s11.5 -64 11.5 -94c0 -33.333 -4.16699 -66.333 -12.5 -99s-21.166 -63.667 -38.499 -93
c-22.667 -37.333 -50.667 -69 -84 -95c-48 -38 -100.167 -63.167 -156.5 -75.5s-116.833 -18.5 -181.5 -18.5c-61.333 0 -114.166 4.83301 -158.499 14.5s-82.166 22.167 -113.499 37.5s-57.166 32.333 -77.499 51s-36.833 37 -49.5 55c-24 32 -41.167 65.333 -51.5 100
s-15.5 72.334 -15.5 113.001c0 40 5.16699 78.833 15.5 116.5s26.833 72.5 49.5 104.5c24.667 34.667 53.167 62.834 85.5 84.501s66 38.334 101 50.001s70.167 19.5 105.5 23.5s68.666 6.33301 99.999 7z" />
    <glyph glyph-name="P" unicode="P" horiz-adv-x="833" 
d="M313 408l163.998 -0.000976562c10.667 0 22.334 0.333008 35.001 1s24.334 3.33398 35.001 8.00098s19.5 11.5 26.5 20.5s10.5 22.167 10.5 39.5c0 12 -2.5 23 -7.5 33s-11.167 17.667 -18.5 23c-9.33301 6.66699 -19.333 10.667 -30 12s-21 2 -31 2h-184v-139z
M60.998 706.999h482.999c22.667 -0.666992 44.667 -1.5 66 -2.5s41.666 -3.16699 60.999 -6.5s37.5 -8.5 54.5 -15.5s32.5 -16.833 46.5 -29.5c6.66699 -6 13.667 -13.833 21 -23.5s14.333 -21.5 21 -35.5s12.167 -30.333 16.5 -49s6.5 -40 6.5 -64
s-3.33301 -48.833 -10 -74.5s-19 -49.5 -37 -71.5c-16 -20 -34.667 -35.667 -56 -47s-44.166 -20 -68.499 -26s-50.166 -9.66699 -77.499 -11s-55.333 -2 -84 -2h-191v-249h-252v707z" />
    <glyph glyph-name="Q" unicode="Q" horiz-adv-x="1000" 
d="M501 574c-34.667 0 -65.002 -6.66797 -91.002 -20.001s-47.667 -30.666 -65 -51.999s-30.333 -45.666 -39 -72.999s-13 -55.333 -13 -84c0 -35.333 5.33301 -66.333 16 -93s25.334 -48.834 44.001 -66.501s40.834 -31 66.501 -40s53.167 -13.5 82.5 -13.5
c34.667 0 65 5.5 91 16.5s47.667 26.167 65 45.5s30.333 42 39 68s13 54 13 84c0 34 -4.83301 65.167 -14.5 93.5s-23.5 52.5 -41.5 72.5s-40 35.5 -66 46.5s-55 16.167 -87 15.5zM688.998 -1.00098c-14.667 -4 -28.667 -7.33301 -42 -10s-27.166 -5 -41.499 -7
s-30 -3.5 -47 -4.5s-36.5 -1.5 -58.5 -1.5c-64.667 0 -122.334 5.66699 -173.001 17s-96 29.666 -136 54.999c-23.333 14 -44.666 31 -63.999 51s-36.333 42.667 -51 68s-26 53.166 -34 83.499s-12 63.5 -12 99.5c0 45.333 7.16699 89.333 21.5 132s36.5 81 66.5 115
c26.667 30.667 56.667 55 90 73s67.333 31.5 102 40.5s68.834 14.833 102.501 17.5s64.167 4 91.5 4c20 0 47.167 -1 81.5 -3s70.666 -8.16699 108.999 -18.5s76.666 -26.833 114.999 -49.5s71.5 -54.667 99.5 -96c5.33301 -8 11.5 -18.167 18.5 -30.5
s13.5 -27.166 19.5 -44.499s11.167 -37.666 15.5 -60.999s6.5 -50 6.5 -80c0 -32 -3 -60.5 -9 -85.5s-13.5 -47 -22.5 -66s-18.333 -35.167 -28 -48.5l-25.5 -34l122 -58l-90 -174z" />
    <glyph glyph-name="R" unicode="R" horiz-adv-x="875" 
d="M312 417h190c10 0 20.833 0.333008 32.5 1s22.834 3 33.501 7s19.5 10.333 26.5 19s10.5 21 10.5 37c0 8 -1.33301 16 -4 24s-7.33398 15 -14.001 21c-10 9.33301 -21 15 -33 17s-22.667 3 -32 3h-210v-129zM59 706h519c15.333 0 31.5 -0.333008 48.5 -1s34 -2.5 51 -5.5
s33.833 -7.5 50.5 -13.5s32.334 -14.333 47.001 -25c25.333 -19.333 45.5 -45 60.5 -77s22.5 -66 22.5 -102c0 -25.333 -3.83301 -49.666 -11.5 -72.999s-18.834 -43.666 -33.501 -60.999c-10 -12 -20.333 -21.833 -31 -29.5s-21.167 -13.834 -31.5 -18.501
s-20.333 -8.33398 -30 -11.001l-25.5 -7l177 -282h-280l-145 257h-135v-257h-253v706z" />
    <glyph glyph-name="S" unicode="S" horiz-adv-x="812" 
d="M400 581c-8 0 -18.3291 -0.50293 -30.9961 -1.50293s-25 -3.5 -37 -7.5s-22.167 -9.83301 -30.5 -17.5s-12.5 -17.834 -12.5 -30.501c0 -10 2.66699 -18.333 8 -25c4 -5.33301 11.167 -10.333 21.5 -15s21.666 -9 33.999 -13s24.833 -7.5 37.5 -10.5s24 -5.5 34 -7.5
l72.5 -15.5l72.5 -15.5c15.333 -3.33301 30.5 -6.83301 45.5 -10.5s30.167 -8.5 45.5 -14.5c23.333 -8.66699 43 -19.334 59 -32.001s28.833 -26.5 38.5 -41.5s16.5 -30.667 20.5 -47s6 -32.5 6 -48.5c0 -23.333 -3.5 -45.5 -10.5 -66.5s-15.833 -39.167 -26.5 -54.5
c-30 -44.667 -75 -77.167 -135 -97.5s-137.667 -30.5 -233 -30.5c-18 0 -39.5 0.666992 -64.5 2s-51.167 4.66602 -78.5 9.99902s-54.333 13.333 -81 24s-50.334 25.334 -71.001 44.001c-15.333 13.333 -27.666 27.166 -36.999 41.499s-16.5 28.333 -21.5 42
s-8.66699 26.334 -11 38.001s-3.83301 21.5 -4.5 29.5l249 7c4.66699 -23.333 19.334 -42.666 44.001 -57.999s62 -23 112 -23c13.333 0 28.166 1 44.499 3s30.833 6.66699 43.5 14c8.66699 5.33301 16.667 12.666 24 21.999s11 20 11 32c0 16.667 -5.33301 29 -16 37
s-21 13.667 -31 17c-8 2.66699 -22.5 6.16699 -43.5 10.5l-67.5 13.5l-68.5 13c-21.667 4 -36.834 7 -45.501 9c-28 6 -55 13.333 -81 22c-6.66699 2.66699 -17.667 7.33398 -33 14.001s-31 16.834 -47 30.501s-30 31.5 -42 53.5s-18 49 -18 81
c0 26.667 5.16699 51.834 15.5 75.501s24.166 44.5 41.499 62.5c20 20.667 43.167 37 69.5 49s53.166 21 80.499 27s54.166 9.83301 80.499 11.5s49.166 2.5 68.499 2.5c21.333 0 42.5 -0.666992 63.5 -2s40.833 -3.33301 59.5 -6s35.834 -5.5 51.501 -8.5
s29.167 -6.5 40.5 -10.5c32.667 -10.667 59 -24.167 79 -40.5s35.333 -33.166 46 -50.499s18 -34 22 -50s7 -28.667 9 -38l-248 -14c-1.33301 6 -3.66602 12.667 -6.99902 20s-9.16602 14.333 -17.499 21s-20.333 12.334 -36 17.001s-36.834 7 -63.501 7z" />
    <glyph glyph-name="T" unicode="T" horiz-adv-x="771" 
d="M764 707v-159h-250v-548h-255v548h-251v159h756z" />
    <glyph glyph-name="U" unicode="U" horiz-adv-x="958" 
d="M61 706l252 -0.00195312v-401c0 -22 1.33301 -41.333 4 -58s8 -31.667 16 -45c8 -14 17.833 -25.5 29.5 -34.5s24 -16.167 37 -21.5s26.5 -9 40.5 -11s27.333 -3 40 -3c33.333 0 59.666 4.5 78.999 13.5s33.333 17.5 42 25.5c10.667 10 19 21.167 25 33.5
s10.333 24.833 13 37.5s4.33398 24.834 5.00098 36.501s1 21.834 1 30.501v397h252v-370c0 -20.667 -0.333008 -41.5 -1 -62.5s-2.33398 -41.333 -5.00098 -61s-6.66699 -38.667 -12 -57s-13 -34.833 -23 -49.5c-19.333 -30 -44.5 -53.667 -75.5 -71s-64 -30.5 -99 -39.5
s-70.167 -14.667 -105.5 -17s-67 -3.5 -95 -3.5c-78.667 0 -141.5 5 -188.5 15s-83.833 23 -110.5 39c-27.333 13.333 -49 29.833 -65 49.5s-28.167 40 -36.5 61s-13.666 41.5 -15.999 61.5s-3.5 37 -3.5 51v454z" />
    <glyph glyph-name="V" unicode="V" horiz-adv-x="854" 
d="M-12 706h265l113 -277l18 -45l13 -34.5l12.5 -34.5l15.5 -45l14 39.5l12 32l13 33.5c4.66699 12 10.667 26.667 18 44l58.5 143.5l59.5 143.5h265l-322 -706h-235z" />
    <glyph glyph-name="W" unicode="W" horiz-adv-x="1083" 
d="M-13 706l247.001 0.00292969l59 -336l7 -37.5c2 -10.333 3.66699 -20 5 -29l4 -28c1.33301 -9.66699 2.66602 -20.834 3.99902 -33.501c2 11.333 3.5 20.833 4.5 28.5s2.16699 15 3.5 22l4.5 23l6.5 31.5l85 359h258l43 -200l18.5 -80c5 -21.333 9.16699 -41 12.5 -59
l10 -54.5l12 -67.5l3.5 25.5c1 7 1.83301 13.667 2.5 20s1.5 12.666 2.5 18.999s2.16699 14.166 3.5 23.499l65 373h246l-170 -706h-271l-81 318c-4 16.667 -7.5 30.667 -10.5 42s-5.5 22.5 -7.5 33.5l-6 34.5c-2 12 -4 26.667 -6 44l-5 -40.5c-1.33301 -11 -3 -22 -5 -33
s-4.5 -23 -7.5 -36l-11.5 -47.5l-82 -315h-273z" />
    <glyph glyph-name="X" unicode="X" horiz-adv-x="938" 
d="M44 706h316l110 -192l109 192h315l-263 -324l312 -382h-315l-159 245l-159 -245h-313l313 383z" />
    <glyph glyph-name="Y" unicode="Y" horiz-adv-x="875" 
d="M285 706l116.997 -212.001c4.66699 -9.33301 8.33398 -17 11.001 -23s5.33398 -11.667 8.00098 -17s5.33398 -11.166 8.00098 -17.499l10 -23.5c4 10 7.5 18.333 10.5 25l9 20l10 21.5l13.5 28.5l110 198h292l-320 -496v-210h-250v210l-324 496h295z" />
    <glyph glyph-name="Z" unicode="Z" horiz-adv-x="833" 
d="M44 706h767v-151l-449 -388h448v-167h-804v149l468 398h-430v159z" />
    <glyph glyph-name="bracketleft" unicode="[" horiz-adv-x="396" 
d="M376 707v-141h-108v-678h107v-140h-299v959h300z" />
    <glyph glyph-name="backslash" unicode="\" horiz-adv-x="479" 
d="M273 0l-277 706h187l278 -706h-188z" />
    <glyph glyph-name="bracketright" unicode="]" horiz-adv-x="396" 
d="M19 707h301v-959h-298v140h106v678h-109v141z" />
    <glyph glyph-name="asciicircum" unicode="^" horiz-adv-x="729" 
d="M615 311h-138l-110 231l-116 -231h-137l203 395h104z" />
    <glyph glyph-name="underscore" unicode="_" horiz-adv-x="500" 
d="M510 -125h-520v50h520v-50z" />
    <glyph glyph-name="grave" unicode="`" 
d="M294 737l53 -138h-181l-139 138h267z" />
    <glyph glyph-name="a" unicode="a" horiz-adv-x="792" 
d="M515 243c-10 -0.666992 -22.167 -1.33008 -36.5 -1.99707l-44.5 -2c-15.333 -0.666992 -30.166 -1.5 -44.499 -2.5l-36.5 -2.5c-8.66699 -0.666992 -18.5 -1.83398 -29.5 -3.50098s-21.5 -4.33398 -31.5 -8.00098s-18.333 -9 -25 -16s-10 -16.5 -10 -28.5
c0 -4 1 -9 3 -15s6 -11.833 12 -17.5s14.333 -10.5 25 -14.5s25 -6 43 -6c40.667 0 78 10 112 30c24 13.333 39.667 27.666 47 42.999s12.666 30.333 15.999 45zM41 364.004c1.33301 8.66699 3.3291 18.6699 5.99609 30.0029s6.83398 23.166 12.501 35.499
s13.5 24.5 23.5 36.5s23 23 39 33c25.333 15.333 60.5 27.333 105.5 36s98.833 13 161.5 13c53.333 0 103.5 -2.66699 150.5 -8s85.167 -15.333 114.5 -30c21.333 -10 37.833 -22.167 49.5 -36.5s20.167 -28.833 25.5 -43.5s8.5 -28.834 9.5 -42.501
s1.5 -24.834 1.5 -33.501v-277c0.666992 -20.667 2.83398 -36 6.50098 -46s11.167 -20.667 22.5 -32h-245c-3.33301 10.667 -5.33301 18.834 -6 24.501l-3 26.5l-51.5 -21.5c-19 -7.66699 -39.5 -14.834 -61.5 -21.501s-45.5 -12.167 -70.5 -16.5s-51.5 -6.5 -79.5 -6.5
c-30 0 -60 3.16699 -90 9.5s-57 18.833 -81 37.5c-20.667 15.333 -36.167 33.333 -46.5 54s-15.5 43.667 -15.5 69c0 15.333 2.33301 31.166 7 47.499s11.667 31.166 21 44.499c8.66699 11.333 20.667 22.333 36 33s34.666 19.667 57.999 27c22 6.66699 48.333 12 79 16
s62.667 7.16699 96 9.5s67 3.83301 101 4.5s65.333 1.33398 94 2.00098c0 7.33301 -0.5 14.5 -1.5 21.5s-4.5 14.167 -10.5 21.5c-2 2.66699 -5.16699 5.83398 -9.5 9.50098s-10.166 7 -17.499 10s-17.166 5.66699 -29.499 8s-27.5 3.5 -45.5 3.5
c-6 0 -16.667 -0.5 -32 -1.5s-29.666 -3.16699 -42.999 -6.5c-21.333 -5.33301 -34.833 -11.5 -40.5 -18.5s-10.167 -14.167 -13.5 -21.5h-227z" />
    <glyph glyph-name="b" unicode="b" horiz-adv-x="792" 
d="M401 386c-24 -0.666992 -43.832 -5.16699 -59.499 -13.5s-27.834 -18.5 -36.501 -30.5s-14.667 -24.667 -18 -38s-5 -25.333 -5 -36c0 -17.333 2.83301 -33.333 8.5 -48s13.834 -27.5 24.501 -38.5s23.5 -19.667 38.5 -26s31.833 -9.5 50.5 -9.5
c12.667 0 26.167 1.83301 40.5 5.5s27.666 10.334 39.999 20.001s22.5 22.334 30.5 38.001s12 35.5 12 59.5c0 15.333 -2.33301 30.166 -7 44.499s-12.167 27 -22.5 38s-23.5 19.667 -39.5 26s-35 9.16602 -57 8.49902zM47.001 706l237 0.00292969v-223
c8.66699 6 19 12.667 31 20s26 14.166 42 20.499s34.667 11.666 56 15.999s46.333 6.5 75 6.5c38.667 0 75 -6 109 -18s63.5 -29.667 88.5 -53s44.833 -52.333 59.5 -87s22 -74.334 22 -119.001c0 -52 -9.16699 -95.833 -27.5 -131.5s-42 -64.334 -71 -86.001
s-61 -37.167 -96 -46.5s-68.833 -14 -101.5 -14c-24 0 -45.333 1.83301 -64 5.5s-35.5 8.33398 -50.5 14.001s-28.333 11.667 -40 18s-22.167 12.5 -31.5 18.5v-47h-238v706z" />
    <glyph glyph-name="c" unicode="c" horiz-adv-x="812" 
d="M427 412c-22 0 -42.167 -3.33008 -60.5 -9.99707s-34.166 -16.334 -47.499 -29.001s-23.833 -27.834 -31.5 -45.501s-11.5 -37.5 -11.5 -59.5c0 -42.667 13.667 -77.667 41 -105s65.333 -41 114 -41c13.333 0 28.5 1.66699 45.5 5s33.167 10.333 48.5 21
c14.667 9.33301 24.834 19 30.501 29s10.5 19.667 14.5 29l235 -8c-2 -7.33301 -5 -16.166 -9 -26.499s-9.33301 -21.5 -16 -33.5s-15.334 -24.5 -26.001 -37.5s-23.667 -25.5 -39 -37.5c-22 -18 -46 -32.167 -72 -42.5s-52.333 -18.333 -79 -24
s-52.834 -9.33398 -78.501 -11.001s-49.5 -2.5 -71.5 -2.5c-29.333 0 -59.166 1.66699 -89.499 5s-59.833 9.33301 -88.5 18s-55.667 20 -81 34s-47.666 31.667 -66.999 53c-18.667 20 -34 45 -46 75s-18 62 -18 96c0 26.667 3.5 51.167 10.5 73.5s16 42.333 27 60
s22.667 33 35 46s24.166 23.5 35.499 31.5c20 15.333 41.833 28 65.5 38s48.334 18 74.001 24s52 10.333 79 13s53.833 4 80.5 4c62.667 0 120.5 -8.33301 173.5 -25s96.5 -42.334 130.5 -77.001c19.333 -20 32.666 -38.333 39.999 -55s12.666 -30 15.999 -40l-233 -21
c-8 24.667 -24.667 43.5 -50 56.5s-52.333 19.5 -81 19.5z" />
    <glyph glyph-name="d" unicode="d" horiz-adv-x="792" 
d="M386 387c-38 0 -68.168 -10.332 -90.501 -30.999s-33.5 -50 -33.5 -88c0 -21.333 3.5 -39.833 10.5 -55.5s16.167 -28.5 27.5 -38.5s24.333 -17.5 39 -22.5s29.667 -7.5 45 -7.5c38 0 68.167 11.833 90.5 35.5s33.5 53.167 33.5 88.5c0 15.333 -2.33301 30.166 -7 44.499
s-12 27 -22 38s-22.667 19.833 -38 26.5s-33.666 10 -54.999 10zM742.999 707.001l-0.00195312 -706.999h-235v52c-10 -7.33301 -20.5 -14.333 -31.5 -21s-26.5 -13.667 -46.5 -21c-19.333 -7.33301 -39.166 -12.833 -59.499 -16.5s-41.166 -5.5 -62.499 -5.5
c-42 0 -80.167 6.66699 -114.5 20s-63.833 32.166 -88.5 56.499s-43.834 53.333 -57.501 87s-20.5 70.834 -20.5 111.501c0 36.667 6.16699 72.167 18.5 106.5s30.5 64.666 54.5 90.999s53.667 47.333 89 63s76 23.5 122 23.5c26.667 0 50.167 -2.33301 70.5 -7
s38.333 -10.5 54 -17.5s29.334 -14.5 41.001 -22.5s22.167 -15.667 31.5 -23v230h235z" />
    <glyph glyph-name="e" unicode="e" horiz-adv-x="812" 
d="M548 324c-4 10 -8.16699 19.168 -12.5 27.501s-12.833 17.833 -25.5 28.5c-16 13.333 -33 21.666 -51 24.999s-33.333 5 -46 5c-25.333 0 -46 -3.33301 -62 -10s-29 -14.667 -39 -24s-17.5 -18.833 -22.5 -28.5s-8.83301 -17.5 -11.5 -23.5h270zM270 232.001
c4.66699 -23.333 12.8291 -42.334 24.4961 -57.001s24.667 -26.167 39 -34.5s29 -14 44 -17s28.167 -4.5 39.5 -4.5c14 0 27 1.5 39 4.5s22.333 6.16699 31 9.5c12.667 5.33301 22.167 10.5 28.5 15.5s13.166 11.167 20.499 18.5l246 -12l-13 -22.5
c-5.33301 -9 -12.166 -18.5 -20.499 -28.5s-19 -20.5 -32 -31.5s-28.5 -21.5 -46.5 -31.5c-23.333 -12.667 -48 -22.667 -74 -30s-51.167 -13 -75.5 -17s-46.666 -6.5 -66.999 -7.5s-36.166 -1.5 -47.499 -1.5c-35.333 0 -70.166 2.5 -104.499 7.5
s-67.833 14.167 -100.5 27.5c-25.333 10 -48.833 22.833 -70.5 38.5s-40.167 33.667 -55.5 54s-27.333 43.333 -36 69s-13 54.167 -13 85.5c0 35.333 5.33301 66.5 16 93.5s23 49.167 37 66.5c22.667 28.667 48.667 51 78 67s59.333 27.667 90 35s60 11.833 88 13.5
s52 2.5 72 2.5c26.667 0 54 -1.16699 82 -3.5s55.5 -7.16602 82.5 -14.499s52.833 -17.5 77.5 -30.5s47.334 -29.833 68.001 -50.5c18.667 -18.667 33.167 -37.5 43.5 -56.5s18 -37.833 23 -56.5s8.16699 -36.5 9.5 -53.5s2.33301 -32.833 3 -47.5h-526z" />
    <glyph glyph-name="f" unicode="f" horiz-adv-x="396" 
d="M398 707l-0.000976562 -127.998c-8.66699 0.666992 -15.5 1.16699 -20.5 1.5s-10.5 0.5 -16.5 0.5c-16 0 -28.333 -1.33301 -37 -4s-15 -7 -19 -13s-6.33301 -13.667 -7 -23s-1 -20.333 -1 -33h100v-137h-90v-371h-235v371h-77v137h79v62
c0.666992 16 2.33398 32.667 5.00098 50s11 33.333 25 48c8.66699 9.33301 18 16.666 28 21.999s20.5 9.16602 31.5 11.499s22.5 3.83301 34.5 4.5s24 1 36 1h164z" />
    <glyph glyph-name="g" unicode="g" horiz-adv-x="792" 
d="M377 387c-20 -0.666992 -37.167 -4.00098 -51.5 -10.001s-26.333 -13.833 -36 -23.5s-16.667 -20.334 -21 -32.001s-6.5 -23.5 -6.5 -35.5c0 -29.333 11.667 -53.333 35 -72s53 -28 89 -28c15.333 0 30.333 2.16699 45 6.5s27.667 10.833 39 19.5
s20.5 19.334 27.5 32.001s10.5 27.667 10.5 45c0 18.667 -4.16699 34.334 -12.5 47.001s-18.833 22.834 -31.5 30.501s-26.667 13.167 -42 16.5s-30.333 4.66602 -45 3.99902zM273 1.99902c0.666992 -14.667 4.16406 -26.834 10.4971 -36.501s14.5 -17.5 24.5 -23.5
s21.333 -10.333 34 -13s25.667 -4 39 -4c7.33301 0 15.333 0.333008 24 1s17.5 2 26.5 4s17.833 5 26.5 9s16.334 9 23.001 15c6.66699 6.66699 11.834 13.5 15.501 20.5s6.33398 15.5 8.00098 25.5s2.5 22.167 2.5 36.5s-0.333008 31.5 -1 51.5
c-10.667 -6.66699 -21 -12.5 -31 -17.5s-23.667 -10.167 -41 -15.5c-45.333 -13.333 -90.333 -20 -135 -20c-35.333 0 -69.666 5 -102.999 15s-63 25.333 -89 46s-47 46.334 -63 77.001s-24 66.667 -24 108c0 34.667 6.16699 67.667 18.5 99s30.666 58.833 54.999 82.5
s54.666 42.5 90.999 56.5s78.5 21 126.5 21c26.667 0 50.5 -2.16699 71.5 -6.5s39.5 -9.5 55.5 -15.5s29.5 -12.333 40.5 -19l27.5 -17v48h236v-486c0 -14.667 -0.833008 -29.5 -2.5 -44.5s-5 -30.167 -10 -45.5s-12.5 -30.333 -22.5 -45s-24 -29 -42 -43
c-8 -6 -19.167 -13.333 -33.5 -22s-33 -17 -56 -25s-51 -14.833 -84 -20.5s-71.833 -8.5 -116.5 -8.5s-89.834 5 -135.501 15s-86.5 28 -122.5 54c-17.333 12.667 -31.166 25.667 -41.499 39s-18.333 26.333 -24 39s-9.66699 24.5 -12 35.5s-4.16602 20.833 -5.49902 29.5
h239z" />
    <glyph glyph-name="h" unicode="h" horiz-adv-x="812" 
d="M287 706l0.00195312 -242.001c8.66699 8 19 16.667 31 26s26.5 18.333 43.5 27s37.167 15.834 60.5 21.501s51 8.5 83 8.5c48 0 91.333 -8 130 -24s67.667 -35.333 87 -58c10 -12.667 17.667 -26.167 23 -40.5s9.33301 -29 12 -44s4.16699 -29.833 4.5 -44.5
s0.5 -28.334 0.5 -41.001v-295h-235v257c0 13.333 -0.5 27 -1.5 41s-4.16699 26.667 -9.5 38c-6 12 -17.333 24 -34 36s-39.334 18 -68.001 18c-12.667 0 -25 -1 -37 -3s-23.333 -6 -34 -12c-14 -7.33301 -24.833 -16.166 -32.5 -26.499s-13.334 -21.5 -17.001 -33.5
s-6 -24.333 -7 -37s-1.83301 -25 -2.5 -37v-241h-233v706h236z" />
    <glyph glyph-name="i" unicode="i" horiz-adv-x="333" 
d="M49 529h234v-529h-234v529zM48 706h235v-123h-235v123z" />
    <glyph glyph-name="j" unicode="j" horiz-adv-x="333" 
d="M49 530l238.002 -0.00292969v-526c0 -9.33301 -0.5 -19.666 -1.5 -30.999s-3 -23.166 -6 -35.499s-7.33301 -24.666 -13 -36.999s-13.834 -23.833 -24.501 -34.5c-12.667 -13.333 -26.334 -23.333 -41.001 -30s-32 -11.5 -52 -14.5s-43.167 -4.66699 -69.5 -5
s-56.833 -0.5 -91.5 -0.5v143c22 0 37.333 2.83301 46 8.5s13.667 18.5 15 38.5v524zM49.002 705.997h238v-124h-238v124z" />
    <glyph glyph-name="k" unicode="k" horiz-adv-x="750" 
d="M48 706h233v-346l182 169h297l-224 -194l232 -335h-261l-130 196l-95 -82v-114h-232z" />
    <glyph glyph-name="l" unicode="l" horiz-adv-x="333" 
d="M48 706h237v-706h-237v706z" />
    <glyph glyph-name="m" unicode="m" horiz-adv-x="1146" 
d="M51 530l220.998 0.00488281v-88c8.66699 18 20.834 33 36.501 45s33 21.667 52 29s38.5 12.5 58.5 15.5s39 4.5 57 4.5c22.667 0 42.834 -1.83301 60.501 -5.5s33 -8.33398 46 -14.001s23.667 -11.667 32 -18s14.833 -11.833 19.5 -16.5c6 -6 11 -11.833 15 -17.5
s7.66699 -11.5 11 -17.5c23.333 26.667 53.666 48.167 90.999 64.5s78.333 24.5 123 24.5c22 0 45 -2.66699 69 -8s46.667 -13.666 68 -24.999c20 -10.667 35.5 -22.334 46.5 -35.001s19.167 -25.5 24.5 -38.5s8.66602 -26.167 9.99902 -39.5s2 -25.666 2 -36.999v-353h-228
v287c0 8.66699 -0.166992 17.167 -0.5 25.5s-2.16602 16.166 -5.49902 23.499c-6 15.333 -15.667 26.666 -29 33.999s-29.333 11 -48 11c-11.333 0 -24.833 -2.33301 -40.5 -7s-28.834 -15.667 -39.501 -33c-8 -13.333 -12.667 -26.833 -14 -40.5s-2 -29.167 -2 -46.5v-254
h-229v258c0 13.333 -0.5 28.166 -1.5 44.499s-4.5 30.166 -10.5 41.499c-7.33301 13.333 -18 23.666 -32 30.999s-28.667 11 -44 11c-9.33301 0 -19.666 -1.5 -30.999 -4.5s-21.666 -8.16699 -30.999 -15.5c-11.333 -9.33301 -19 -21.5 -23 -36.5s-6 -38.833 -6 -71.5v-258
h-228v530z" />
    <glyph glyph-name="n" unicode="n" horiz-adv-x="812" 
d="M287 463c14.667 10.667 29.667 20.666 45 29.999s32.166 17.5 50.499 24.5s38.5 12.5 60.5 16.5s46.667 6 74 6c36 0 66.667 -2.83301 92 -8.5s49 -15.167 71 -28.5c20.667 -12 36.834 -25.5 48.501 -40.5s20.334 -31.667 26.001 -50s9.16699 -38.666 10.5 -60.999
s2 -46.5 2 -72.5v-279h-237v242c0 17.333 -0.5 31.166 -1.5 41.499s-2.5 19.166 -4.5 26.499c-4 15.333 -10.167 28 -18.5 38s-17.833 18 -28.5 24s-21.834 10.333 -33.501 13s-22.834 4 -33.501 4c-14.667 0 -28.667 -1.83301 -42 -5.5s-25.666 -10.167 -36.999 -19.5
c-21.333 -17.333 -34 -37.166 -38 -59.499s-6 -45.166 -6 -68.499v-236h-238v530h238v-67z" />
    <glyph glyph-name="o" unicode="o" horiz-adv-x="833" 
d="M407 405c-26.667 -0.666992 -48.8311 -5.5 -66.498 -14.5s-31.834 -20 -42.501 -33s-18.167 -27.5 -22.5 -43.5s-6.5 -31.333 -6.5 -46c0 -26.667 4.66699 -49 14 -67s21.333 -32.333 36 -43s31.167 -18.167 49.5 -22.5s36.166 -6.5 53.499 -6.5
c12 0 26.167 1.83301 42.5 5.5s32 10.667 47 21s27.833 24.5 38.5 42.5s16 41.333 16 70c0 44 -14 78.167 -42 102.5s-67 35.833 -117 34.5zM400.003 544c78 0.666992 143.168 -7 195.501 -23s94.333 -37.333 126 -64s54.167 -56.834 67.5 -90.501s20 -67.167 20 -100.5
c0 -46.667 -10.167 -87.5 -30.5 -122.5s-48.166 -64.167 -83.499 -87.5s-76.833 -40.833 -124.5 -52.5s-98.834 -17.5 -153.501 -17.5c-46.667 0 -93.334 4.66699 -140.001 14s-88.667 25 -126 47s-67.666 50.667 -90.999 86s-35 79 -35 131c0 50 10.667 92.5 32 127.5
s49.666 63.667 84.999 86s75.333 38.833 120 49.5s90.667 16.334 138 17.001z" />
    <glyph glyph-name="p" unicode="p" horiz-adv-x="792" 
d="M399 383c-24 -1.33301 -43.667 -6.33398 -59 -15.001s-27.333 -19 -36 -31s-14.5 -24.5 -17.5 -37.5s-4.5 -24.5 -4.5 -34.5c0 -16 2.83301 -31.167 8.5 -45.5s13.667 -27.166 24 -38.499s23.166 -20.333 38.499 -27s33 -10 53 -10s37.5 3.33301 52.5 10
s27.667 15.5 38 26.5s18 23.833 23 38.5s7.5 30 7.5 46c0 14 -2.33301 28.333 -7 43s-12.167 27.667 -22.5 39s-23.666 20.5 -39.999 27.5s-35.833 9.83301 -58.5 8.5zM281 476.999l25.501 19.502c10.333 7.66699 23.166 15 38.499 22s33.666 12.833 54.999 17.5s46 7 74 7
c36.667 0 72.334 -5.5 107.001 -16.5s65.667 -28.167 93 -51.5s49.333 -52.833 66 -88.5s25 -77.834 25 -126.501c0 -40.667 -6.83301 -78 -20.5 -112s-33 -63.333 -58 -88s-55.5 -44 -91.5 -58s-76.333 -21 -121 -21c-25.333 0 -47.666 2 -66.999 6
s-36.833 9.16699 -52.5 15.5s-29.334 13.166 -41.001 20.499l-32.5 21v-230h-233v716h234v-48z" />
    <glyph glyph-name="q" unicode="q" horiz-adv-x="792" 
d="M380 384c-20.667 -1.33301 -37.999 -5.83496 -51.999 -13.502s-25.167 -17.167 -33.5 -28.5s-14.333 -23.5 -18 -36.5s-5.5 -25.5 -5.5 -37.5c0 -35.333 11.5 -64 34.5 -86s51.833 -33 86.5 -33c12 0 24.833 2 38.5 6s26.167 10.667 37.5 20s20.666 21.5 27.999 36.5
s11 33.5 11 55.5c0 14 -2.33301 28.167 -7 42.5s-12 27.333 -22 39s-23.167 20.834 -39.5 27.501s-35.833 9.33398 -58.5 8.00098zM507.001 50.998c-7.33301 -5.33301 -16.335 -11.5 -27.002 -18.5s-23.667 -13.5 -39 -19.5s-33.166 -11.167 -53.499 -15.5
s-43.833 -6.5 -70.5 -6.5c-35.333 0 -70.5 4.66699 -105.5 14s-66.333 25 -94 47s-50 50.833 -67 86.5s-25.5 79.834 -25.5 132.501s9.5 96.667 28.5 132s43.167 63.666 72.5 84.999s61.333 36.333 96 45s67.667 13 99 13c27.333 0 51.333 -2.33301 72 -7
s38.334 -10.5 53.001 -17.5s27 -14.333 37 -22s18.333 -14.5 25 -20.5v51h234v-717h-235v238z" />
    <glyph glyph-name="r" unicode="r" horiz-adv-x="458" 
d="M284 446c18 28.667 42.332 50.999 72.999 66.999c22 12 42 19.333 60 22s34.667 4.33398 50 5.00098v-209c-9.33301 1.33301 -18.5 2.33301 -27.5 3s-18.5 1 -28.5 1c-31.333 0 -54.5 -3 -69.5 -9s-26.167 -12.333 -33.5 -19c-11.333 -10.667 -18.166 -22 -20.499 -34
s-3.83301 -24 -4.5 -36v-237h-235v530h236v-84z" />
    <glyph glyph-name="s" unicode="s" horiz-adv-x="729" 
d="M252 172l4.49609 -13.5c1.66699 -5 5.16699 -10.5 10.5 -16.5c10.667 -11.333 26.167 -19.5 46.5 -24.5s40.5 -7.5 60.5 -7.5c12 0 23.5 0.833008 34.5 2.5s20.833 4.33398 29.5 8.00098s15.667 8.5 21 14.5s8 13 8 21c0 4.66699 -0.833008 8.5 -2.5 11.5
s-3.16699 5.16699 -4.5 6.5c-6.66699 7.33301 -19.667 13 -39 17s-47.666 8.66699 -84.999 14l-62.5 10c-20.333 3.33301 -40.833 7.33301 -61.5 12c-26 6 -49.5 12.5 -70.5 19.5s-39.167 16 -54.5 27s-27.166 24.667 -35.499 41s-12.5 37.166 -12.5 62.499
c0 28 6.5 51.667 19.5 71s29.833 35.333 50.5 48s43.5 22.5 68.5 29.5s49.833 12.167 74.5 15.5s47.5 5.33301 68.5 6s37.5 1 49.5 1c38 0 75.333 -2.66699 112 -8s70.167 -14.666 100.5 -27.999s56.333 -31.333 78 -54s36.834 -51.334 45.501 -86.001l-234 -10
c-2.66699 13.333 -9.16699 23.833 -19.5 31.5s-21.833 13.334 -34.5 17.001s-25 6 -37 7s-20.667 1.5 -26 1.5c-22.667 0 -42.334 -3.33301 -59.001 -10s-25 -17.334 -25 -32.001c0 -8.66699 3.66699 -15.5 11 -20.5s18.666 -9.5 33.999 -13.5
c7.33301 -2 20.833 -4.5 40.5 -7.5s40.834 -6 63.501 -9s44.167 -5.66699 64.5 -8s34.833 -4.16602 43.5 -5.49902c20 -3.33301 40.5 -7.33301 61.5 -12s40.333 -11.834 58 -21.501s32 -22.667 43 -39s16.5 -37.833 16.5 -64.5c0 -26 -5.33301 -47.667 -16 -65
s-22 -32 -34 -44c-11.333 -10 -24.666 -20 -39.999 -30s-34.333 -19 -57 -27s-49.5 -14.5 -80.5 -19.5s-67.5 -7.5 -109.5 -7.5c-57.333 0 -110.166 4.5 -158.499 13.5s-86.5 20.833 -114.5 35.5c-30.667 16 -51.5 34.667 -62.5 56s-17.833 46 -20.5 74z" />
    <glyph glyph-name="t" unicode="t" horiz-adv-x="396" 
d="M295 508h86.001v-137h-85v-174c0.666992 -12 2.66699 -21.167 6 -27.5s8.33301 -11 15 -14s15.334 -4.66699 26.001 -5s23.667 -0.5 39 -0.5v-150h-151c-38.667 0.666992 -69.334 3.16699 -92.001 7.5s-41.667 14.166 -57 29.499
c-11.333 14.667 -17.833 28.834 -19.5 42.501s-2.83398 27.167 -3.50098 40.5l1 36l3 215h-74v137h76l2 179h228v-179z" />
    <glyph glyph-name="u" unicode="u" horiz-adv-x="812" 
d="M50 529l236.998 -0.000976562v-263c0 -15.333 1.16699 -31.333 3.5 -48s10.833 -32 25.5 -46c12 -11.333 26.333 -19.166 43 -23.499s31.667 -6.5 45 -6.5c16 0 32.833 2.66699 50.5 8s32.167 14.666 43.5 27.999c14 15.333 22.333 32.5 25 51.5
s4.33398 35.833 5.00098 50.5v249h236v-529h-230v72l-29 -23.5c-12 -9.66699 -27.333 -19 -46 -28s-41 -16.667 -67 -23s-56.667 -9.5 -92 -9.5c-17.333 0 -34.333 1 -51 3s-33 5.33301 -49 10c-36.667 10.667 -65.167 25.667 -85.5 45s-35.166 39.333 -44.499 60
s-15 40.334 -17 59.001s-3 33 -3 43v321z" />
    <glyph glyph-name="v" unicode="v" horiz-adv-x="729" 
d="M-3 530l256.001 -0.00292969l69 -182c5.33301 -13.333 9.66602 -24.666 12.999 -33.999l9.5 -27l9.5 -28c3.33301 -10 7 -22.333 11 -37l10 34l8 27c2.66699 8.66699 5.5 17.334 8.5 26.001s7.16699 19.334 12.5 32.001l72 189h255l-244 -530h-243z" />
    <glyph glyph-name="w" unicode="w" horiz-adv-x="1083" 
d="M-1 530l258.001 0.00195312l36 -228l5 -30.5c1.33301 -8.33301 2.5 -16.333 3.5 -24l3 -23c1 -7.66699 2.16699 -17.167 3.5 -28.5l7 35.5c2 9.66699 4.33301 19.167 7 28.5s5.83398 19.166 9.50098 29.499s8.5 23.166 14.5 38.499l85 202h238l74 -203l12 -37
c3.33301 -10 6.16602 -19.667 8.49902 -29s4.16602 -19.166 5.49902 -29.499l5 -38.5l5 31c1.33301 8.66699 2.66602 16.667 3.99902 24s2.83301 15.166 4.5 23.499s3.83398 18.5 6.50098 30.5l44 228h248l-191 -530h-233l-85 236c-4 12 -7.5 22 -10.5 30
s-5.66699 15.667 -8 23s-4.5 14.833 -6.5 22.5s-4.33301 17.167 -7 28.5l-8.5 -30l-7 -23c-2.33301 -7.33301 -5 -15 -8 -23s-6.83301 -17.667 -11.5 -29l-97 -235h-237z" />
    <glyph glyph-name="x" unicode="x" horiz-adv-x="833" 
d="M306 530l111 -140l112 140h287l-258 -254l278 -276h-286l-135 162l-132 -162h-286l279 278l-257 252h287z" />
    <glyph glyph-name="y" unicode="y" horiz-adv-x="708" 
d="M-3 530l257.003 0.00195312l47 -141c8 -24 14.5 -44.167 19.5 -60.5s9.16699 -31.833 12.5 -46.5s6.5 -30 9.5 -46l10.5 -58l8.5 48c2.33301 13.333 5 26 8 38s6.33301 24.667 10 38s8.5 29.666 14.5 48.999l60 179h259l-251 -550c-13.333 -27.333 -27.5 -53 -42.5 -77
s-37.167 -44.333 -66.5 -61c-10.667 -6 -20.834 -10.667 -30.501 -14s-20.334 -5.83301 -32.001 -7.5s-24.834 -2.83398 -39.501 -3.50098s-32 -1 -52 -1h-124v150h109c12 0 23 2 33 6s15 12.333 15 25c0 5.33301 -1.16699 10.833 -3.5 16.5s-4.5 11.167 -6.5 16.5z" />
    <glyph glyph-name="z" unicode="z" horiz-adv-x="729" 
d="M49 530h646v-149l-349 -231h346v-150h-670v151l349 231h-322v148z" />
    <glyph glyph-name="braceleft" unicode="{" horiz-adv-x="354" 
d="M16 304c16.667 3.33301 29.5 8.83301 38.5 16.5s15.667 16.5 20 26.5s7 21 8 33s1.5 24 1.5 36v95c0 24 0.333008 45.333 1 64s2.16699 35.5 4.5 50.5s6 28.5 11 40.5s12.167 23.333 21.5 34c8 8.66699 16.5 15.5 25.5 20.5s21.667 9 38 12s37.666 5.16699 63.999 6.5
s61.166 2.66602 104.499 3.99902v-85c-8.66699 -2 -17.5 -5 -26.5 -9s-17.5 -12.667 -25.5 -26c-5.33301 -8.66699 -8.5 -22.167 -9.5 -40.5s-1.83301 -36.166 -2.5 -53.499v-41c0 -38 -0.666992 -70 -2 -96s-4.83301 -47.667 -10.5 -65s-14.834 -31 -27.501 -41
s-30.334 -18.333 -53.001 -25c22.667 -6.66699 40.334 -15 53.001 -25s21.834 -23.667 27.501 -41s9.16699 -39 10.5 -65s2 -58 2 -96v-42c0.666992 -17.333 1.5 -35.166 2.5 -53.499s4.16699 -31.833 9.5 -40.5c8 -13.333 16.5 -22 25.5 -26s17.833 -7 26.5 -9v-85
c-43.333 1.33301 -78.166 2.66602 -104.499 3.99902s-47.666 3.5 -63.999 6.5s-29 7 -38 12s-17.5 11.833 -25.5 20.5c-9.33301 10.667 -16.5 22 -21.5 34s-8.66699 25.5 -11 40.5s-3.83301 31.833 -4.5 50.5s-1 40 -1 64v96c0 12 -0.5 24 -1.5 36s-3.66699 23 -8 33
s-11 18.833 -20 26.5s-21.833 13.167 -38.5 16.5v86z" />
    <glyph glyph-name="bar" unicode="|" horiz-adv-x="229" 
d="M145 -250h-60v1000h60v-1000z" />
    <glyph glyph-name="braceright" unicode="}" horiz-adv-x="354" 
d="M338 218c-16.667 -3.33301 -29.5 -8.83301 -38.5 -16.5s-15.667 -16.5 -20 -26.5s-7 -21 -8 -33s-1.5 -24 -1.5 -36v-96c0 -24 -0.333008 -45.333 -1 -64s-2.16699 -35.5 -4.5 -50.5s-6 -28.5 -11 -40.5s-12.167 -23.333 -21.5 -34c-8 -8.66699 -16.5 -15.5 -25.5 -20.5
s-21.667 -9 -38 -12s-37.833 -5.16699 -64.5 -6.5s-61.334 -2.66602 -104.001 -3.99902v85c8.66699 2 17.5 5 26.5 9s17.5 12.667 25.5 26c5.33301 8.66699 8.5 22.167 9.5 40.5s1.83301 36.166 2.5 53.499v42c0 38 0.666992 70 2 96s4.83301 47.667 10.5 65
s14.667 31 27 41s30.166 18.333 53.499 25c-23.333 6.66699 -41.166 15 -53.499 25s-21.333 23.667 -27 41s-9.16699 39 -10.5 65s-2 58 -2 96v41c-0.666992 17.333 -1.5 35.166 -2.5 53.499s-4.16699 31.833 -9.5 40.5c-8 13.333 -16.5 22 -25.5 26s-17.833 7 -26.5 9v85
c42.667 -1.33301 77.334 -2.66602 104.001 -3.99902s48.167 -3.5 64.5 -6.5s29 -7 38 -12s17.5 -11.833 25.5 -20.5c9.33301 -10.667 16.5 -22 21.5 -34s8.66699 -25.5 11 -40.5s3.83301 -31.833 4.5 -50.5s1 -40 1 -64v-95c0 -12 0.5 -24 1.5 -36s3.66699 -23 8 -33
s11 -18.833 20 -26.5s21.833 -13.167 38.5 -16.5v-86z" />
    <glyph glyph-name="asciitilde" unicode="~" horiz-adv-x="729" 
d="M626 282c-8 -9.33301 -17.8291 -19.001 -29.4961 -29.001s-24.167 -19 -37.5 -27s-27.5 -14.5 -42.5 -19.5s-30.5 -7.5 -46.5 -7.5c-19.333 0 -37.5 3.33301 -54.5 10s-33.5 13.667 -49.5 21l-36.5 17.5c-10.333 5 -19.333 8.83301 -27 11.5s-14.667 4.66699 -21 6
s-12.833 2 -19.5 2c-10.667 0 -19.834 -1.16699 -27.501 -3.5s-15.334 -6.16602 -23.001 -11.499s-15.667 -12.5 -24 -21.5l-29.5 -33.5l-55 103l22 28.5c8.66699 11 19.167 21.333 31.5 31s27 18 44 25s36.5 10.5 58.5 10.5c18.667 0 36 -3 52 -9s33 -13.333 51 -22
c30.667 -14 53.5 -24 68.5 -30s29.167 -9 42.5 -9s28.166 4 44.499 12s35.166 24.667 56.499 50z" />
    <glyph glyph-name="exclamdown" unicode="&#xa1;" horiz-adv-x="333" 
d="M241 521h-188v185h188v-185zM32 0v137.002c0.666992 16.667 1.16699 31 1.5 43s0.833008 24.167 1.5 36.5s1.66699 26.333 3 42l5 59.5l10 127h188l9 -127l5 -59.5l3.5 -42.5c1 -12.667 1.66699 -24.834 2 -36.501s0.833008 -25.834 1.5 -42.501v-137h-230z" />
    <glyph glyph-name="cent" unicode="&#xa2;" horiz-adv-x="833" 
d="M387 404c-25.333 -8 -44.667 -18.499 -58 -31.499s-23.166 -26.167 -29.499 -39.5s-10 -25.833 -11 -37.5s-1.5 -20.834 -1.5 -27.501c0 -14 1.83301 -29.833 5.5 -47.5s12.167 -34.5 25.5 -50.5c12 -13.333 24.167 -22.5 36.5 -27.5s23.166 -8.83301 32.499 -11.5v273z
M386.999 670.001l89.002 0.000976562v-119c90 -4 162.167 -23.833 216.5 -59.5s90.166 -81.5 107.499 -137.5l-232 -19c-7.33301 21.333 -19.5 37.333 -36.5 48s-35.5 18.334 -55.5 23.001v-279c16.667 2 30.834 6.16699 42.501 12.5s21.5 13.5 29.5 21.5
s14.167 15.833 18.5 23.5s7.83301 14.167 10.5 19.5l235 -8c-6 -16.667 -15.167 -37.167 -27.5 -61.5s-31.5 -47.5 -57.5 -69.5c-20 -17.333 -41.5 -30.833 -64.5 -40.5s-45.833 -17.334 -68.5 -23.001s-44.167 -9.5 -64.5 -11.5s-38.166 -3.66699 -53.499 -5v-137h-89v136
c-17.333 0.666992 -35.166 2.16699 -53.499 4.5s-36.333 5.5 -54 9.5s-34.834 8.5 -51.501 13.5s-31.334 10.5 -44.001 16.5c-48 22.667 -84.833 54.167 -110.5 94.5s-38.5 86.5 -38.5 138.5c0 29.333 5.16699 60.166 15.5 92.499s28.666 62.5 54.999 90.5
s62.166 51.833 107.499 71.5s103.333 31.5 174 35.5v119z" />
    <glyph glyph-name="sterling" unicode="&#xa3;" horiz-adv-x="812" 
d="M247 95c-3.33301 2 -8.33301 4.5 -15 7.5s-14.167 6 -22.5 9s-17 5.66699 -26 8s-17.833 3.5 -26.5 3.5c-2 0 -5 -0.166992 -9 -0.5s-8.33301 -1.33301 -13 -3s-8.66699 -4.5 -12 -8.5s-5 -9.66699 -5 -17c0 -6.66699 1.83301 -12 5.5 -16s8 -7.16699 13 -9.5
s10.333 -3.83301 16 -4.5s10.167 -1 13.5 -1c18.667 0 34.5 3.5 47.5 10.5s24.167 14.167 33.5 21.5zM190 364c-4 4 -9.66406 10.667 -16.9971 20s-14.833 20.333 -22.5 33s-14.167 26.834 -19.5 42.501s-8 32.5 -8 50.5c0 21.333 4.33301 40.5 13 57.5
s18.334 31.167 29.001 42.5c15.333 16.667 33.166 30.167 53.499 40.5s42.166 18.333 65.499 24s47.666 9.5 72.999 11.5s50.666 3 75.999 3c30 0 60 -1 90 -3s59.667 -7.33301 89 -16c36 -10.667 64.333 -25.167 85 -43.5s36 -38 46 -59s16.5 -42.333 19.5 -64
s5.16699 -41.167 6.5 -58.5l-215 -12c-0.666992 24 -2 42.833 -4 56.5s-8.66699 25.834 -20 36.501c-8 7.33301 -18.333 12.833 -31 16.5s-26 5.5 -40 5.5c-12 0 -23.333 -1.16699 -34 -3.5s-20.167 -6.16602 -28.5 -11.499s-15 -12.5 -20 -21.5s-7.5 -19.833 -7.5 -32.5
c0 -7.33301 0.833008 -14.333 2.5 -21s4.5 -14.334 8.5 -23.001s9.5 -18.667 16.5 -30l27.5 -43h152v-73h-110l10 -28c3.33301 -9.33301 5 -21 5 -35c0 -24 -3.5 -43 -10.5 -57s-13.833 -25.667 -20.5 -35c10 -3.33301 21.167 -6.66602 33.5 -9.99902s25.166 -5 38.499 -5
c17.333 0 30.833 3 40.5 9s16.834 13.333 21.501 22s7.66699 17.667 9 27s2.33301 17 3 23h199c-0.666992 -20 -1.83398 -42.333 -3.50098 -67s-7.83398 -47.334 -18.501 -68.001c-9.33301 -17.333 -20.666 -31.5 -33.999 -42.5s-28 -19.833 -44 -26.5
s-32.5 -11.167 -49.5 -13.5s-33.167 -3.5 -48.5 -3.5c-24 0 -47.167 2 -69.5 6s-43.333 9 -63 15s-38.334 12.667 -56.001 20l-48.5 21c-20 -14 -39.667 -25.167 -59 -33.5s-37.666 -14.833 -54.999 -19.5s-33.166 -7.66699 -47.499 -9s-26.5 -2 -36.5 -2c-18 0 -36 2 -54 6
s-34.5 10.667 -49.5 20s-27.167 21.666 -36.5 36.999s-14 34.666 -14 57.999c0 14.667 2.5 29.5 7.5 44.5s13 28.5 24 40.5s25.333 21.667 43 29s39.167 11 64.5 11c12 0 22.833 -0.5 32.5 -1.5s19.834 -2.83301 30.501 -5.5s22.667 -6 36 -10s29.666 -9.33301 48.999 -16
c-1.33301 11.333 -3 21.333 -5 30s-4.66699 16.667 -8 24s-7.5 14.5 -12.5 21.5l-17.5 24.5h-178v74h116z" />
    <glyph glyph-name="currency" unicode="&#xa4;" horiz-adv-x="667" 
d="M333 503c-22.667 0 -44 -4.33301 -64 -13s-37.333 -20.334 -52 -35.001s-26.334 -32 -35.001 -52s-13 -41.333 -13 -64s4.33301 -44 13 -64s20.334 -37.333 35.001 -52s32 -26.334 52 -35.001s41.333 -13 64 -13s44 4.33301 64 13s37.333 20.334 52 35.001
s26.334 32 35.001 52s13 41.333 13 64s-4.33301 44 -13 64s-20.334 37.333 -35.001 52s-32 26.334 -52 35.001s-41.333 13 -64 13zM579 490c8 -13.333 17.1689 -32.001 27.502 -56.001s15.5 -56 15.5 -96s-5.16699 -72 -15.5 -96s-19.5 -42.333 -27.5 -55l81 -82l-96 -95
l-80 82l-23 -12.5c-9.33301 -5 -20.333 -9.66699 -33 -14s-26.834 -8 -42.501 -11s-33.167 -4.5 -52.5 -4.5s-37 1.5 -53 4.5s-30.167 6.83301 -42.5 11.5s-23.166 9.5 -32.499 14.5l-23 12.5l-81 -81l-95 95l82 81c-8 12.667 -17.167 30.834 -27.5 54.501
s-15.5 55.834 -15.5 96.501c0 20 1.5 38 4.5 54s6.66699 30.167 11 42.5s8.83301 23 13.5 32s9 16.5 13 22.5l-79 80l94 95l80 -80c13.333 8 32.166 17.167 56.499 27.5s56.166 15.5 95.499 15.5c20 0 38 -1.5 54 -4.5s30 -6.83301 42 -11.5s22.5 -9.33398 31.5 -14.001
s16.833 -9 23.5 -13l80 80l96 -95z" />
    <glyph glyph-name="yen" unicode="&#xa5;" horiz-adv-x="875" 
d="M402 481c4.66699 -8.66699 10.168 -19.832 16.501 -33.499s13.166 -29.834 20.499 -48.501c2.66699 8 5.16699 14.833 7.5 20.5l8 19c3 7 6.66699 14.833 11 23.5l16.5 34l110 193h292l-186 -281h118v-114h-193l-48 -72h241v-114h-252v-108h-250v108h-255v114h244l-49 72
h-195v114h119l-188 281h295z" />
    <glyph glyph-name="brokenbar" unicode="&#xa6;" horiz-adv-x="229" 
d="M178 675v-350h-127v350h127zM178 175v-350h-127v350h127z" />
    <glyph glyph-name="section" unicode="&#xa7;" horiz-adv-x="729" 
d="M264 370c-6 -5.33301 -12.834 -13.1641 -20.501 -23.4971s-11.5 -24.166 -11.5 -41.499c0 -10 1.83301 -18.333 5.5 -25s8.33398 -12.334 14.001 -17.001s11.5 -8.33398 17.5 -11.001l16 -7c21.333 -8 47.833 -15.833 79.5 -23.5l99.5 -23.5l18.5 26
c7 10 10.5 22.333 10.5 37c0 10.667 -2.33301 19.667 -7 27s-10.334 13.666 -17.001 18.999s-13.667 9.66602 -21 12.999s-13.666 6 -18.999 8c-16 6 -38.5 12.5 -67.5 19.5zM252.999 44.002c0.666992 -6.66699 2.16895 -14.498 4.50195 -23.498s7.16602 -17.667 14.499 -26
s18 -15.333 32 -21s33 -8.5 57 -8.5c3.33301 0 9.16602 0.166992 17.499 0.5s16.666 2 24.999 5s15.833 7.83301 22.5 14.5s10 16 10 28c0 17.333 -7.83301 29.5 -23.5 36.5s-35.834 13.833 -60.501 20.5l-64.5 16.5c-16.333 4.33301 -30.166 8.16602 -41.499 11.499
l-30.5 9l-32.5 10c-21.333 6.66699 -41.666 13.667 -60.999 21s-36.5 16.666 -51.5 27.999s-27 25.5 -36 42.5s-13.5 38.5 -13.5 64.5c0 22.667 4.16699 42.334 12.5 59.001s18 31 29 43s22.333 21.5 34 28.5s21.167 12.5 28.5 16.5c-5.33301 4 -11.833 9.33301 -19.5 16
s-15.167 15 -22.5 25s-13.666 22 -18.999 36s-8 30 -8 48c0 32 10.333 62 31 90c26.667 35.333 63.667 60 111 74s103.333 21 168 21c18 0 38.333 -0.833008 61 -2.5s45.5 -4.5 68.5 -8.5s45.333 -9.5 67 -16.5s40.834 -16.167 57.501 -27.5
c14.667 -10 26.5 -20.833 35.5 -32.5s16 -23 21 -34s8.83301 -21.667 11.5 -32s4.66699 -19.166 6 -26.499l-226 -13c-0.666992 6.66699 -1.66699 12.667 -3 18s-5 11 -11 17c-9.33301 9.33301 -21 15.833 -35 19.5s-26.667 5.5 -38 5.5
c-23.333 0 -42.5 -4.83301 -57.5 -14.5s-22.5 -21.834 -22.5 -36.501c0 -12 6 -21.667 18 -29s36 -16 72 -26l79 -21.5c26.667 -7 53 -14.5 79 -22.5c14 -4 30.167 -9.33301 48.5 -16s35.5 -15.834 51.5 -27.501s29.667 -26.167 41 -43.5s17 -38.666 17 -63.999
c0 -23.333 -6.5 -46.333 -19.5 -69s-30.167 -41 -51.5 -55c-8.66699 -5.33301 -16.834 -9.5 -24.501 -12.5l-22.5 -8.5c4.66699 -2 11.834 -5.83301 21.501 -11.5s19.167 -13.5 28.5 -23.5s17.666 -22.667 24.999 -38s11 -33.666 11 -54.999
c0 -12 -2.16699 -25.667 -6.5 -41s-11.833 -30.833 -22.5 -46.5s-24.834 -30.834 -42.501 -45.501s-39.834 -27 -66.501 -37c-14.667 -5.33301 -30 -9.66602 -46 -12.999s-31.833 -6 -47.5 -8s-30.667 -3.33301 -45 -4s-26.833 -1 -37.5 -1
c-45.333 0 -87.833 3.66699 -127.5 11s-73.5 17.666 -101.5 30.999c-24 12 -43 25.667 -57 41s-24.667 30.666 -32 45.999s-12.166 29.5 -14.499 42.5s-3.83301 23.167 -4.5 30.5z" />
    <glyph glyph-name="dieresis" unicode="&#xa8;" 
d="M257 738h207v-124h-207v124zM118 738v-124h-207v124h207z" />
    <glyph glyph-name="copyright" unicode="&#xa9;" horiz-adv-x="833" 
d="M621 190c-32 -33.333 -64.334 -55.666 -97.001 -66.999s-65.667 -17 -99 -17c-41.333 0 -77.666 6.66699 -108.999 20s-57.5 31.333 -78.5 54s-36.833 48.834 -47.5 78.501s-16 61.167 -16 94.5c0 34 5.66699 66.167 17 96.5s27.666 57 48.999 80s47.5 41.167 78.5 54.5
s66.5 20 106.5 20c27.333 0 51.5 -3 72.5 -9s39.333 -13.333 55 -22s29.167 -17.834 40.5 -27.501s20.666 -18.5 27.999 -26.5l-88 -84c-15.333 15.333 -31.5 27.333 -48.5 36s-37.167 13 -60.5 13c-22.667 0 -42 -3.83301 -58 -11.5s-29 -17.5 -39 -29.5
s-17.333 -25.833 -22 -41.5s-7 -31.5 -7 -47.5c0 -38.667 11.333 -69.834 34 -93.501s54 -35.5 94 -35.5c14.667 0 27.834 1.66699 39.501 5s21.834 7.33301 30.501 12s16 9.5 22 14.5s11 9.5 15 13.5zM740.999 351c0 44.667 -7.99902 86.666 -23.999 125.999
s-38.5 73.833 -67.5 103.5s-63.333 53.167 -103 70.5s-82.5 26 -128.5 26s-88.833 -8.5 -128.5 -25.5s-74.167 -40.167 -103.5 -69.5s-52.333 -63.666 -69 -102.999s-25 -81.333 -25 -126c0 -45.333 8.5 -87.833 25.5 -127.5s40.167 -74 69.5 -103
s63.666 -51.833 102.999 -68.5s81.333 -25 126 -25c46 0 88.833 8.5 128.5 25.5s74 40 103 69s51.833 63 68.5 102s25 80.833 25 125.5zM773 350.999c0 -49.333 -9.33398 -95.502 -28.001 -138.502s-44 -80.5 -76 -112.5s-69.667 -57.167 -113 -75.5s-90 -27.5 -140 -27.5
c-46.667 0 -91.334 8.66699 -134.001 26s-80.5 41.666 -113.5 72.999s-59.333 68.833 -79 112.5s-29.5 91.834 -29.5 144.501c0 50.667 9.5 97.834 28.5 141.501s44.833 81.334 77.5 113.001s70.5 56.5 113.5 74.5s88.5 27 136.5 27c52 0 99.833 -9.5 143.5 -28.5
s81.334 -44.833 113.001 -77.5s56.334 -70.667 74.001 -114s26.5 -89.333 26.5 -138z" />
    <glyph glyph-name="ordfeminine" unicode="&#xaa;" horiz-adv-x="500" 
d="M308 526c-14 0 -28.168 -0.166016 -42.501 -0.499023s-29.166 -1.16602 -44.499 -2.49902c-2.66699 0 -6.66699 -0.5 -12 -1.5s-10.5 -2.5 -15.5 -4.5s-9.33301 -4.83301 -13 -8.5s-5.5 -8.83398 -5.5 -15.501c0 -10.667 5 -18.5 15 -23.5s20.333 -7.5 31 -7.5
c9.33301 0 18.333 1.5 27 4.5s16 6.5 22 10.5c10.667 6.66699 18.667 14.167 24 22.5s10 17.166 14 26.499zM445.999 448.001c0.666992 -9.33301 1.50098 -17.1689 2.50098 -23.502s2.16699 -11.5 3.5 -15.5s3.16602 -7.5 5.49902 -10.5s5.16602 -6.16699 8.49902 -9.5h-148
l-12 29c-19.333 -10 -39.5 -18.833 -60.5 -26.5s-47.5 -11.5 -79.5 -11.5c-40 0 -72.167 9.16699 -96.5 27.5s-36.5 43.5 -36.5 75.5c0 18 4 32.833 12 44.5s17.333 21 28 28s21.5 12 32.5 15s19.5 5.16699 25.5 6.5c20.667 4.66699 40.334 7.33398 59.001 8.00098
c4 0 11.5 0.166992 22.5 0.5s22.667 0.5 35 0.5s24.166 0.166992 35.499 0.5s19.333 0.5 24 0.5l-5.5 18c-1.66699 5.33301 -4.5 10 -8.5 14s-9.5 7 -16.5 9s-16.5 3 -28.5 3c-25.333 0 -42.166 -2.66699 -50.499 -8s-14.833 -13.666 -19.5 -24.999h-131
c0.666992 8 1.83398 16.333 3.50098 25s4.66699 17 9 25s10.666 15.667 18.999 23s19.833 13.666 34.5 18.999c22 8.66699 45.167 14 69.5 16s47.833 3 70.5 3c46.667 0 81.5 -2.83301 104.5 -8.5s40.167 -12.5 51.5 -20.5c16 -11.333 25.833 -23.166 29.5 -35.499
s6.16699 -25.5 7.5 -39.5v-157z" />
    <glyph glyph-name="guillemotleft" unicode="&#xab;" horiz-adv-x="521" 
d="M245 557v-182l-93 -64l93 -63v-183l-206 133v228zM487 556v-184l-93 -61l93 -64v-183l-206 133v226z" />
    <glyph glyph-name="logicalnot" unicode="&#xac;" horiz-adv-x="667" 
d="M539 227h-539v127h539h127v-354h-127v227z" />
    <glyph glyph-name="registered" unicode="&#xae;" horiz-adv-x="833" 
d="M741 352c0 44 -7.99902 85.833 -23.999 125.5s-38.5 74.167 -67.5 103.5s-63.333 52.666 -103 69.999s-82.5 26 -128.5 26s-88.833 -8.5 -128.5 -25.5s-74.167 -40.167 -103.5 -69.5s-52.333 -63.666 -69 -102.999s-25 -81.333 -25 -126
c0 -45.333 8.5 -87.833 25.5 -127.5s40.167 -74 69.5 -103s63.666 -51.833 102.999 -68.5s81.333 -25 126 -25c46 0 88.667 8.5 128 25.5s73.5 40 102.5 69s52 63.167 69 102.5s25.5 81.333 25.5 126zM773.001 352c0 -49.333 -9.33203 -95.666 -27.999 -138.999
s-44 -81 -76 -113s-69.667 -57.167 -113 -75.5s-90.333 -27.5 -141 -27.5c-46 0 -90.5 8.66699 -133.5 26s-80.833 41.666 -113.5 72.999s-58.834 68.833 -78.501 112.5s-29.5 91.834 -29.5 144.501c0 51.333 9.5 98.666 28.5 141.999s44.833 80.833 77.5 112.5
s70.5 56.5 113.5 74.5s88.5 27 136.5 27c51.333 0 98.833 -9.5 142.5 -28.5s81.5 -44.833 113.5 -77.5s56.833 -70.5 74.5 -113.5s26.5 -88.833 26.5 -137.5zM360.002 407h47.9971c16.667 0 29.834 0.5 39.501 1.5s17.834 3.5 24.501 7.5c7.33301 4 12.5 9.83301 15.5 17.5
s4.5 15.167 4.5 22.5c0 14.667 -4.16699 25.5 -12.5 32.5s-19.166 11.167 -32.499 12.5c-2 0 -4.33301 0.166992 -7 0.5s-7 0.5 -13 0.5h-24.5h-42.5v-95zM412.999 586c19.333 0 38.334 -0.500977 57.001 -1.50098s35.667 -4.16699 51 -9.5
c29.333 -9.33301 50.166 -25.166 62.499 -47.499s18.5 -44.166 18.5 -65.499c0 -17.333 -2.83301 -31.833 -8.5 -43.5s-12.5 -21.5 -20.5 -29.5s-16.667 -14.5 -26 -19.5s-17.666 -9.16699 -24.999 -12.5l18 -13c5.33301 -4 10 -9 14 -15s7.5 -13.667 10.5 -23
s5.83301 -21 8.5 -35c4.66699 -31.333 9.5 -57.833 14.5 -79.5s13.167 -42.834 24.5 -63.501h-126c-7.33301 14 -12.5 29 -15.5 45s-6.16699 34 -9.5 54c-3.33301 22.667 -6.33301 40.167 -9 52.5s-7.33398 21.5 -14.001 27.5s-16 9.66699 -28 11s-28.667 2 -50 2v-192h-110
v458h163z" />
    <glyph glyph-name="macron" unicode="&#xaf;" 
d="M-89 614v97h553v-97h-553z" />
    <glyph glyph-name="macron" unicode="&#x2c9;" 
d="M-89 614v97h553v-97h-553z" />
    <glyph glyph-name="degree" unicode="&#xb0;" horiz-adv-x="354" 
d="M178 630c-15.333 0 -28.5 -5.33301 -39.5 -16s-16.5 -24 -16.5 -40c0 -15.333 5.5 -28.333 16.5 -39s24.167 -16 39.5 -16s28.5 5.33301 39.5 16s16.5 23.667 16.5 39c0 16 -5.5 29.333 -16.5 40s-24.167 16 -39.5 16zM177 745c24.667 0 47.668 -4.66797 69.001 -14.001
s39.666 -21.833 54.999 -37.5s27.333 -34 36 -55s13 -43.167 13 -66.5s-4.5 -45.5 -13.5 -66.5s-21.167 -39.333 -36.5 -55s-33.666 -28 -54.999 -37s-44 -13.5 -68 -13.5s-46.333 4.5 -67 13.5s-38.834 21.333 -54.501 37s-28 33.834 -37 54.501s-13.5 43 -13.5 67
c0 23.333 4.33301 45.5 13 66.5s20.667 39.333 36 55s33.5 28.167 54.5 37.5s43.833 14 68.5 14z" />
    <glyph glyph-name="plusminus" unicode="&#xb1;" horiz-adv-x="667" 
d="M625 0h-583v127h583v-127zM398 162h-127v209h-229v127h229v208h127v-208h227v-127h-227v-209z" />
    <glyph glyph-name="twosuperior" unicode="&#xb2;" horiz-adv-x="562" 
d="M508 270l-456 -0.00683594v102c14.667 20.667 28.5 37.834 41.5 51.501s28 26.334 45 38.001s37.667 23.167 62 34.5l92.5 43l11.5 5.5c5 2.33301 10 5.33301 15 9s9.33301 7.83398 13 12.501s5.5 9.66699 5.5 15c0 6.66699 -2.16699 12.167 -6.5 16.5s-10 7.5 -17 9.5
s-14.5 3.33301 -22.5 4s-15.333 1 -22 1c-16 0 -28.333 -2.33301 -37 -7s-15.167 -10.334 -19.5 -17.001s-7.16602 -13.667 -8.49902 -21s-2 -14 -2 -20l-140 3c0.666992 12 1.83398 24.333 3.50098 37s4.66699 24.834 9 36.501s10.333 22.834 18 33.501
s18.167 20.334 31.5 29.001c16 10 38.167 17.833 66.5 23.5s57.833 8.5 88.5 8.5c3.33301 0 10.833 -0.166992 22.5 -0.5s25.167 -1.33301 40.5 -3s31 -4 47 -7s30 -7.5 42 -13.5c25.333 -12 43.166 -27.5 53.499 -46.5s15.5 -38.167 15.5 -57.5
c0 -17.333 -3 -32.666 -9 -45.999s-14 -25.166 -24 -35.499s-21.333 -19.333 -34 -27s-25.334 -14.5 -38.001 -20.5l-24.5 -11l-37.5 -16.5l-38 -16.5c-12 -5.33301 -20.333 -9.33301 -25 -12c-6.66699 -3.33301 -13 -7 -19 -11s-12 -7.66699 -18 -11h274v-113z" />
    <glyph glyph-name="threesuperior" unicode="&#xb3;" horiz-adv-x="562" 
d="M452 502c12 -4 21.832 -7.66309 29.499 -10.9961s13.834 -6.5 18.501 -9.5s8.16699 -5.83301 10.5 -8.5s4.5 -5 6.5 -7c11.333 -14.667 17.833 -27.334 19.5 -38.001s2.5 -18 2.5 -22c0 -7.33301 -1.33301 -18.166 -4 -32.499s-8.66699 -27.833 -18 -40.5
c-12 -17.333 -29 -31.666 -51 -42.999c-18.667 -9.33301 -43.5 -17 -74.5 -23s-67.833 -9 -110.5 -9c-22.667 0 -42 0.5 -58 1.5s-29.667 2.16699 -41 3.5s-20.5 3 -27.5 5l-17.5 5c-23.333 6.66699 -42.166 15.167 -56.499 25.5s-25.833 21.666 -34.5 33.999
s-15 25.166 -19 38.499s-7.66699 26.666 -11 39.999l153 6c2 -4.66699 5 -9.83398 9 -15.501s9.66699 -11 17 -16s17.5 -9.16699 30.5 -12.5s29.5 -5 49.5 -5c5.33301 0 14.666 0.5 27.999 1.5s25.666 3.83301 36.999 8.5c4 1.33301 9 4.33301 15 9s9 12 9 22
c0 14.667 -5.66699 24.334 -17 29.001s-24 7.33398 -38 8.00098h-111v95h29c12 0 24.333 0.166992 37 0.5s24.167 0.666016 34.5 0.999023s17.833 1.16602 22.5 2.49902c2 0 5 0.5 9 1.5s7.83301 2.66699 11.5 5s7 5.5 10 9.5s4.5 9.33301 4.5 16
c0 7.33301 -1.83301 13.333 -5.5 18s-8.5 8.16699 -14.5 10.5s-12.5 4 -19.5 5s-13.833 1.5 -20.5 1.5c-18.667 0 -34 -1.16699 -46 -3.5s-21.5 -5.5 -28.5 -9.5s-12.5 -8.16699 -16.5 -12.5s-7.33301 -8.5 -10 -12.5l-152 6c0.666992 7.33301 2 15.333 4 24
s5.33301 17.667 10 27s11.167 18.5 19.5 27.5s19.5 17.5 33.5 25.5c14.667 8 31 14.333 49 19s36 8.16699 54 10.5s35 3.66602 51 3.99902s29 0.5 39 0.5c14.667 0 30.167 -0.5 46.5 -1.5s32.333 -2.66699 48 -5s30.834 -6 45.501 -11s27.667 -11.5 39 -19.5
c14.667 -10 26.167 -23 34.5 -39s12.5 -32 12.5 -48c0 -15.333 -2.33301 -28 -7 -38s-10.667 -18.333 -18 -25s-15.5 -12.167 -24.5 -16.5s-18.167 -8.5 -27.5 -12.5z" />
    <glyph glyph-name="acute" unicode="&#xb4;" 
d="M81 737h263l-136 -138h-177z" />
    <glyph glyph-name="mu" unicode="&#xb5;" horiz-adv-x="812" 
d="M50 530l236.999 0.000976562v-263c0 -15.333 1.16699 -31.333 3.5 -48s10.833 -32 25.5 -46c11.333 -10.667 25.666 -18.5 42.999 -23.5s33 -7.16699 47 -6.5c18 0.666992 34.5 3.5 49.5 8.5s27.833 12.833 38.5 23.5s19 24.667 25 42s9 38.666 9 63.999v249h236v-530
h-230v73c-14 -16 -26.833 -29.167 -38.5 -39.5s-23.167 -18.5 -34.5 -24.5s-22.666 -10.167 -33.999 -12.5s-23.666 -3.5 -36.999 -3.5c-14 0 -26 1 -36 3s-18.833 4.83301 -26.5 8.5s-14.667 7.66699 -21 12l-19.5 13.5v-234h-237v734z" />
    <glyph glyph-name="mu" unicode="&#x3bc;" horiz-adv-x="812" 
d="M50 530l236.999 0.000976562v-263c0 -15.333 1.16699 -31.333 3.5 -48s10.833 -32 25.5 -46c11.333 -10.667 25.666 -18.5 42.999 -23.5s33 -7.16699 47 -6.5c18 0.666992 34.5 3.5 49.5 8.5s27.833 12.833 38.5 23.5s19 24.667 25 42s9 38.666 9 63.999v249h236v-530
h-230v73c-14 -16 -26.833 -29.167 -38.5 -39.5s-23.167 -18.5 -34.5 -24.5s-22.666 -10.167 -33.999 -12.5s-23.666 -3.5 -36.999 -3.5c-14 0 -26 1 -36 3s-18.833 4.83301 -26.5 8.5s-14.667 7.66699 -21 12l-19.5 13.5v-234h-237v734z" />
    <glyph glyph-name="paragraph" unicode="&#xb6;" horiz-adv-x="667" 
d="M558 706l-0.00292969 -77.999h-36v-795h-84v795h-118v-795h-84v459c-11.333 3.33301 -24.166 7.5 -38.499 12.5s-29.166 13.5 -44.499 25.5c-24 19.333 -41.833 43.166 -53.5 71.499s-17.5 58.166 -17.5 89.499c0 8.66699 0.5 19.334 1.5 32.001
s3.83301 26.334 8.5 41.001s11.334 29.5 20.001 44.5s20.667 29.5 36 43.5c14 12.667 28.333 22.667 43 30s29 12.666 43 15.999s27.333 5.5 40 6.5s24 1.5 34 1.5h250z" />
    <glyph glyph-name="periodcentered" unicode="&#xb7;" horiz-adv-x="313" 
d="M41 433h230v-183h-230v183z" />
    <glyph glyph-name="periodcentered" unicode="&#x2219;" horiz-adv-x="313" 
d="M41 433h230v-183h-230v183z" />
    <glyph glyph-name="cedilla" unicode="&#xb8;" 
d="M209 31h72.0029l-48 -78c11.333 -3.33301 23.666 -7.33301 36.999 -12s25.666 -13.667 36.999 -27c4.66699 -5.33301 9.33398 -12.833 14.001 -22.5s7 -21.167 7 -34.5c0 -14.667 -3.5 -28.834 -10.5 -42.501s-17.5 -25.834 -31.5 -36.501s-31.167 -19.167 -51.5 -25.5
s-43.5 -9.5 -69.5 -9.5c-28 0 -51.5 2.83301 -70.5 8.5s-35.167 11.167 -48.5 16.5l22 55c11.333 -3.33301 22.666 -6.5 33.999 -9.5s24.666 -4.5 39.999 -4.5c22.667 0 39 3.83301 49 11.5s15 15.834 15 24.501c0 6.66699 -1.66699 12 -5 16s-7.33301 6.83301 -12 8.5
s-9 2.66699 -13 3s-6.33301 0.5 -7 0.5c-9.33301 0 -16.833 -1.16699 -22.5 -3.5s-11.167 -5.16602 -16.5 -8.49902l-34 35z" />
    <glyph glyph-name="onesuperior" unicode="&#xb9;" horiz-adv-x="562" 
d="M385 706v-440.997h-162v298c-10 -3.33301 -18.5 -5.83301 -25.5 -7.5s-14 -3.16699 -21 -4.5s-14.5 -2.33301 -22.5 -3s-18 -1.33398 -30 -2.00098v104c16.667 1.33301 36.5 5.16602 59.5 11.499s49.167 21.166 78.5 44.499h123z" />
    <glyph glyph-name="ordmasculine" unicode="&#xba;" horiz-adv-x="521" 
d="M259 616c-16 0 -28.666 -2.66699 -37.999 -8s-16.5 -11.5 -21.5 -18.5s-8.33301 -14.333 -10 -22s-2.5 -14.167 -2.5 -19.5c0 -21.333 6.66699 -37.833 20 -49.5s32.333 -17.5 57 -17.5c19.333 0 36.166 5.66699 50.499 17s21.5 28 21.5 50c0 6.66699 -1 14 -3 22
s-5.83301 15.5 -11.5 22.5s-13.5 12.667 -23.5 17s-23 6.5 -39 6.5zM250.001 710c42 0.666992 77.8311 -3.33301 107.498 -12s54 -20.5 73 -35.5s33 -32.333 42 -52s13.5 -40.5 13.5 -62.5c0 -30 -7.33301 -56.667 -22 -80s-36 -42 -64 -56
c-12 -6 -24.667 -10.833 -38 -14.5s-26.166 -6.5 -38.499 -8.5s-24 -3.33301 -35 -4s-20.5 -1 -28.5 -1c-19.333 0 -41.833 2 -67.5 6s-50.167 12 -73.5 24s-43.166 28.5 -59.499 49.5s-24.5 48.5 -24.5 82.5c0 29.333 6.16699 54.333 18.5 75s28.5 37.5 48.5 50.5
s42.833 22.5 68.5 28.5s52.167 9.33301 79.5 10z" />
    <glyph glyph-name="guillemotright" unicode="&#xbb;" horiz-adv-x="521" 
d="M276 556l206 -134v-227l-206 -132v182l92 65l-92 63v183zM35 557l206 -133v-227l-206 -133v183l92 63l-92 63v184z" />
    <glyph glyph-name="onequarter" unicode="&#xbc;" horiz-adv-x="1250" 
d="M994 309l-117 -120h117v120zM1216 80h-68v-80h-154v80h-278v99l256 260h176v-250h68v-109zM816 736l87 -60l-494 -705l-87 61zM385 706v-440.997h-162v298c-10 -3.33301 -18.5 -5.83301 -25.5 -7.5s-14 -3.16699 -21 -4.5s-14.5 -2.33301 -22.5 -3
s-18 -1.33398 -30 -2.00098v104c16.667 1.33301 36.5 5.16602 59.5 11.499s49.167 21.166 78.5 44.499h123z" />
    <glyph glyph-name="onehalf" unicode="&#xbd;" horiz-adv-x="1250" 
d="M751 285c0.666992 12 1.83301 24.3262 3.5 36.9932s4.66699 24.834 9 36.501s10.333 22.834 18 33.501s18.167 20.334 31.5 29.001c16.667 10 39 17.833 67 23.5s57.333 8.5 88 8.5c2.66699 0 9.83398 -0.166992 21.501 -0.5s25.167 -1.33301 40.5 -3s31 -4 47 -7
s30 -7.5 42 -13.5c25.333 -12 43.166 -27.5 53.499 -46.5s15.5 -38.167 15.5 -57.5c0 -17.333 -3 -32.666 -9 -45.999s-14 -25.166 -24 -35.499s-21.333 -19.333 -34 -27s-25.334 -14.5 -38.001 -20.5l-24.5 -11l-37 -16.5l-37.5 -16.5
c-12 -5.33301 -20.333 -9.33301 -25 -12c-6.66699 -3.33301 -13 -7 -19 -11s-12.333 -7.66699 -19 -11h274v-113h-455v102c14.667 20.667 28.5 37.834 41.5 51.501s28 26.334 45 38.001s37.667 23.167 62 34.5l92.5 43l11.5 5.5c5 2.33301 9.83301 5.33301 14.5 9
s8.83398 7.83398 12.501 12.501s5.5 9.66699 5.5 15c0 6.66699 -2.16699 12.167 -6.5 16.5s-9.83301 7.5 -16.5 9.5s-14 3.33301 -22 4s-15.333 1 -22 1c-16 0 -28.333 -2.33301 -37 -7s-15.167 -10.334 -19.5 -17.001s-7 -13.667 -8 -21s-1.83301 -14 -2.5 -20z
M798.999 735.993l86 -60l-494 -706l-87 61zM384.999 705.993v-440.997h-162v298c-10 -3.33301 -18.5 -5.83301 -25.5 -7.5s-14 -3.16699 -21 -4.5s-14.5 -2.33301 -22.5 -3s-18 -1.33398 -30 -2.00098v104c16.667 1.33301 36.5 5.16602 59.5 11.499
s49.167 21.166 78.5 44.499h123z" />
    <glyph glyph-name="threequarters" unicode="&#xbe;" horiz-adv-x="1250" 
d="M994 312l-117 -121h117v121zM1216 78h-68v-80h-154v80h-278v99l256 262h176v-252h68v-109zM869 736l87 -60l-494 -705l-88 61zM452 502c12 -4 21.8311 -7.66309 29.498 -10.9961s13.834 -6.5 18.501 -9.5s8.33398 -5.83301 11.001 -8.5l7 -7
c11.333 -14.667 17.833 -27.334 19.5 -38.001s2.5 -18 2.5 -22c0 -7.33301 -1.33301 -18.166 -4 -32.499s-8.66699 -27.833 -18 -40.5c-12 -17.333 -29 -31.666 -51 -42.999c-18.667 -9.33301 -43.5 -17 -74.5 -23s-67.833 -9 -110.5 -9c-22.667 0 -42 0.5 -58 1.5
s-29.667 2.16699 -41 3.5s-20.5 3 -27.5 5l-17.5 5c-23.333 6.66699 -42.166 15.167 -56.499 25.5s-25.833 21.666 -34.5 33.999s-15 25.166 -19 38.499s-7.66699 26.666 -11 39.999l153 6c2 -4.66699 5 -9.83398 9 -15.501s9.66699 -11 17 -16s17.5 -9.16699 30.5 -12.5
s29.5 -5 49.5 -5c5.33301 0 14.666 0.5 27.999 1.5s25.666 3.83301 36.999 8.5c4 1.33301 9 4.33301 15 9s9 12 9 22c0 14.667 -5.66699 24.334 -17 29.001s-24 7.33398 -38 8.00098h-112v95h29c12 0 24.333 0.166992 37 0.5s24.167 0.666016 34.5 0.999023
s17.833 1.16602 22.5 2.49902c2 0 5 0.5 9 1.5s7.83301 2.66699 11.5 5s7 5.5 10 9.5s4.5 9.33301 4.5 16c0 7.33301 -1.83301 13.333 -5.5 18s-8.5 8.16699 -14.5 10.5s-12.5 4 -19.5 5s-13.833 1.5 -20.5 1.5c-18.667 0 -34 -1.16699 -46 -3.5s-21.5 -5.5 -28.5 -9.5
s-12.5 -8.16699 -16.5 -12.5s-7.33301 -8.5 -10 -12.5l-152 6c0.666992 7.33301 2 15.333 4 24s5.33301 17.667 10 27s11.167 18.5 19.5 27.5s19.5 17.5 33.5 25.5c14.667 8 31 14.333 49 19s36 8.16699 54 10.5s35 3.66602 51 3.99902s29 0.5 39 0.5
c14.667 0 30.167 -0.5 46.5 -1.5s32.333 -2.66699 48 -5s30.834 -6 45.501 -11s27.667 -11.5 39 -19.5c14.667 -10 26.167 -23 34.5 -39s12.5 -32 12.5 -48c0 -15.333 -2.33301 -28 -7 -38s-10.667 -18.333 -18 -25s-15.5 -12.167 -24.5 -16.5s-18.167 -8.5 -27.5 -12.5z
" />
    <glyph glyph-name="questiondown" unicode="&#xbf;" horiz-adv-x="771" 
d="M481 522h-215v184h215v-184zM707 243c-0.666992 -12.667 -1.83008 -27.167 -3.49707 -43.5s-5.33398 -33.333 -11.001 -51s-14 -35.334 -25 -53.001s-26.5 -34.167 -46.5 -49.5c-19.333 -14.667 -40.666 -26.167 -63.999 -34.5s-47.166 -14.5 -71.499 -18.5
s-48.333 -6.5 -72 -7.5s-44.834 -1.5 -63.501 -1.5c-17.333 0 -37.5 0.333008 -60.5 1s-46.833 3.16699 -71.5 7.5s-48.834 10.833 -72.501 19.5s-44.834 21 -63.501 37c-13.333 11.333 -24 23.333 -32 36s-14.167 25.334 -18.5 38.001s-7.33301 24.667 -9 36
s-2.5 21.666 -2.5 30.999c0 22 4 41.5 12 58.5s19.167 32.5 33.5 46.5s31.666 27.167 51.999 39.5s43.166 24.5 68.499 36.5c25.333 13.333 45 24.833 59 34.5s21.333 23.167 22 40.5h216c0 -18.667 -1 -35 -3 -49s-6.5 -26.667 -13.5 -38s-17.167 -21.833 -30.5 -31.5
s-31.333 -19.5 -54 -29.5c-21.333 -9.33301 -39.166 -17.5 -53.499 -24.5s-26 -14 -35 -21s-15.5 -14.5 -19.5 -22.5s-6 -17.667 -6 -29c0 -3.33301 0.666992 -9.16602 2 -17.499s5.5 -17 12.5 -26s17.667 -17 32 -24s34.5 -10.5 60.5 -10.5c16 0 32 1.5 48 4.5
s30.333 9.33301 43 19s22.5 23.167 29.5 40.5s10.167 40 9.5 68z" />
    <glyph glyph-name="Agrave" unicode="&#xc0;" horiz-adv-x="896" 
d="M516 896l53 -138h-181l-139 138h267zM449 510l-81 -239h164zM304 706h288l306 -706h-275l-38 115h-270l-38 -115h-277z" />
    <glyph glyph-name="Aacute" unicode="&#xc1;" horiz-adv-x="896" 
d="M382 896h263l-136 -138h-177zM449 510l-81 -239h164zM304 706h288l306 -706h-275l-38 115h-270l-38 -115h-277z" />
    <glyph glyph-name="Acircumflex" unicode="&#xc2;" horiz-adv-x="896" 
d="M611 896l87 -123h-190l-60 82l-60 -82h-188l90 123h321zM449 510l-81 -239h164zM304 706h288l306 -706h-275l-38 115h-270l-38 -115h-277z" />
    <glyph glyph-name="Atilde" unicode="&#xc3;" horiz-adv-x="896" 
d="M182 749c3.33301 21.333 7.99512 40.999 13.9951 58.999s17.333 35 34 51c2.66699 2.66699 6.83398 6.5 12.501 11.5s13.334 9.83301 23.001 14.5s21.667 8.83398 36 12.501s31.166 5.5 50.499 5.5c14.667 0 28.334 -1.33301 41.001 -4l41 -9
c6 -1.33301 14.5 -3.5 25.5 -6.5s22.5 -5.83301 34.5 -8.5s23.333 -5 34 -7s18 -3 22 -3c14.667 0 23.834 3.5 27.501 10.5s6.16699 12.833 7.5 17.5h127c-1.33301 -26.667 -6.83301 -49.5 -16.5 -68.5s-22 -34.667 -37 -47s-31.667 -21.5 -50 -27.5s-36.833 -9 -55.5 -9
c-13.333 0 -26.666 1 -39.999 3s-26.666 4.33301 -39.999 7c-27.333 6.66699 -48.666 11.667 -63.999 15l-35 7.5c-8 1.66699 -13.5 2.66699 -16.5 3s-5.83301 0.5 -8.5 0.5c-6 0 -13.333 -1.5 -22 -4.5s-14.334 -10.833 -17.001 -23.5h-128zM448.995 509.999l-81 -239h164z
M303.995 705.999h288l306 -706h-275l-38 115h-270l-38 -115h-277z" />
    <glyph glyph-name="Adieresis" unicode="&#xc4;" horiz-adv-x="896" 
d="M518 896h207v-124h-207v124zM379 896v-124h-207v124h207zM449 510l-81 -239h164zM304 706h288l306 -706h-275l-38 115h-270l-38 -115h-277z" />
    <glyph glyph-name="Aring" unicode="&#xc5;" horiz-adv-x="896" 
d="M438 861c-4 0 -8.99902 -0.666992 -14.999 -2s-11.5 -3.33301 -16.5 -6s-9.33301 -6.5 -13 -11.5s-5.5 -11.167 -5.5 -18.5c0 -9.33301 2.66699 -16.5 8 -21.5s11.333 -8.66699 18 -11s13.167 -3.83301 19.5 -4.5s10.833 -1 13.5 -1c4.66699 0 10.667 0.5 18 1.5
s14.5 2.83301 21.5 5.5s13 6.66699 18 12s7.5 12 7.5 20s-2.66699 14.5 -8 19.5s-11.833 8.83301 -19.5 11.5s-15.834 4.5 -24.501 5.5s-16 1.16699 -22 0.5zM442.001 925c17.333 0.666992 34.666 -0.835938 51.999 -4.50293s32.833 -9.66699 46.5 -18
s24.834 -19.166 33.501 -32.499s13 -29 13 -47c0 -28.667 -12.167 -52.667 -36.5 -72s-58.833 -29 -103.5 -29c-18.667 0 -36.167 2.33301 -52.5 7s-30.5 11.334 -42.5 20.001s-21.5 19.334 -28.5 32.001s-10.5 26.667 -10.5 42c0 16.667 3.83301 31.167 11.5 43.5
s17.5 22.666 29.5 30.999s25.667 14.833 41 19.5s31 7.33398 47 8.00098zM449.001 509.997l-81 -239h164zM304.001 705.997h288l306 -706h-275l-38 115h-270l-38 -115h-277z" />
    <glyph glyph-name="AE" unicode="&#xc6;" horiz-adv-x="1125" 
d="M530 559l-150 -289h150v289zM386 706h710v-159h-320v-115h274v-160h-274v-112h328v-160h-574v113h-230l-58 -113h-249z" />
    <glyph glyph-name="Ccedilla" unicode="&#xc7;" horiz-adv-x="938" 
d="M937 228l-15.9932 -41.5049c-6.66699 -17 -16.5 -34.833 -29.5 -53.5s-29.833 -37.5 -50.5 -56.5s-46.667 -35.833 -78 -50.5c-43.333 -20 -88 -33.333 -134 -40s-93 -10 -141 -10l-14 -24c11.333 -3.33301 23.666 -7.33301 36.999 -12s25.666 -13.667 36.999 -27
c5.33301 -6.66699 10.166 -14.667 14.499 -24s6.5 -20.333 6.5 -33c0 -14.667 -3.5 -28.834 -10.5 -42.501s-17.5 -25.834 -31.5 -36.501s-31.167 -19.167 -51.5 -25.5s-43.5 -9.5 -69.5 -9.5c-28 0 -51.667 2.83301 -71 8.5s-35.666 11.167 -48.999 16.5l22 55
c11.333 -3.33301 22.666 -6.5 33.999 -9.5s24.666 -4.5 39.999 -4.5c22.667 0 39.167 3.83301 49.5 11.5s15.5 15.834 15.5 24.501c0 6.66699 -1.66699 12 -5 16s-7.33301 6.83301 -12 8.5s-9 2.66699 -13 3s-6.66699 0.5 -8 0.5c-8.66699 0 -16 -1.33301 -22 -4
s-11.667 -5.66699 -17 -9l-33 36l72 86l-56.5 7.5c-17 2.33301 -36.5 6.83301 -58.5 13.5c-28 8.66699 -57.667 21.5 -89 38.5s-60 39.5 -86 67.5s-47.5 62 -64.5 102s-25.5 87.333 -25.5 142c0 22.667 2.5 48 7.5 76s13.833 56.333 26.5 85s30.334 56.334 53.001 83.001
s51.5 50.334 86.5 71.001s77.167 37.334 126.5 50.001s107.333 19 174 19c57.333 0 106.833 -4 148.5 -12s77.5 -18.333 107.5 -31s54.667 -27.167 74 -43.5s35.166 -32.666 47.499 -48.999s21.666 -32.166 27.999 -47.499s11.5 -28.666 15.5 -39.999l-235 -42
c-5.33301 10.667 -11.833 22.167 -19.5 34.5s-20.834 24.5 -39.501 36.5c-19.333 12 -39.833 20.333 -61.5 25s-41.5 7 -59.5 7c-28 0 -55 -4.5 -81 -13.5s-49 -22.667 -69 -41s-36 -41.333 -48 -69s-18 -60.167 -18 -97.5c0 -26.667 4 -53 12 -79s20.5 -49.333 37.5 -70
s38.667 -37.334 65 -50.001s57.5 -19 93.5 -19c28 0 54.167 4 78.5 12s46.166 19.667 65.499 35c16.667 13.333 28.167 25.833 34.5 37.5s11.5 22.834 15.5 33.501z" />
    <glyph glyph-name="Egrave" unicode="&#xc8;" horiz-adv-x="833" 
d="M500 896l53 -138h-181l-139 138h267zM804 706v-159h-491v-115h454v-160h-455v-112h502v-160h-754v706h744z" />
    <glyph glyph-name="Eacute" unicode="&#xc9;" horiz-adv-x="833" 
d="M366 896h263l-136 -138h-177zM804 706v-159h-491v-115h454v-160h-455v-112h502v-160h-754v706h744z" />
    <glyph glyph-name="Ecircumflex" unicode="&#xca;" horiz-adv-x="833" 
d="M590 896l87 -123h-190l-60 82l-60 -82h-188l90 123h321zM804 706v-159h-491v-115h454v-160h-455v-112h502v-160h-754v706h744z" />
    <glyph glyph-name="Edieresis" unicode="&#xcb;" horiz-adv-x="833" 
d="M487 896h207v-124h-207v124zM348 896v-124h-207v124h207zM804 706v-159h-491v-115h454v-160h-455v-112h502v-160h-754v706h744z" />
    <glyph glyph-name="Igrave" unicode="&#xcc;" 
d="M255 896l53 -138h-181l-139 138h267zM314 706v-706h-253v706h253z" />
    <glyph glyph-name="Iacute" unicode="&#xcd;" 
d="M121 896h263l-136 -138h-177zM314 706v-706h-253v706h253z" />
    <glyph glyph-name="Icircumflex" unicode="&#xce;" 
d="M350 896l87 -123h-190l-60 82l-60 -82h-188l90 123h321zM314 706v-706h-253v706h253z" />
    <glyph glyph-name="Idieresis" unicode="&#xcf;" 
d="M257 896h207v-124h-207v124zM118 896v-124h-207v124h207zM314 706v-706h-253v706h253z" />
    <glyph glyph-name="Eth" unicode="&#xd0;" horiz-adv-x="917" 
d="M308 406l212.003 0.00195312v-97h-212v-149h129c8.66699 0 19 0.5 31 1.5s24.667 2.83301 38 5.5s26.666 6.66699 39.999 12s25.666 13 36.999 23c17.333 15.333 31.166 36.666 41.499 63.999s15.5 56 15.5 86c0 34 -6.16699 63.333 -18.5 88s-27.166 44 -44.499 58
c-12 10 -25 17.667 -39 23s-27.667 9.16602 -41 11.499s-25.833 3.83301 -37.5 4.5s-21.834 1 -30.501 1h-121v-132zM61.0029 309.002h-60.999v97h61v300h401c27.333 -0.666992 57.833 -2.16699 91.5 -4.5s67.5 -8.66602 101.5 -18.999s66.833 -26.5 98.5 -48.5
s59.5 -53 83.5 -93c4 -6.66699 8.83301 -15.667 14.5 -27s11.167 -25 16.5 -41s9.83301 -34.5 13.5 -55.5s5.5 -44.833 5.5 -71.5c0 -28 -2.5 -55.5 -7.5 -82.5s-13.167 -53.167 -24.5 -78.5c-4.66699 -10 -10.334 -21 -17.001 -33s-15.167 -24.167 -25.5 -36.5
s-22.833 -24.5 -37.5 -36.5s-32 -23.333 -52 -34c-38 -20 -74.667 -32.333 -110 -37s-70 -7.33398 -104 -8.00098h-448v309z" />
    <glyph glyph-name="Ntilde" unicode="&#xd1;" horiz-adv-x="917" 
d="M192 749c3.33301 21.333 7.99512 40.999 13.9951 58.999s17.333 35 34 51c2.66699 2.66699 6.83398 6.5 12.501 11.5s13.334 9.83301 23.001 14.5s21.667 8.83398 36 12.501s31.166 5.5 50.499 5.5c14.667 0 28.334 -1.33301 41.001 -4l41 -9
c6 -1.33301 14.5 -3.5 25.5 -6.5s22.5 -5.83301 34.5 -8.5s23.333 -5 34 -7s18 -3 22 -3c14.667 0 23.834 3.5 27.501 10.5s6.16699 12.833 7.5 17.5h127c-1.33301 -26.667 -6.83301 -49.5 -16.5 -68.5s-22 -34.667 -37 -47s-31.667 -21.5 -50 -27.5s-36.833 -9 -55.5 -9
c-13.333 0 -26.666 1 -39.999 3s-26.666 4.33301 -39.999 7c-27.333 6.66699 -48.666 11.667 -63.999 15l-35 7.5c-8 1.66699 -13.5 2.66699 -16.5 3s-5.83301 0.5 -8.5 0.5c-6 0 -13.333 -1.5 -22 -4.5s-14.334 -10.833 -17.001 -23.5h-128zM61.9951 705.999h209l217 -238
l38.5 -42l28.5 -32.5l26 -32.5l32 -41c-1.33301 24 -2.16602 44.833 -2.49902 62.5s-0.833008 34.667 -1.5 51s-1 33.166 -1 50.499v62v160h249v-706h-210l-259 292l-23.5 27.5l-18 22l-17.5 21.5l-21 26c0.666992 -30.667 1.16699 -56.167 1.5 -76.5
s0.666016 -38.666 0.999023 -54.999l1 -49c0.333008 -16.333 0.5 -35.833 0.5 -58.5v-150h-250v706z" />
    <glyph glyph-name="Ograve" unicode="&#xd2;" horiz-adv-x="1000" 
d="M568 896l53 -138h-181l-139 138h267zM502 575c-40 0.666992 -73.499 -6.00195 -100.499 -20.002s-48.667 -31.833 -65 -53.5s-28.166 -45.667 -35.499 -72s-11 -51.5 -11 -75.5c0 -27.333 3.83301 -54.166 11.5 -80.499s20 -50 37 -71s39 -38 66 -51
s59.5 -19.5 97.5 -19.5c17.333 0 34.833 1.33301 52.5 4s34.167 8 49.5 16c19.333 10 35.666 22.667 48.999 38s24.166 32.333 32.499 51s14.333 37.667 18 57s5.5 38 5.5 56c0 19.333 -2.66699 41.666 -8 66.999s-15.5 49.333 -30.5 72s-36 41.834 -63 57.501
s-62.167 23.834 -105.5 24.501zM487.001 731.998c44 0.666992 88.6631 -1.83398 133.996 -7.50098s88.333 -16.834 129 -33.501s74.834 -37.834 102.501 -63.501s50.167 -53.5 67.5 -83.5s29.833 -61.333 37.5 -94s11.5 -64 11.5 -94c0 -33.333 -4.16699 -66.333 -12.5 -99
s-21.166 -63.667 -38.499 -93c-22.667 -37.333 -50.667 -69 -84 -95c-48 -38 -100.167 -63.167 -156.5 -75.5s-116.833 -18.5 -181.5 -18.5c-61.333 0 -114.166 4.83301 -158.499 14.5s-82.166 22.167 -113.499 37.5s-57.166 32.333 -77.499 51s-36.833 37 -49.5 55
c-24 32 -41.167 65.333 -51.5 100s-15.5 72.334 -15.5 113.001c0 40 5.16699 78.833 15.5 116.5s26.833 72.5 49.5 104.5c24.667 34.667 53.167 62.834 85.5 84.501s66 38.334 101 50.001s70.167 19.5 105.5 23.5s68.666 6.33301 99.999 7z" />
    <glyph glyph-name="Oacute" unicode="&#xd3;" horiz-adv-x="1000" 
d="M434 896h263l-136 -138h-177zM502 575c-40 0.666992 -73.499 -6.00195 -100.499 -20.002s-48.667 -31.833 -65 -53.5s-28.166 -45.667 -35.499 -72s-11 -51.5 -11 -75.5c0 -27.333 3.83301 -54.166 11.5 -80.499s20 -50 37 -71s39 -38 66 -51s59.5 -19.5 97.5 -19.5
c17.333 0 34.833 1.33301 52.5 4s34.167 8 49.5 16c19.333 10 35.666 22.667 48.999 38s24.166 32.333 32.499 51s14.333 37.667 18 57s5.5 38 5.5 56c0 19.333 -2.66699 41.666 -8 66.999s-15.5 49.333 -30.5 72s-36 41.834 -63 57.501s-62.167 23.834 -105.5 24.501z
M487.001 731.998c44 0.666992 88.6631 -1.83398 133.996 -7.50098s88.333 -16.834 129 -33.501s74.834 -37.834 102.501 -63.501s50.167 -53.5 67.5 -83.5s29.833 -61.333 37.5 -94s11.5 -64 11.5 -94c0 -33.333 -4.16699 -66.333 -12.5 -99s-21.166 -63.667 -38.499 -93
c-22.667 -37.333 -50.667 -69 -84 -95c-48 -38 -100.167 -63.167 -156.5 -75.5s-116.833 -18.5 -181.5 -18.5c-61.333 0 -114.166 4.83301 -158.499 14.5s-82.166 22.167 -113.499 37.5s-57.166 32.333 -77.499 51s-36.833 37 -49.5 55c-24 32 -41.167 65.333 -51.5 100
s-15.5 72.334 -15.5 113.001c0 40 5.16699 78.833 15.5 116.5s26.833 72.5 49.5 104.5c24.667 34.667 53.167 62.834 85.5 84.501s66 38.334 101 50.001s70.167 19.5 105.5 23.5s68.666 6.33301 99.999 7z" />
    <glyph glyph-name="Ocircumflex" unicode="&#xd4;" horiz-adv-x="1000" 
d="M663 896l87 -123h-190l-60 82l-60 -82h-188l90 123h321zM502 575c-40 0.666992 -73.499 -6.00195 -100.499 -20.002s-48.667 -31.833 -65 -53.5s-28.166 -45.667 -35.499 -72s-11 -51.5 -11 -75.5c0 -27.333 3.83301 -54.166 11.5 -80.499s20 -50 37 -71s39 -38 66 -51
s59.5 -19.5 97.5 -19.5c17.333 0 34.833 1.33301 52.5 4s34.167 8 49.5 16c19.333 10 35.666 22.667 48.999 38s24.166 32.333 32.499 51s14.333 37.667 18 57s5.5 38 5.5 56c0 19.333 -2.66699 41.666 -8 66.999s-15.5 49.333 -30.5 72s-36 41.834 -63 57.501
s-62.167 23.834 -105.5 24.501zM487.001 731.998c44 0.666992 88.6631 -1.83398 133.996 -7.50098s88.333 -16.834 129 -33.501s74.834 -37.834 102.501 -63.501s50.167 -53.5 67.5 -83.5s29.833 -61.333 37.5 -94s11.5 -64 11.5 -94c0 -33.333 -4.16699 -66.333 -12.5 -99
s-21.166 -63.667 -38.499 -93c-22.667 -37.333 -50.667 -69 -84 -95c-48 -38 -100.167 -63.167 -156.5 -75.5s-116.833 -18.5 -181.5 -18.5c-61.333 0 -114.166 4.83301 -158.499 14.5s-82.166 22.167 -113.499 37.5s-57.166 32.333 -77.499 51s-36.833 37 -49.5 55
c-24 32 -41.167 65.333 -51.5 100s-15.5 72.334 -15.5 113.001c0 40 5.16699 78.833 15.5 116.5s26.833 72.5 49.5 104.5c24.667 34.667 53.167 62.834 85.5 84.501s66 38.334 101 50.001s70.167 19.5 105.5 23.5s68.666 6.33301 99.999 7z" />
    <glyph glyph-name="Otilde" unicode="&#xd5;" horiz-adv-x="1000" 
d="M234 749c3.33301 21.333 7.99512 40.999 13.9951 58.999s17.333 35 34 51c2.66699 2.66699 6.83398 6.5 12.501 11.5s13.334 9.83301 23.001 14.5s21.667 8.83398 36 12.501s31.166 5.5 50.499 5.5c14.667 0 28.334 -1.33301 41.001 -4l41 -9
c6 -1.33301 14.5 -3.5 25.5 -6.5s22.5 -5.83301 34.5 -8.5s23.333 -5 34 -7s18 -3 22 -3c14.667 0 23.834 3.5 27.501 10.5s6.16699 12.833 7.5 17.5h127c-1.33301 -26.667 -6.83301 -49.5 -16.5 -68.5s-22 -34.667 -37 -47s-31.667 -21.5 -50 -27.5s-36.833 -9 -55.5 -9
c-13.333 0 -26.666 1 -39.999 3s-26.666 4.33301 -39.999 7c-27.333 6.66699 -48.666 11.667 -63.999 15l-35 7.5c-8 1.66699 -13.5 2.66699 -16.5 3s-5.83301 0.5 -8.5 0.5c-6 0 -13.333 -1.5 -22 -4.5s-14.334 -10.833 -17.001 -23.5h-128zM501.995 574.999
c-40 0.666992 -73.499 -6.00195 -100.499 -20.002s-48.667 -31.833 -65 -53.5s-28.166 -45.667 -35.499 -72s-11 -51.5 -11 -75.5c0 -27.333 3.83301 -54.166 11.5 -80.499s20 -50 37 -71s39 -38 66 -51s59.5 -19.5 97.5 -19.5c17.333 0 34.833 1.33301 52.5 4
s34.167 8 49.5 16c19.333 10 35.666 22.667 48.999 38s24.166 32.333 32.499 51s14.333 37.667 18 57s5.5 38 5.5 56c0 19.333 -2.66699 41.666 -8 66.999s-15.5 49.333 -30.5 72s-36 41.834 -63 57.501s-62.167 23.834 -105.5 24.501zM486.996 731.997
c44 0.666992 88.6631 -1.83398 133.996 -7.50098s88.333 -16.834 129 -33.501s74.834 -37.834 102.501 -63.501s50.167 -53.5 67.5 -83.5s29.833 -61.333 37.5 -94s11.5 -64 11.5 -94c0 -33.333 -4.16699 -66.333 -12.5 -99s-21.166 -63.667 -38.499 -93
c-22.667 -37.333 -50.667 -69 -84 -95c-48 -38 -100.167 -63.167 -156.5 -75.5s-116.833 -18.5 -181.5 -18.5c-61.333 0 -114.166 4.83301 -158.499 14.5s-82.166 22.167 -113.499 37.5s-57.166 32.333 -77.499 51s-36.833 37 -49.5 55c-24 32 -41.167 65.333 -51.5 100
s-15.5 72.334 -15.5 113.001c0 40 5.16699 78.833 15.5 116.5s26.833 72.5 49.5 104.5c24.667 34.667 53.167 62.834 85.5 84.501s66 38.334 101 50.001s70.167 19.5 105.5 23.5s68.666 6.33301 99.999 7z" />
    <glyph glyph-name="Odieresis" unicode="&#xd6;" horiz-adv-x="1000" 
d="M569 894h207v-124h-207v124zM430 894v-124h-207v124h207zM502 575c-40 0.666992 -73.499 -6.00195 -100.499 -20.002s-48.667 -31.833 -65 -53.5s-28.166 -45.667 -35.499 -72s-11 -51.5 -11 -75.5c0 -27.333 3.83301 -54.166 11.5 -80.499s20 -50 37 -71s39 -38 66 -51
s59.5 -19.5 97.5 -19.5c17.333 0 34.833 1.33301 52.5 4s34.167 8 49.5 16c19.333 10 35.666 22.667 48.999 38s24.166 32.333 32.499 51s14.333 37.667 18 57s5.5 38 5.5 56c0 19.333 -2.66699 41.666 -8 66.999s-15.5 49.333 -30.5 72s-36 41.834 -63 57.501
s-62.167 23.834 -105.5 24.501zM487.001 731.998c44 0.666992 88.6631 -1.83398 133.996 -7.50098s88.333 -16.834 129 -33.501s74.834 -37.834 102.501 -63.501s50.167 -53.5 67.5 -83.5s29.833 -61.333 37.5 -94s11.5 -64 11.5 -94c0 -33.333 -4.16699 -66.333 -12.5 -99
s-21.166 -63.667 -38.499 -93c-22.667 -37.333 -50.667 -69 -84 -95c-48 -38 -100.167 -63.167 -156.5 -75.5s-116.833 -18.5 -181.5 -18.5c-61.333 0 -114.166 4.83301 -158.499 14.5s-82.166 22.167 -113.499 37.5s-57.166 32.333 -77.499 51s-36.833 37 -49.5 55
c-24 32 -41.167 65.333 -51.5 100s-15.5 72.334 -15.5 113.001c0 40 5.16699 78.833 15.5 116.5s26.833 72.5 49.5 104.5c24.667 34.667 53.167 62.834 85.5 84.501s66 38.334 101 50.001s70.167 19.5 105.5 23.5s68.666 6.33301 99.999 7z" />
    <glyph glyph-name="multiply" unicode="&#xd7;" horiz-adv-x="667" 
d="M516 19l-183 182l-182 -182l-90 91l182 181l-182 183l90 88l182 -180l183 180l89 -88l-181 -183l181 -181z" />
    <glyph glyph-name="Oslash" unicode="&#xd8;" horiz-adv-x="1000" 
d="M348 187c20.667 -19.333 43.999 -33.167 69.999 -41.5s53 -12.5 81 -12.5c29.333 0 57.333 4.5 84 13.5s50 22.667 70 41s36 41.333 48 69s18 59.834 18 96.501c0 14.667 -1.66699 32.667 -5 54s-11.666 42.666 -24.999 63.999zM647.999 522.999
c-21.333 17.333 -44.667 30.166 -70 38.499s-52 12.5 -80 12.5c-48 0 -86.333 -8 -115 -24s-50.667 -35.333 -66 -58s-25.333 -46.167 -30 -70.5s-7 -44.833 -7 -61.5c0 -4.66699 0.166992 -11.5 0.5 -20.5s1.5 -19 3.5 -30s5 -22.667 9 -35s9.33301 -24.166 16 -35.499z
M926.998 754.999l41.002 -51.001l-106 -89l31.5 -35.5c12.333 -14.333 24 -31.666 35 -51.999s20.333 -44.5 28 -72.5s11.5 -60.333 11.5 -97c0 -29.333 -3 -58.333 -9 -87s-15.667 -56 -29 -82c-19.333 -38 -45 -71.667 -77 -101c-44 -40.667 -94.667 -69.5 -152 -86.5
s-122.666 -25.5 -195.999 -25.5c-26 0 -57.167 1.66699 -93.5 5s-72.5 10.333 -108.5 21c-28.667 8.66699 -51 17.667 -67 27s-31 18.666 -45 27.999l-125 -104l-41 48l116 98c-8.66699 8.66699 -19.334 20.167 -32.001 34.5s-25 32.333 -37 54s-22.167 46.834 -30.5 75.501
s-12.5 61.667 -12.5 99s4.83301 71.5 14.5 102.5s22.167 58.667 37.5 83s32.166 45.5 50.499 63.5s36.166 32.667 53.499 44c23.333 16 48.333 29 75 39s53.667 17.833 81 23.5s54.5 9.66699 81.5 12s52.5 3.5 76.5 3.5c23.333 0 52.333 -1.5 87 -4.5s69.667 -9.5 105 -19.5
c26 -7.33301 47 -15.333 63 -24l52 -29z" />
    <glyph glyph-name="Ugrave" unicode="&#xd9;" horiz-adv-x="958" 
d="M547 896l53 -138h-181l-139 138h267zM61 706l252 -0.00195312v-401c0 -22 1.33301 -41.333 4 -58s8 -31.667 16 -45c8 -14 17.833 -25.5 29.5 -34.5s24 -16.167 37 -21.5s26.5 -9 40.5 -11s27.333 -3 40 -3c33.333 0 59.666 4.5 78.999 13.5s33.333 17.5 42 25.5
c10.667 10 19 21.167 25 33.5s10.333 24.833 13 37.5s4.33398 24.834 5.00098 36.501s1 21.834 1 30.501v397h252v-370c0 -20.667 -0.333008 -41.5 -1 -62.5s-2.33398 -41.333 -5.00098 -61s-6.66699 -38.667 -12 -57s-13 -34.833 -23 -49.5
c-19.333 -30 -44.5 -53.667 -75.5 -71s-64 -30.5 -99 -39.5s-70.167 -14.667 -105.5 -17s-67 -3.5 -95 -3.5c-78.667 0 -141.5 5 -188.5 15s-83.833 23 -110.5 39c-27.333 13.333 -49 29.833 -65 49.5s-28.167 40 -36.5 61s-13.666 41.5 -15.999 61.5s-3.5 37 -3.5 51v454z
" />
    <glyph glyph-name="Uacute" unicode="&#xda;" horiz-adv-x="958" 
d="M413 896h263l-136 -138h-177zM61 706l252 -0.00195312v-401c0 -22 1.33301 -41.333 4 -58s8 -31.667 16 -45c8 -14 17.833 -25.5 29.5 -34.5s24 -16.167 37 -21.5s26.5 -9 40.5 -11s27.333 -3 40 -3c33.333 0 59.666 4.5 78.999 13.5s33.333 17.5 42 25.5
c10.667 10 19 21.167 25 33.5s10.333 24.833 13 37.5s4.33398 24.834 5.00098 36.501s1 21.834 1 30.501v397h252v-370c0 -20.667 -0.333008 -41.5 -1 -62.5s-2.33398 -41.333 -5.00098 -61s-6.66699 -38.667 -12 -57s-13 -34.833 -23 -49.5
c-19.333 -30 -44.5 -53.667 -75.5 -71s-64 -30.5 -99 -39.5s-70.167 -14.667 -105.5 -17s-67 -3.5 -95 -3.5c-78.667 0 -141.5 5 -188.5 15s-83.833 23 -110.5 39c-27.333 13.333 -49 29.833 -65 49.5s-28.167 40 -36.5 61s-13.666 41.5 -15.999 61.5s-3.5 37 -3.5 51v454z
" />
    <glyph glyph-name="Ucircumflex" unicode="&#xdb;" horiz-adv-x="958" 
d="M642 896l87 -123h-190l-60 82l-60 -82h-188l90 123h321zM61 706l252 -0.00195312v-401c0 -22 1.33301 -41.333 4 -58s8 -31.667 16 -45c8 -14 17.833 -25.5 29.5 -34.5s24 -16.167 37 -21.5s26.5 -9 40.5 -11s27.333 -3 40 -3c33.333 0 59.666 4.5 78.999 13.5
s33.333 17.5 42 25.5c10.667 10 19 21.167 25 33.5s10.333 24.833 13 37.5s4.33398 24.834 5.00098 36.501s1 21.834 1 30.501v397h252v-370c0 -20.667 -0.333008 -41.5 -1 -62.5s-2.33398 -41.333 -5.00098 -61s-6.66699 -38.667 -12 -57s-13 -34.833 -23 -49.5
c-19.333 -30 -44.5 -53.667 -75.5 -71s-64 -30.5 -99 -39.5s-70.167 -14.667 -105.5 -17s-67 -3.5 -95 -3.5c-78.667 0 -141.5 5 -188.5 15s-83.833 23 -110.5 39c-27.333 13.333 -49 29.833 -65 49.5s-28.167 40 -36.5 61s-13.666 41.5 -15.999 61.5s-3.5 37 -3.5 51v454z
" />
    <glyph glyph-name="Udieresis" unicode="&#xdc;" horiz-adv-x="958" 
d="M549 896h207v-124h-207v124zM410 896v-124h-207v124h207zM61 706l252 -0.00195312v-401c0 -22 1.33301 -41.333 4 -58s8 -31.667 16 -45c8 -14 17.833 -25.5 29.5 -34.5s24 -16.167 37 -21.5s26.5 -9 40.5 -11s27.333 -3 40 -3c33.333 0 59.666 4.5 78.999 13.5
s33.333 17.5 42 25.5c10.667 10 19 21.167 25 33.5s10.333 24.833 13 37.5s4.33398 24.834 5.00098 36.501s1 21.834 1 30.501v397h252v-370c0 -20.667 -0.333008 -41.5 -1 -62.5s-2.33398 -41.333 -5.00098 -61s-6.66699 -38.667 -12 -57s-13 -34.833 -23 -49.5
c-19.333 -30 -44.5 -53.667 -75.5 -71s-64 -30.5 -99 -39.5s-70.167 -14.667 -105.5 -17s-67 -3.5 -95 -3.5c-78.667 0 -141.5 5 -188.5 15s-83.833 23 -110.5 39c-27.333 13.333 -49 29.833 -65 49.5s-28.167 40 -36.5 61s-13.666 41.5 -15.999 61.5s-3.5 37 -3.5 51v454z
" />
    <glyph glyph-name="Yacute" unicode="&#xdd;" horiz-adv-x="875" 
d="M371 896h263l-136 -138h-177zM285 706l116.997 -212.001c4.66699 -9.33301 8.33398 -17 11.001 -23s5.33398 -11.667 8.00098 -17s5.33398 -11.166 8.00098 -17.499l10 -23.5c4 10 7.5 18.333 10.5 25l9 20l10 21.5l13.5 28.5l110 198h292l-320 -496v-210h-250v210
l-324 496h295z" />
    <glyph glyph-name="Thorn" unicode="&#xde;" horiz-adv-x="833" 
d="M313 299l159 -0.000976562c22.667 0 40.667 0.833008 54 2.5s24.333 5.83398 33 12.501c16.667 12.667 25 32 25 58c0 8 -2.5 17.667 -7.5 29s-13.167 20 -24.5 26c-8 4 -16.167 6.83301 -24.5 8.5s-19.833 2.5 -34.5 2.5h-180v-139zM61 706.999l252.002 0.00195312v-109
h231c22.667 -0.666992 44.667 -1.5 66 -2.5s41.666 -3.16699 60.999 -6.5s37.5 -8.5 54.5 -15.5s32.5 -16.833 46.5 -29.5c18 -16.667 33.167 -39.167 45.5 -67.5s18.5 -61.5 18.5 -99.5c0 -16 -1.16699 -32.833 -3.5 -50.5s-7 -35.167 -14 -52.5s-16.833 -34 -29.5 -50
s-29.334 -30 -50.001 -42c-16.667 -10 -35 -17.833 -55 -23.5s-40.333 -9.83398 -61 -12.501s-41.167 -4.33398 -61.5 -5.00098s-39.5 -1 -57.5 -1h-191v-140h-252v707z" />
    <glyph glyph-name="germandbls" unicode="&#xdf;" horiz-adv-x="771" 
d="M49 450c0 18 0.505859 37.0049 1.50586 57.0049s4 39.667 9 59s13 38 24 56s26.5 34.333 46.5 49c14 10.667 30.333 19.5 49 26.5s38.334 12.5 59.001 16.5s42 6.83301 64 8.5s43.667 2.5 65 2.5c14.667 0 31.667 -0.5 51 -1.5s38.666 -2.5 57.999 -4.5
s38.166 -4.83301 56.499 -8.5s34.5 -8.5 48.5 -14.5c37.333 -15.333 63.166 -36 77.499 -62s21.5 -56 21.5 -90c0 -19.333 -2.33301 -36 -7 -50s-10.667 -25.667 -18 -35c-8 -11.333 -18.333 -20.833 -31 -28.5s-25.334 -13.167 -38.001 -16.5
c-4 -1.33301 -7.83301 -2.33301 -11.5 -3l-11.5 -2c4 0 8.16699 -0.166992 12.5 -0.5s8.5 -0.833008 12.5 -1.5c34 -4 61.833 -13.167 83.5 -27.5s38.5 -31 50.5 -50s20.167 -39 24.5 -60s6.5 -39.833 6.5 -56.5c0 -21.333 -3.16699 -45.333 -9.5 -72
s-19.166 -52 -38.499 -76l-18 -20c-8 -8.66699 -19.5 -17.334 -34.5 -26.001s-33.833 -16.167 -56.5 -22.5s-50.334 -9.5 -83.001 -9.5c-28 0 -55.167 2 -81.5 6s-52.833 8.66699 -79.5 14v127c10.667 -2.66699 21 -4.83398 31 -6.50098s20.667 -2.5 32 -2.5
c5.33301 0 12.666 0.666992 21.999 2s18.666 4.66602 27.999 9.99902c16.667 9.33301 27.834 22.833 33.501 40.5s8.5 35.5 8.5 53.5c0 14.667 -1 26.834 -3 36.501s-4.5 17.667 -7.5 24s-6 11.166 -9 14.499s-5.5 6 -7.5 8c-6 5.33301 -12.5 9.5 -19.5 12.5
s-15.333 5.16699 -25 6.5s-21.334 2.16602 -35.001 2.49902s-29.834 0.5 -48.501 0.5v108c12 0 24 0.333008 36 1s22.833 3.16699 32.5 7.5s17.667 11 24 20s9.5 21.833 9.5 38.5c0 8 -1 16.333 -3 25s-5.83301 16.667 -11.5 24s-13.834 13.333 -24.501 18s-24.667 7 -42 7
c-21.333 0 -37.666 -3.83301 -48.999 -11.5s-19.833 -17.334 -25.5 -29.001s-9 -24.667 -10 -39s-1.5 -28.5 -1.5 -42.5v-463h-238v450z" />
    <glyph glyph-name="agrave" unicode="&#xe0;" horiz-adv-x="792" 
d="M465 737l53 -138h-181l-139 138h267zM515 243c-10 -0.666992 -22.167 -1.33008 -36.5 -1.99707l-44.5 -2c-15.333 -0.666992 -30.166 -1.5 -44.499 -2.5l-36.5 -2.5c-8.66699 -0.666992 -18.5 -1.83398 -29.5 -3.50098s-21.5 -4.33398 -31.5 -8.00098s-18.333 -9 -25 -16
s-10 -16.5 -10 -28.5c0 -4 1 -9 3 -15s6 -11.833 12 -17.5s14.333 -10.5 25 -14.5s25 -6 43 -6c40.667 0 78 10 112 30c24 13.333 39.667 27.666 47 42.999s12.666 30.333 15.999 45zM41 364.004c1.33301 8.66699 3.3291 18.6699 5.99609 30.0029
s6.83398 23.166 12.501 35.499s13.5 24.5 23.5 36.5s23 23 39 33c25.333 15.333 60.5 27.333 105.5 36s98.833 13 161.5 13c53.333 0 103.5 -2.66699 150.5 -8s85.167 -15.333 114.5 -30c21.333 -10 37.833 -22.167 49.5 -36.5s20.167 -28.833 25.5 -43.5
s8.5 -28.834 9.5 -42.501s1.5 -24.834 1.5 -33.501v-277c0.666992 -20.667 2.83398 -36 6.50098 -46s11.167 -20.667 22.5 -32h-245c-3.33301 10.667 -5.33301 18.834 -6 24.501l-3 26.5l-51.5 -21.5c-19 -7.66699 -39.5 -14.834 -61.5 -21.501s-45.5 -12.167 -70.5 -16.5
s-51.5 -6.5 -79.5 -6.5c-30 0 -60 3.16699 -90 9.5s-57 18.833 -81 37.5c-20.667 15.333 -36.167 33.333 -46.5 54s-15.5 43.667 -15.5 69c0 15.333 2.33301 31.166 7 47.499s11.667 31.166 21 44.499c8.66699 11.333 20.667 22.333 36 33s34.666 19.667 57.999 27
c22 6.66699 48.333 12 79 16s62.667 7.16699 96 9.5s67 3.83301 101 4.5s65.333 1.33398 94 2.00098c0 7.33301 -0.5 14.5 -1.5 21.5s-4.5 14.167 -10.5 21.5c-2 2.66699 -5.16699 5.83398 -9.5 9.50098s-10.166 7 -17.499 10s-17.166 5.66699 -29.499 8
s-27.5 3.5 -45.5 3.5c-6 0 -16.667 -0.5 -32 -1.5s-29.666 -3.16699 -42.999 -6.5c-21.333 -5.33301 -34.833 -11.5 -40.5 -18.5s-10.167 -14.167 -13.5 -21.5h-227z" />
    <glyph glyph-name="aacute" unicode="&#xe1;" horiz-adv-x="792" 
d="M331 737h263l-136 -138h-177zM515 243c-10 -0.666992 -22.167 -1.33008 -36.5 -1.99707l-44.5 -2c-15.333 -0.666992 -30.166 -1.5 -44.499 -2.5l-36.5 -2.5c-8.66699 -0.666992 -18.5 -1.83398 -29.5 -3.50098s-21.5 -4.33398 -31.5 -8.00098s-18.333 -9 -25 -16
s-10 -16.5 -10 -28.5c0 -4 1 -9 3 -15s6 -11.833 12 -17.5s14.333 -10.5 25 -14.5s25 -6 43 -6c40.667 0 78 10 112 30c24 13.333 39.667 27.666 47 42.999s12.666 30.333 15.999 45zM41 364.004c1.33301 8.66699 3.3291 18.6699 5.99609 30.0029
s6.83398 23.166 12.501 35.499s13.5 24.5 23.5 36.5s23 23 39 33c25.333 15.333 60.5 27.333 105.5 36s98.833 13 161.5 13c53.333 0 103.5 -2.66699 150.5 -8s85.167 -15.333 114.5 -30c21.333 -10 37.833 -22.167 49.5 -36.5s20.167 -28.833 25.5 -43.5
s8.5 -28.834 9.5 -42.501s1.5 -24.834 1.5 -33.501v-277c0.666992 -20.667 2.83398 -36 6.50098 -46s11.167 -20.667 22.5 -32h-245c-3.33301 10.667 -5.33301 18.834 -6 24.501l-3 26.5l-51.5 -21.5c-19 -7.66699 -39.5 -14.834 -61.5 -21.501s-45.5 -12.167 -70.5 -16.5
s-51.5 -6.5 -79.5 -6.5c-30 0 -60 3.16699 -90 9.5s-57 18.833 -81 37.5c-20.667 15.333 -36.167 33.333 -46.5 54s-15.5 43.667 -15.5 69c0 15.333 2.33301 31.166 7 47.499s11.667 31.166 21 44.499c8.66699 11.333 20.667 22.333 36 33s34.666 19.667 57.999 27
c22 6.66699 48.333 12 79 16s62.667 7.16699 96 9.5s67 3.83301 101 4.5s65.333 1.33398 94 2.00098c0 7.33301 -0.5 14.5 -1.5 21.5s-4.5 14.167 -10.5 21.5c-2 2.66699 -5.16699 5.83398 -9.5 9.50098s-10.166 7 -17.499 10s-17.166 5.66699 -29.499 8
s-27.5 3.5 -45.5 3.5c-6 0 -16.667 -0.5 -32 -1.5s-29.666 -3.16699 -42.999 -6.5c-21.333 -5.33301 -34.833 -11.5 -40.5 -18.5s-10.167 -14.167 -13.5 -21.5h-227z" />
    <glyph glyph-name="acircumflex" unicode="&#xe2;" horiz-adv-x="792" 
d="M560 737l87 -123h-190l-60 82l-60 -82h-188l90 123h321zM515 243c-10 -0.666992 -22.167 -1.33008 -36.5 -1.99707l-44.5 -2c-15.333 -0.666992 -30.166 -1.5 -44.499 -2.5l-36.5 -2.5c-8.66699 -0.666992 -18.5 -1.83398 -29.5 -3.50098s-21.5 -4.33398 -31.5 -8.00098
s-18.333 -9 -25 -16s-10 -16.5 -10 -28.5c0 -4 1 -9 3 -15s6 -11.833 12 -17.5s14.333 -10.5 25 -14.5s25 -6 43 -6c40.667 0 78 10 112 30c24 13.333 39.667 27.666 47 42.999s12.666 30.333 15.999 45zM41 364.004c1.33301 8.66699 3.3291 18.6699 5.99609 30.0029
s6.83398 23.166 12.501 35.499s13.5 24.5 23.5 36.5s23 23 39 33c25.333 15.333 60.5 27.333 105.5 36s98.833 13 161.5 13c53.333 0 103.5 -2.66699 150.5 -8s85.167 -15.333 114.5 -30c21.333 -10 37.833 -22.167 49.5 -36.5s20.167 -28.833 25.5 -43.5
s8.5 -28.834 9.5 -42.501s1.5 -24.834 1.5 -33.501v-277c0.666992 -20.667 2.83398 -36 6.50098 -46s11.167 -20.667 22.5 -32h-245c-3.33301 10.667 -5.33301 18.834 -6 24.501l-3 26.5l-51.5 -21.5c-19 -7.66699 -39.5 -14.834 -61.5 -21.501s-45.5 -12.167 -70.5 -16.5
s-51.5 -6.5 -79.5 -6.5c-30 0 -60 3.16699 -90 9.5s-57 18.833 -81 37.5c-20.667 15.333 -36.167 33.333 -46.5 54s-15.5 43.667 -15.5 69c0 15.333 2.33301 31.166 7 47.499s11.667 31.166 21 44.499c8.66699 11.333 20.667 22.333 36 33s34.666 19.667 57.999 27
c22 6.66699 48.333 12 79 16s62.667 7.16699 96 9.5s67 3.83301 101 4.5s65.333 1.33398 94 2.00098c0 7.33301 -0.5 14.5 -1.5 21.5s-4.5 14.167 -10.5 21.5c-2 2.66699 -5.16699 5.83398 -9.5 9.50098s-10.166 7 -17.499 10s-17.166 5.66699 -29.499 8
s-27.5 3.5 -45.5 3.5c-6 0 -16.667 -0.5 -32 -1.5s-29.666 -3.16699 -42.999 -6.5c-21.333 -5.33301 -34.833 -11.5 -40.5 -18.5s-10.167 -14.167 -13.5 -21.5h-227z" />
    <glyph glyph-name="atilde" unicode="&#xe3;" horiz-adv-x="792" 
d="M131 590c3.33301 21.333 7.99512 40.998 13.9951 58.998s17.333 35 34 51c2.66699 2.66699 6.83398 6.5 12.501 11.5s13.334 9.83301 23.001 14.5s21.667 8.83398 36 12.501s31.166 5.5 50.499 5.5c14.667 0 28.334 -1.33301 41.001 -4l41 -9
c6 -1.33301 14.5 -3.33301 25.5 -6l34.5 -8c12 -2.66699 23.333 -5 34 -7s18 -3 22 -3c14.667 0 23.834 3.5 27.501 10.5s6.16699 12.833 7.5 17.5h127c-1.33301 -26.667 -6.83301 -49.5 -16.5 -68.5s-22 -34.667 -37 -47s-31.667 -21.5 -50 -27.5s-36.833 -9 -55.5 -9
c-13.333 0 -26.666 0.833008 -39.999 2.5s-26.666 3.83398 -39.999 6.50098c-27.333 6.66699 -48.666 11.667 -63.999 15l-35 7.5c-8 1.66699 -13.5 2.66699 -16.5 3s-5.83301 0.5 -8.5 0.5c-6 0 -13.333 -1.5 -22 -4.5s-14.334 -10.833 -17.001 -23.5h-128z
M514.995 242.998c-10 -0.666992 -22.167 -1.33008 -36.5 -1.99707l-44.5 -2c-15.333 -0.666992 -30.166 -1.5 -44.499 -2.5l-36.5 -2.5c-8.66699 -0.666992 -18.5 -1.83398 -29.5 -3.50098s-21.5 -4.33398 -31.5 -8.00098s-18.333 -9 -25 -16s-10 -16.5 -10 -28.5
c0 -4 1 -9 3 -15s6 -11.833 12 -17.5s14.333 -10.5 25 -14.5s25 -6 43 -6c40.667 0 78 10 112 30c24 13.333 39.667 27.666 47 42.999s12.666 30.333 15.999 45zM40.9951 364.002c1.33301 8.66699 3.3291 18.6699 5.99609 30.0029s6.83398 23.166 12.501 35.499
s13.5 24.5 23.5 36.5s23 23 39 33c25.333 15.333 60.5 27.333 105.5 36s98.833 13 161.5 13c53.333 0 103.5 -2.66699 150.5 -8s85.167 -15.333 114.5 -30c21.333 -10 37.833 -22.167 49.5 -36.5s20.167 -28.833 25.5 -43.5s8.5 -28.834 9.5 -42.501
s1.5 -24.834 1.5 -33.501v-277c0.666992 -20.667 2.83398 -36 6.50098 -46s11.167 -20.667 22.5 -32h-245c-3.33301 10.667 -5.33301 18.834 -6 24.501l-3 26.5l-51.5 -21.5c-19 -7.66699 -39.5 -14.834 -61.5 -21.501s-45.5 -12.167 -70.5 -16.5s-51.5 -6.5 -79.5 -6.5
c-30 0 -60 3.16699 -90 9.5s-57 18.833 -81 37.5c-20.667 15.333 -36.167 33.333 -46.5 54s-15.5 43.667 -15.5 69c0 15.333 2.33301 31.166 7 47.499s11.667 31.166 21 44.499c8.66699 11.333 20.667 22.333 36 33s34.666 19.667 57.999 27c22 6.66699 48.333 12 79 16
s62.667 7.16699 96 9.5s67 3.83301 101 4.5s65.333 1.33398 94 2.00098c0 7.33301 -0.5 14.5 -1.5 21.5s-4.5 14.167 -10.5 21.5c-2 2.66699 -5.16699 5.83398 -9.5 9.50098s-10.166 7 -17.499 10s-17.166 5.66699 -29.499 8s-27.5 3.5 -45.5 3.5
c-6 0 -16.667 -0.5 -32 -1.5s-29.666 -3.16699 -42.999 -6.5c-21.333 -5.33301 -34.833 -11.5 -40.5 -18.5s-10.167 -14.167 -13.5 -21.5h-227z" />
    <glyph glyph-name="adieresis" unicode="&#xe4;" horiz-adv-x="792" 
d="M464 741h207v-124h-207v124zM325 741v-124h-207v124h207zM515 243c-10 -0.666992 -22.167 -1.33008 -36.5 -1.99707l-44.5 -2c-15.333 -0.666992 -30.166 -1.5 -44.499 -2.5l-36.5 -2.5c-8.66699 -0.666992 -18.5 -1.83398 -29.5 -3.50098s-21.5 -4.33398 -31.5 -8.00098
s-18.333 -9 -25 -16s-10 -16.5 -10 -28.5c0 -4 1 -9 3 -15s6 -11.833 12 -17.5s14.333 -10.5 25 -14.5s25 -6 43 -6c40.667 0 78 10 112 30c24 13.333 39.667 27.666 47 42.999s12.666 30.333 15.999 45zM41 364.004c1.33301 8.66699 3.3291 18.6699 5.99609 30.0029
s6.83398 23.166 12.501 35.499s13.5 24.5 23.5 36.5s23 23 39 33c25.333 15.333 60.5 27.333 105.5 36s98.833 13 161.5 13c53.333 0 103.5 -2.66699 150.5 -8s85.167 -15.333 114.5 -30c21.333 -10 37.833 -22.167 49.5 -36.5s20.167 -28.833 25.5 -43.5
s8.5 -28.834 9.5 -42.501s1.5 -24.834 1.5 -33.501v-277c0.666992 -20.667 2.83398 -36 6.50098 -46s11.167 -20.667 22.5 -32h-245c-3.33301 10.667 -5.33301 18.834 -6 24.501l-3 26.5l-51.5 -21.5c-19 -7.66699 -39.5 -14.834 -61.5 -21.501s-45.5 -12.167 -70.5 -16.5
s-51.5 -6.5 -79.5 -6.5c-30 0 -60 3.16699 -90 9.5s-57 18.833 -81 37.5c-20.667 15.333 -36.167 33.333 -46.5 54s-15.5 43.667 -15.5 69c0 15.333 2.33301 31.166 7 47.499s11.667 31.166 21 44.499c8.66699 11.333 20.667 22.333 36 33s34.666 19.667 57.999 27
c22 6.66699 48.333 12 79 16s62.667 7.16699 96 9.5s67 3.83301 101 4.5s65.333 1.33398 94 2.00098c0 7.33301 -0.5 14.5 -1.5 21.5s-4.5 14.167 -10.5 21.5c-2 2.66699 -5.16699 5.83398 -9.5 9.50098s-10.166 7 -17.499 10s-17.166 5.66699 -29.499 8
s-27.5 3.5 -45.5 3.5c-6 0 -16.667 -0.5 -32 -1.5s-29.666 -3.16699 -42.999 -6.5c-21.333 -5.33301 -34.833 -11.5 -40.5 -18.5s-10.167 -14.167 -13.5 -21.5h-227z" />
    <glyph glyph-name="aring" unicode="&#xe5;" horiz-adv-x="792" 
d="M382 725c-19.333 -1.33301 -34.001 -6.33398 -44.001 -15.001s-15 -18 -15 -28c0 -13.333 6 -24.166 18 -32.499s27.333 -12.5 46 -12.5c17.333 0 33 3.5 47 10.5s21 18.5 21 34.5c0 8 -2.33301 14.833 -7 20.5s-10.667 10.167 -18 13.5s-15.166 5.83301 -23.499 7.5
s-16.5 2.16699 -24.5 1.5zM384.999 788.999c24.667 0.666992 46.332 -2.1709 64.999 -8.50391s34.167 -14.666 46.5 -24.999s21.5 -22.166 27.5 -35.499s9 -26.333 9 -39c0 -17.333 -3.83301 -32.666 -11.5 -45.999s-18.167 -24.666 -31.5 -33.999
s-28.833 -16.333 -46.5 -21s-36.5 -7 -56.5 -7c-21.333 0 -40.5 2.83301 -57.5 8.5s-31.5 13.5 -43.5 23.5s-21.167 21.667 -27.5 35s-9.5 27.333 -9.5 42c0 16 3.5 30.5 10.5 43.5s16.667 24.167 29 33.5s26.833 16.5 43.5 21.5s34.334 7.83301 53.001 8.5z
M514.997 242.994c-10 -0.666992 -22.167 -1.33008 -36.5 -1.99707l-44.5 -2c-15.333 -0.666992 -30.166 -1.5 -44.499 -2.5l-36.5 -2.5c-8.66699 -0.666992 -18.5 -1.83398 -29.5 -3.50098s-21.5 -4.33398 -31.5 -8.00098s-18.333 -9 -25 -16s-10 -16.5 -10 -28.5
c0 -4 1 -9 3 -15s6 -11.833 12 -17.5s14.333 -10.5 25 -14.5s25 -6 43 -6c40.667 0 78 10 112 30c24 13.333 39.667 27.666 47 42.999s12.666 30.333 15.999 45zM40.9971 363.998c1.33301 8.66699 3.3291 18.6699 5.99609 30.0029s6.83398 23.166 12.501 35.499
s13.5 24.5 23.5 36.5s23 23 39 33c25.333 15.333 60.5 27.333 105.5 36s98.833 13 161.5 13c53.333 0 103.5 -2.66699 150.5 -8s85.167 -15.333 114.5 -30c21.333 -10 37.833 -22.167 49.5 -36.5s20.167 -28.833 25.5 -43.5s8.5 -28.834 9.5 -42.501
s1.5 -24.834 1.5 -33.501v-277c0.666992 -20.667 2.83398 -36 6.50098 -46s11.167 -20.667 22.5 -32h-245c-3.33301 10.667 -5.33301 18.834 -6 24.501l-3 26.5l-51.5 -21.5c-19 -7.66699 -39.5 -14.834 -61.5 -21.501s-45.5 -12.167 -70.5 -16.5s-51.5 -6.5 -79.5 -6.5
c-30 0 -60 3.16699 -90 9.5s-57 18.833 -81 37.5c-20.667 15.333 -36.167 33.333 -46.5 54s-15.5 43.667 -15.5 69c0 15.333 2.33301 31.166 7 47.499s11.667 31.166 21 44.499c8.66699 11.333 20.667 22.333 36 33s34.666 19.667 57.999 27c22 6.66699 48.333 12 79 16
s62.667 7.16699 96 9.5s67 3.83301 101 4.5s65.333 1.33398 94 2.00098c0 7.33301 -0.5 14.5 -1.5 21.5s-4.5 14.167 -10.5 21.5c-2 2.66699 -5.16699 5.83398 -9.5 9.50098s-10.166 7 -17.499 10s-17.166 5.66699 -29.499 8s-27.5 3.5 -45.5 3.5
c-6 0 -16.667 -0.5 -32 -1.5s-29.666 -3.16699 -42.999 -6.5c-21.333 -5.33301 -34.833 -11.5 -40.5 -18.5s-10.167 -14.167 -13.5 -21.5h-227z" />
    <glyph glyph-name="ae" unicode="&#xe6;" horiz-adv-x="1125" 
d="M467 233c-34 -1.33301 -65.3311 -1.66992 -93.998 -1.00293s-53.334 -0.5 -74.001 -3.5s-36.834 -8.66699 -48.501 -17s-17.5 -21.833 -17.5 -40.5c0 -13.333 3.83301 -24.666 11.5 -33.999s17.834 -15.666 30.501 -18.999s27.5 -3.66602 44.5 -0.999023
s35.167 9 54.5 19c28 14.667 49.167 31.5 63.5 50.5s24.166 34.5 29.499 46.5zM893.002 323.996c-1.33301 4.66699 -3.83301 12.001 -7.5 22.001s-9.16699 19.667 -16.5 29s-16.833 17.666 -28.5 24.999s-26.167 11 -43.5 11c-19.333 0 -35.5 -3.33301 -48.5 -10
s-23.833 -14.5 -32.5 -23.5s-15.5 -18.5 -20.5 -28.5s-8.83301 -18.333 -11.5 -25h209zM677.002 227.997c8 -32 21.333 -57 40 -75s43.334 -27 74.001 -27c28 0 50.167 6.33301 66.5 19s27.5 25.334 33.5 38.001l215 -27c-4 -10 -11 -24.167 -21 -42.5
s-26.333 -37.166 -49 -56.499c-30 -25.333 -65.833 -43.833 -107.5 -55.5s-85.5 -17.5 -131.5 -17.5c-42.667 0 -79 3.66699 -109 11s-55.167 16.333 -75.5 27s-36.833 22 -49.5 34s-23 22.667 -31 32l-34 -30c-14 -12 -31.833 -23.5 -53.5 -34.5s-47.667 -20.333 -78 -28
s-66.5 -11.5 -108.5 -11.5c-20.667 0 -41.334 1.16699 -62.001 3.5s-40.5 6.66602 -59.5 12.999s-36.5 14.666 -52.5 24.999s-29.667 23.5 -41 39.5c-9.33301 16 -16.333 34 -21 54s-6 40 -4 60s8 39.167 18 57.5s25.667 33.5 47 45.5c16 10.667 33.333 19 52 25
s42 10.5 70 13.5s62.5 5.33301 103.5 7s91.833 3.16699 152.5 4.5c-0.666992 10 -2.66699 20.167 -6 30.5s-8.83301 19.666 -16.5 27.999s-18.334 15.5 -32.001 21.5s-31.5 9.33301 -53.5 10c-18 0 -32.5 -2.16699 -43.5 -6.5s-19.833 -9.5 -26.5 -15.5s-11.5 -12 -14.5 -18
s-5.16699 -11 -6.5 -15l-210 5c2 9.33301 4.66699 20.166 8 32.499s8.5 24.833 15.5 37.5s16.833 25.167 29.5 37.5s29 23.333 49 33s44.5 17.5 73.5 23.5s63.833 9 104.5 9c40 0 73 -2.16699 99 -6.5s48 -10 66 -17s33.167 -15.167 45.5 -24.5l36.5 -29
c9.33301 8.66699 20.5 17.834 33.5 27.501s28.333 18.5 46 26.5s38 14.667 61 20s49.167 8 78.5 8c32.667 0 61.834 -2.83301 87.501 -8.5s48 -12.834 67 -21.501s35.167 -18.167 48.5 -28.5s24.333 -20.166 33 -29.499c16.667 -18 29.5 -37.167 38.5 -57.5
s15.667 -40.666 20 -60.999s7 -40.333 8 -60s1.5 -38.167 1.5 -55.5h-425z" />
    <glyph glyph-name="ccedilla" unicode="&#xe7;" horiz-adv-x="812" 
d="M804 198c-2 -7.33301 -4.99805 -16.165 -8.99805 -26.498s-9.33301 -21.5 -16 -33.5s-15.167 -24.5 -25.5 -37.5s-23.166 -25.5 -38.499 -37.5c-22.667 -18 -47.167 -32.167 -73.5 -42.5s-52.333 -18.333 -78 -24s-50.167 -9.33398 -73.5 -11.001s-43.333 -2.5 -60 -2.5
l-18 -30c11.333 -3.33301 23.666 -7.5 36.999 -12.5s25.666 -14.167 36.999 -27.5c5.33301 -6.66699 10.166 -14.5 14.499 -23.5s6.5 -20.167 6.5 -33.5c0 -14.667 -3.5 -28.834 -10.5 -42.501s-17.5 -25.667 -31.5 -36s-31.167 -18.666 -51.5 -24.999
s-43.5 -9.5 -69.5 -9.5c-28 0 -51.5 2.83301 -70.5 8.5s-35.167 11.167 -48.5 16.5l22 55l33.5 -9.5c11 -3 24.167 -4.5 39.5 -4.5c22.667 0 39.167 3.83301 49.5 11.5s15.5 15.5 15.5 23.5c0 7.33301 -1.66699 13 -5 17s-7.33301 6.83301 -12 8.5s-9 2.66699 -13 3
s-6.66699 0.5 -8 0.5c-8.66699 0 -15.834 -1.33301 -21.501 -4s-11.167 -5.66699 -16.5 -9l-34 36l76 90c-63.333 4.66699 -116 16.5 -158 35.5s-75.5 41.667 -100.5 68s-42.667 54.833 -53 85.5s-15.5 60.334 -15.5 89.001c0 26.667 3.5 51.167 10.5 73.5s16 42.333 27 60
s22.667 33 35 46s24.166 23.5 35.499 31.5c20 15.333 41.833 28 65.5 38s48.334 18 74.001 24s52 10.333 79 13s53.833 4 80.5 4c66.667 0 125.834 -8.83301 177.501 -26.5s93.5 -42.834 125.5 -75.501c19.333 -19.333 32.666 -37 39.999 -53s13 -30 17 -42l-233 -21
c-4 12 -10.167 22.667 -18.5 32s-18.5 17.166 -30.5 23.499s-25 11.333 -39 15s-28.333 5.5 -43 5.5c-44 0 -80.167 -13 -108.5 -39s-42.5 -61 -42.5 -105c0 -42.667 13.667 -77.5 41 -104.5s65.333 -40.5 114 -40.5c13.333 0 28.5 1.66699 45.5 5s33.167 10 48.5 20
c14.667 9.33301 24.834 19 30.501 29s10.5 19.667 14.5 29z" />
    <glyph glyph-name="egrave" unicode="&#xe8;" horiz-adv-x="812" 
d="M475 737l53 -138h-181l-139 138h267zM548 324c-4 10 -8.16699 19.168 -12.5 27.501s-12.833 17.833 -25.5 28.5c-16 13.333 -33 21.666 -51 24.999s-33.333 5 -46 5c-25.333 0 -46 -3.33301 -62 -10s-29 -14.667 -39 -24s-17.5 -18.833 -22.5 -28.5
s-8.83301 -17.5 -11.5 -23.5h270zM270 232.001c4.66699 -23.333 12.8291 -42.334 24.4961 -57.001s24.667 -26.167 39 -34.5s29 -14 44 -17s28.167 -4.5 39.5 -4.5c14 0 27 1.5 39 4.5s22.333 6.16699 31 9.5c12.667 5.33301 22.167 10.5 28.5 15.5
s13.166 11.167 20.499 18.5l246 -12l-13 -22.5c-5.33301 -9 -12.166 -18.5 -20.499 -28.5s-19 -20.5 -32 -31.5s-28.5 -21.5 -46.5 -31.5c-23.333 -12.667 -48 -22.667 -74 -30s-51.167 -13 -75.5 -17s-46.666 -6.5 -66.999 -7.5s-36.166 -1.5 -47.499 -1.5
c-35.333 0 -70.166 2.5 -104.499 7.5s-67.833 14.167 -100.5 27.5c-25.333 10 -48.833 22.833 -70.5 38.5s-40.167 33.667 -55.5 54s-27.333 43.333 -36 69s-13 54.167 -13 85.5c0 35.333 5.33301 66.5 16 93.5s23 49.167 37 66.5c22.667 28.667 48.667 51 78 67
s59.333 27.667 90 35s60 11.833 88 13.5s52 2.5 72 2.5c26.667 0 54 -1.16699 82 -3.5s55.5 -7.16602 82.5 -14.499s52.833 -17.5 77.5 -30.5s47.334 -29.833 68.001 -50.5c18.667 -18.667 33.167 -37.5 43.5 -56.5s18 -37.833 23 -56.5s8.16699 -36.5 9.5 -53.5
s2.33301 -32.833 3 -47.5h-526z" />
    <glyph glyph-name="eacute" unicode="&#xe9;" horiz-adv-x="812" 
d="M341 737h263l-136 -138h-177zM548 324c-4 10 -8.16699 19.168 -12.5 27.501s-12.833 17.833 -25.5 28.5c-16 13.333 -33 21.666 -51 24.999s-33.333 5 -46 5c-25.333 0 -46 -3.33301 -62 -10s-29 -14.667 -39 -24s-17.5 -18.833 -22.5 -28.5s-8.83301 -17.5 -11.5 -23.5
h270zM270 232.001c4.66699 -23.333 12.8291 -42.334 24.4961 -57.001s24.667 -26.167 39 -34.5s29 -14 44 -17s28.167 -4.5 39.5 -4.5c14 0 27 1.5 39 4.5s22.333 6.16699 31 9.5c12.667 5.33301 22.167 10.5 28.5 15.5s13.166 11.167 20.499 18.5l246 -12l-13 -22.5
c-5.33301 -9 -12.166 -18.5 -20.499 -28.5s-19 -20.5 -32 -31.5s-28.5 -21.5 -46.5 -31.5c-23.333 -12.667 -48 -22.667 -74 -30s-51.167 -13 -75.5 -17s-46.666 -6.5 -66.999 -7.5s-36.166 -1.5 -47.499 -1.5c-35.333 0 -70.166 2.5 -104.499 7.5
s-67.833 14.167 -100.5 27.5c-25.333 10 -48.833 22.833 -70.5 38.5s-40.167 33.667 -55.5 54s-27.333 43.333 -36 69s-13 54.167 -13 85.5c0 35.333 5.33301 66.5 16 93.5s23 49.167 37 66.5c22.667 28.667 48.667 51 78 67s59.333 27.667 90 35s60 11.833 88 13.5
s52 2.5 72 2.5c26.667 0 54 -1.16699 82 -3.5s55.5 -7.16602 82.5 -14.499s52.833 -17.5 77.5 -30.5s47.334 -29.833 68.001 -50.5c18.667 -18.667 33.167 -37.5 43.5 -56.5s18 -37.833 23 -56.5s8.16699 -36.5 9.5 -53.5s2.33301 -32.833 3 -47.5h-526z" />
    <glyph glyph-name="ecircumflex" unicode="&#xea;" horiz-adv-x="812" 
d="M570 737l87 -123h-190l-60 82l-60 -82h-188l90 123h321zM548 324c-4 10 -8.16699 19.168 -12.5 27.501s-12.833 17.833 -25.5 28.5c-16 13.333 -33 21.666 -51 24.999s-33.333 5 -46 5c-25.333 0 -46 -3.33301 -62 -10s-29 -14.667 -39 -24s-17.5 -18.833 -22.5 -28.5
s-8.83301 -17.5 -11.5 -23.5h270zM270 232.001c4.66699 -23.333 12.8291 -42.334 24.4961 -57.001s24.667 -26.167 39 -34.5s29 -14 44 -17s28.167 -4.5 39.5 -4.5c14 0 27 1.5 39 4.5s22.333 6.16699 31 9.5c12.667 5.33301 22.167 10.5 28.5 15.5
s13.166 11.167 20.499 18.5l246 -12l-13 -22.5c-5.33301 -9 -12.166 -18.5 -20.499 -28.5s-19 -20.5 -32 -31.5s-28.5 -21.5 -46.5 -31.5c-23.333 -12.667 -48 -22.667 -74 -30s-51.167 -13 -75.5 -17s-46.666 -6.5 -66.999 -7.5s-36.166 -1.5 -47.499 -1.5
c-35.333 0 -70.166 2.5 -104.499 7.5s-67.833 14.167 -100.5 27.5c-25.333 10 -48.833 22.833 -70.5 38.5s-40.167 33.667 -55.5 54s-27.333 43.333 -36 69s-13 54.167 -13 85.5c0 35.333 5.33301 66.5 16 93.5s23 49.167 37 66.5c22.667 28.667 48.667 51 78 67
s59.333 27.667 90 35s60 11.833 88 13.5s52 2.5 72 2.5c26.667 0 54 -1.16699 82 -3.5s55.5 -7.16602 82.5 -14.499s52.833 -17.5 77.5 -30.5s47.334 -29.833 68.001 -50.5c18.667 -18.667 33.167 -37.5 43.5 -56.5s18 -37.833 23 -56.5s8.16699 -36.5 9.5 -53.5
s2.33301 -32.833 3 -47.5h-526z" />
    <glyph glyph-name="edieresis" unicode="&#xeb;" horiz-adv-x="812" 
d="M477 738h207v-124h-207v124zM338 738v-124h-207v124h207zM548 324c-4 10 -8.16699 19.168 -12.5 27.501s-12.833 17.833 -25.5 28.5c-16 13.333 -33 21.666 -51 24.999s-33.333 5 -46 5c-25.333 0 -46 -3.33301 -62 -10s-29 -14.667 -39 -24s-17.5 -18.833 -22.5 -28.5
s-8.83301 -17.5 -11.5 -23.5h270zM270 232.001c4.66699 -23.333 12.8291 -42.334 24.4961 -57.001s24.667 -26.167 39 -34.5s29 -14 44 -17s28.167 -4.5 39.5 -4.5c14 0 27 1.5 39 4.5s22.333 6.16699 31 9.5c12.667 5.33301 22.167 10.5 28.5 15.5
s13.166 11.167 20.499 18.5l246 -12l-13 -22.5c-5.33301 -9 -12.166 -18.5 -20.499 -28.5s-19 -20.5 -32 -31.5s-28.5 -21.5 -46.5 -31.5c-23.333 -12.667 -48 -22.667 -74 -30s-51.167 -13 -75.5 -17s-46.666 -6.5 -66.999 -7.5s-36.166 -1.5 -47.499 -1.5
c-35.333 0 -70.166 2.5 -104.499 7.5s-67.833 14.167 -100.5 27.5c-25.333 10 -48.833 22.833 -70.5 38.5s-40.167 33.667 -55.5 54s-27.333 43.333 -36 69s-13 54.167 -13 85.5c0 35.333 5.33301 66.5 16 93.5s23 49.167 37 66.5c22.667 28.667 48.667 51 78 67
s59.333 27.667 90 35s60 11.833 88 13.5s52 2.5 72 2.5c26.667 0 54 -1.16699 82 -3.5s55.5 -7.16602 82.5 -14.499s52.833 -17.5 77.5 -30.5s47.334 -29.833 68.001 -50.5c18.667 -18.667 33.167 -37.5 43.5 -56.5s18 -37.833 23 -56.5s8.16699 -36.5 9.5 -53.5
s2.33301 -32.833 3 -47.5h-526z" />
    <glyph glyph-name="igrave" unicode="&#xec;" horiz-adv-x="333" 
d="M235 737l53 -138h-181l-139 138h267zM49 530h234v-530h-234v530z" />
    <glyph glyph-name="iacute" unicode="&#xed;" horiz-adv-x="333" 
d="M101 737h263l-136 -138h-177zM49 530h234v-530h-234v530z" />
    <glyph glyph-name="icircumflex" unicode="&#xee;" horiz-adv-x="333" 
d="M330 737l87 -123h-190l-60 82l-60 -82h-188l90 123h321zM49 530h234v-530h-234v530z" />
    <glyph glyph-name="idieresis" unicode="&#xef;" horiz-adv-x="333" 
d="M237 738h207v-124h-207v124zM98 738v-124h-207v124h207zM49 530h234v-530h-234v530z" />
    <glyph glyph-name="eth" unicode="&#xf0;" horiz-adv-x="833" 
d="M407 405c-26.667 -0.666992 -48.8301 -5.49707 -66.4971 -14.4971s-31.834 -20 -42.501 -33s-18.167 -27.333 -22.5 -43s-6.5 -30.834 -6.5 -45.501c0 -27.333 4.66699 -49.833 14 -67.5s21.333 -32 36 -43s31.167 -18.667 49.5 -23s36.166 -6.5 53.499 -6.5
s34.666 2.66699 51.999 8s32.833 13.666 46.5 24.999s24.667 25.5 33 42.5s12.5 37.5 12.5 61.5c0 19.333 -3.16699 37.833 -9.5 55.5s-16.5 33.167 -30.5 46.5c-16 14.667 -34.5 24.667 -55.5 30s-42.167 7.66602 -63.5 6.99902zM657.004 625.003l37.999 -42.9941
c10.667 -12.667 22.667 -28.334 36 -47.001c24 -36 43.167 -74.333 57.5 -115s21.5 -82.667 21.5 -126c0 -32.667 -3.66699 -61.334 -11 -86.001s-16.166 -45.834 -26.499 -63.501s-21 -32.334 -32 -44.001s-20.5 -20.834 -28.5 -27.501c-7.33301 -6 -17.833 -14 -31.5 -24
s-31.834 -19.667 -54.501 -29s-50.834 -17.333 -84.501 -24s-74.5 -10 -122.5 -10c-13.333 0 -26.333 0.333008 -39 1s-25.667 1.66699 -39 3c-57.333 6 -106.166 17.5 -146.499 34.5s-73 38 -98 63s-43.167 52.667 -54.5 83s-17 61.833 -17 94.5c0 50 11 92.667 33 128
s50.333 64.166 85 86.499s72.667 38.833 114 49.5s81.666 16 120.999 16c24.667 0 45.834 -1.5 63.501 -4.5s34.167 -7.5 49.5 -13.5c6 -2 11.833 -4.16699 17.5 -6.5s11.167 -4.83301 16.5 -7.5c0 0.666992 -1.66699 3.33398 -5 8.00098l-11 15l-12 15.5
c-4 5 -6.66699 8.16699 -8 9.5c-6 7.33301 -12 14.166 -18 20.499s-12.333 12.5 -19 18.5l-206 -25l-23 62l164 20c-7.33301 6.66699 -14.666 13 -21.999 19s-20 15.667 -38 29l215 25l31.5 -26c9.66699 -8 17.5 -15 23.5 -21l125 16l29 -63z" />
    <glyph glyph-name="ntilde" unicode="&#xf1;" horiz-adv-x="812" 
d="M141 590c3.33301 21.333 7.99512 40.998 13.9951 58.998s17.333 35 34 51c2.66699 2.66699 6.83398 6.5 12.501 11.5s13.334 9.83301 23.001 14.5s21.667 8.83398 36 12.501s31.166 5.5 50.499 5.5c14.667 0 28.334 -1.33301 41.001 -4l41 -9
c6 -1.33301 14.5 -3.33301 25.5 -6l34.5 -8c12 -2.66699 23.333 -5 34 -7s18 -3 22 -3c14.667 0 23.834 3.5 27.501 10.5s6.16699 12.833 7.5 17.5h127c-1.33301 -26.667 -6.83301 -49.5 -16.5 -68.5s-22 -34.667 -37 -47s-31.667 -21.5 -50 -27.5s-36.833 -9 -55.5 -9
c-13.333 0 -26.666 0.833008 -39.999 2.5s-26.666 3.83398 -39.999 6.50098c-27.333 6.66699 -48.666 11.667 -63.999 15l-35 7.5c-8 1.66699 -13.5 2.66699 -16.5 3s-5.83301 0.5 -8.5 0.5c-6 0 -13.333 -1.5 -22 -4.5s-14.334 -10.833 -17.001 -23.5h-128z
M286.995 462.998c14.667 10.667 29.667 20.666 45 29.999s32.166 17.5 50.499 24.5s38.5 12.5 60.5 16.5s46.667 6 74 6c36 0 66.667 -2.83301 92 -8.5s49 -15.167 71 -28.5c20.667 -12 36.834 -25.5 48.501 -40.5s20.334 -31.667 26.001 -50s9.16699 -38.666 10.5 -60.999
s2 -46.5 2 -72.5v-279h-237v242c0 17.333 -0.5 31.166 -1.5 41.499s-2.5 19.166 -4.5 26.499c-4 15.333 -10.167 28 -18.5 38s-17.833 18 -28.5 24s-21.834 10.333 -33.501 13s-22.834 4 -33.501 4c-14.667 0 -28.667 -1.83301 -42 -5.5s-25.666 -10.167 -36.999 -19.5
c-21.333 -17.333 -34 -37.166 -38 -59.499s-6 -45.166 -6 -68.499v-236h-238v530h238v-67z" />
    <glyph glyph-name="ograve" unicode="&#xf2;" horiz-adv-x="833" 
d="M485 737l53 -138h-181l-139 138h267zM407 405c-26.667 -0.666992 -48.8311 -5.5 -66.498 -14.5s-31.834 -20 -42.501 -33s-18.167 -27.5 -22.5 -43.5s-6.5 -31.333 -6.5 -46c0 -26.667 4.66699 -49 14 -67s21.333 -32.333 36 -43s31.167 -18.167 49.5 -22.5
s36.166 -6.5 53.499 -6.5c12 0 26.167 1.83301 42.5 5.5s32 10.667 47 21s27.833 24.5 38.5 42.5s16 41.333 16 70c0 44 -14 78.167 -42 102.5s-67 35.833 -117 34.5zM400.003 544c78 0.666992 143.168 -7 195.501 -23s94.333 -37.333 126 -64s54.167 -56.834 67.5 -90.501
s20 -67.167 20 -100.5c0 -46.667 -10.167 -87.5 -30.5 -122.5s-48.166 -64.167 -83.499 -87.5s-76.833 -40.833 -124.5 -52.5s-98.834 -17.5 -153.501 -17.5c-46.667 0 -93.334 4.66699 -140.001 14s-88.667 25 -126 47s-67.666 50.667 -90.999 86s-35 79 -35 131
c0 50 10.667 92.5 32 127.5s49.666 63.667 84.999 86s75.333 38.833 120 49.5s90.667 16.334 138 17.001z" />
    <glyph glyph-name="oacute" unicode="&#xf3;" horiz-adv-x="833" 
d="M351 737h263l-136 -138h-177zM407 405c-26.667 -0.666992 -48.8311 -5.5 -66.498 -14.5s-31.834 -20 -42.501 -33s-18.167 -27.5 -22.5 -43.5s-6.5 -31.333 -6.5 -46c0 -26.667 4.66699 -49 14 -67s21.333 -32.333 36 -43s31.167 -18.167 49.5 -22.5
s36.166 -6.5 53.499 -6.5c12 0 26.167 1.83301 42.5 5.5s32 10.667 47 21s27.833 24.5 38.5 42.5s16 41.333 16 70c0 44 -14 78.167 -42 102.5s-67 35.833 -117 34.5zM400.003 544c78 0.666992 143.168 -7 195.501 -23s94.333 -37.333 126 -64s54.167 -56.834 67.5 -90.501
s20 -67.167 20 -100.5c0 -46.667 -10.167 -87.5 -30.5 -122.5s-48.166 -64.167 -83.499 -87.5s-76.833 -40.833 -124.5 -52.5s-98.834 -17.5 -153.501 -17.5c-46.667 0 -93.334 4.66699 -140.001 14s-88.667 25 -126 47s-67.666 50.667 -90.999 86s-35 79 -35 131
c0 50 10.667 92.5 32 127.5s49.666 63.667 84.999 86s75.333 38.833 120 49.5s90.667 16.334 138 17.001z" />
    <glyph glyph-name="ocircumflex" unicode="&#xf4;" horiz-adv-x="833" 
d="M580 737l87 -123h-190l-60 82l-60 -82h-188l90 123h321zM407 405c-26.667 -0.666992 -48.8311 -5.5 -66.498 -14.5s-31.834 -20 -42.501 -33s-18.167 -27.5 -22.5 -43.5s-6.5 -31.333 -6.5 -46c0 -26.667 4.66699 -49 14 -67s21.333 -32.333 36 -43
s31.167 -18.167 49.5 -22.5s36.166 -6.5 53.499 -6.5c12 0 26.167 1.83301 42.5 5.5s32 10.667 47 21s27.833 24.5 38.5 42.5s16 41.333 16 70c0 44 -14 78.167 -42 102.5s-67 35.833 -117 34.5zM400.003 544c78 0.666992 143.168 -7 195.501 -23s94.333 -37.333 126 -64
s54.167 -56.834 67.5 -90.501s20 -67.167 20 -100.5c0 -46.667 -10.167 -87.5 -30.5 -122.5s-48.166 -64.167 -83.499 -87.5s-76.833 -40.833 -124.5 -52.5s-98.834 -17.5 -153.501 -17.5c-46.667 0 -93.334 4.66699 -140.001 14s-88.667 25 -126 47
s-67.666 50.667 -90.999 86s-35 79 -35 131c0 50 10.667 92.5 32 127.5s49.666 63.667 84.999 86s75.333 38.833 120 49.5s90.667 16.334 138 17.001z" />
    <glyph glyph-name="otilde" unicode="&#xf5;" horiz-adv-x="833" 
d="M151 590c3.33301 21.333 7.99512 40.998 13.9951 58.998s17.333 35 34 51c2.66699 2.66699 6.83398 6.5 12.501 11.5s13.334 9.83301 23.001 14.5s21.667 8.83398 36 12.501s31.166 5.5 50.499 5.5c14.667 0 28.334 -1.33301 41.001 -4l41 -9
c6 -1.33301 14.5 -3.33301 25.5 -6l34.5 -8c12 -2.66699 23.333 -5 34 -7s18 -3 22 -3c14.667 0 23.834 3.5 27.501 10.5s6.16699 12.833 7.5 17.5h127c-1.33301 -26.667 -6.83301 -49.5 -16.5 -68.5s-22 -34.667 -37 -47s-31.667 -21.5 -50 -27.5s-36.833 -9 -55.5 -9
c-13.333 0 -26.666 0.833008 -39.999 2.5s-26.666 3.83398 -39.999 6.50098c-27.333 6.66699 -48.666 11.667 -63.999 15l-35 7.5c-8 1.66699 -13.5 2.66699 -16.5 3s-5.83301 0.5 -8.5 0.5c-6 0 -13.333 -1.5 -22 -4.5s-14.334 -10.833 -17.001 -23.5h-128z
M406.995 404.998c-26.667 -0.666992 -48.8311 -5.5 -66.498 -14.5s-31.834 -20 -42.501 -33s-18.167 -27.5 -22.5 -43.5s-6.5 -31.333 -6.5 -46c0 -26.667 4.66699 -49 14 -67s21.333 -32.333 36 -43s31.167 -18.167 49.5 -22.5s36.166 -6.5 53.499 -6.5
c12 0 26.167 1.83301 42.5 5.5s32 10.667 47 21s27.833 24.5 38.5 42.5s16 41.333 16 70c0 44 -14 78.167 -42 102.5s-67 35.833 -117 34.5zM399.998 543.998c78 0.666992 143.168 -7 195.501 -23s94.333 -37.333 126 -64s54.167 -56.834 67.5 -90.501s20 -67.167 20 -100.5
c0 -46.667 -10.167 -87.5 -30.5 -122.5s-48.166 -64.167 -83.499 -87.5s-76.833 -40.833 -124.5 -52.5s-98.834 -17.5 -153.501 -17.5c-46.667 0 -93.334 4.66699 -140.001 14s-88.667 25 -126 47s-67.666 50.667 -90.999 86s-35 79 -35 131c0 50 10.667 92.5 32 127.5
s49.666 63.667 84.999 86s75.333 38.833 120 49.5s90.667 16.334 138 17.001z" />
    <glyph glyph-name="odieresis" unicode="&#xf6;" horiz-adv-x="833" 
d="M485 738h207v-124h-207v124zM346 738v-124h-207v124h207zM407 405c-26.667 -0.666992 -48.8311 -5.5 -66.498 -14.5s-31.834 -20 -42.501 -33s-18.167 -27.5 -22.5 -43.5s-6.5 -31.333 -6.5 -46c0 -26.667 4.66699 -49 14 -67s21.333 -32.333 36 -43
s31.167 -18.167 49.5 -22.5s36.166 -6.5 53.499 -6.5c12 0 26.167 1.83301 42.5 5.5s32 10.667 47 21s27.833 24.5 38.5 42.5s16 41.333 16 70c0 44 -14 78.167 -42 102.5s-67 35.833 -117 34.5zM400.003 544c78 0.666992 143.168 -7 195.501 -23s94.333 -37.333 126 -64
s54.167 -56.834 67.5 -90.501s20 -67.167 20 -100.5c0 -46.667 -10.167 -87.5 -30.5 -122.5s-48.166 -64.167 -83.499 -87.5s-76.833 -40.833 -124.5 -52.5s-98.834 -17.5 -153.501 -17.5c-46.667 0 -93.334 4.66699 -140.001 14s-88.667 25 -126 47
s-67.666 50.667 -90.999 86s-35 79 -35 131c0 50 10.667 92.5 32 127.5s49.666 63.667 84.999 86s75.333 38.833 120 49.5s90.667 16.334 138 17.001z" />
    <glyph glyph-name="divide" unicode="&#xf7;" horiz-adv-x="667" 
d="M667 227h-666v127h666v-127zM414 469c0 -20.667 -7.16895 -39.1641 -21.502 -55.4971s-34.166 -24.5 -59.499 -24.5c-21.333 0 -40 7.33301 -56 22s-24 34 -24 58c0 21.333 7.33301 40.166 22 56.499s34.334 24.5 59.001 24.5c11.333 0 22 -2.16699 32 -6.5
s18.5 -10.333 25.5 -18s12.5 -16.334 16.5 -26.001s6 -19.834 6 -30.501zM413.998 111.003c0 -20.667 -7.16699 -39.1641 -21.5 -55.4971s-33.833 -24.5 -58.5 -24.5c-22.667 0 -41.834 7.5 -57.501 22.5s-23.5 34.167 -23.5 57.5c0 21.333 7.33301 40.166 22 56.499
s34.334 24.5 59.001 24.5c11.333 0 22 -2.16699 32 -6.5s18.5 -10.333 25.5 -18s12.5 -16.334 16.5 -26.001s6 -19.834 6 -30.501z" />
    <glyph glyph-name="oslash" unicode="&#xf8;" horiz-adv-x="833" 
d="M308 161c8.66699 -6 21 -12.832 37 -20.499s40.333 -11.5 73 -11.5c16 0 33.167 2 51.5 6s35.5 11.333 51.5 22s29.167 24.667 39.5 42s15.5 39.666 15.5 66.999c0 17.333 -1.83301 31 -5.5 41s-7.16699 18.667 -10.5 26zM523 376.001
c-7.33301 5.33301 -19.168 11.5 -35.501 18.5s-40.166 10.5 -71.499 10.5c-48 0 -86.5 -10.833 -115.5 -32.5s-43.5 -55.5 -43.5 -101.5c0 -14.667 1.5 -27 4.5 -37s7.16699 -20.333 12.5 -31zM98.998 84.001c-6.66699 6.66699 -14.3389 14.999 -23.0059 24.999
s-16.667 22.333 -24 37s-13.666 31.834 -18.999 51.501s-8 42.834 -8 69.501c0 28 4 55.167 12 81.5s20.667 50.5 38 72.5c18 23.333 39.167 43 63.5 59s51 28.833 80 38.5s59.833 16.667 92.5 21s66.667 6.5 102 6.5c44.667 0 86 -3.33301 124 -10s68.667 -14.667 92 -24
c12 -4.66699 22.333 -9.16699 31 -13.5l24 -12.5l79 54l31 -44l-64 -44l23 -26.5c8.66699 -10.333 17 -22.833 25 -37.5s14.833 -31.834 20.5 -51.501s8.5 -42.167 8.5 -67.5c0 -30.667 -3.66699 -57.334 -11 -80.001s-16.166 -42 -26.499 -58
s-21.166 -29.167 -32.499 -39.5s-20.666 -18.5 -27.999 -24.5c-13.333 -10 -28.666 -19.667 -45.999 -29s-37.666 -17.666 -60.999 -24.999s-50 -13.166 -80 -17.499s-64 -6.5 -102 -6.5c-6 0 -15.667 0.166992 -29 0.5s-28.166 1.16602 -44.499 2.49902
s-33.833 3.16602 -52.5 5.49902s-36.334 5.83301 -53.001 10.5c-21.333 5.33301 -38.833 11.333 -52.5 18s-28.167 14.334 -43.5 23.001l-79 -54l-30 45z" />
    <glyph glyph-name="ugrave" unicode="&#xf9;" horiz-adv-x="812" 
d="M465 737l53 -138h-181l-139 138h267zM50 529l236.998 -0.000976562v-263c0 -15.333 1.16699 -31.333 3.5 -48s10.833 -32 25.5 -46c12 -11.333 26.333 -19.166 43 -23.499s31.667 -6.5 45 -6.5c16 0 32.833 2.66699 50.5 8s32.167 14.666 43.5 27.999
c14 15.333 22.333 32.5 25 51.5s4.33398 35.833 5.00098 50.5v249h236v-529h-230v72l-29 -23.5c-12 -9.66699 -27.333 -19 -46 -28s-41 -16.667 -67 -23s-56.667 -9.5 -92 -9.5c-17.333 0 -34.333 1 -51 3s-33 5.33301 -49 10c-36.667 10.667 -65.167 25.667 -85.5 45
s-35.166 39.333 -44.499 60s-15 40.334 -17 59.001s-3 33 -3 43v321z" />
    <glyph glyph-name="uacute" unicode="&#xfa;" horiz-adv-x="812" 
d="M357 737h263l-136 -138h-177zM50 529l236.998 -0.000976562v-263c0 -15.333 1.16699 -31.333 3.5 -48s10.833 -32 25.5 -46c12 -11.333 26.333 -19.166 43 -23.499s31.667 -6.5 45 -6.5c16 0 32.833 2.66699 50.5 8s32.167 14.666 43.5 27.999
c14 15.333 22.333 32.5 25 51.5s4.33398 35.833 5.00098 50.5v249h236v-529h-230v72l-29 -23.5c-12 -9.66699 -27.333 -19 -46 -28s-41 -16.667 -67 -23s-56.667 -9.5 -92 -9.5c-17.333 0 -34.333 1 -51 3s-33 5.33301 -49 10c-36.667 10.667 -65.167 25.667 -85.5 45
s-35.166 39.333 -44.499 60s-15 40.334 -17 59.001s-3 33 -3 43v321z" />
    <glyph glyph-name="ucircumflex" unicode="&#xfb;" horiz-adv-x="812" 
d="M570 737l87 -123h-190l-60 82l-60 -82h-188l90 123h321zM50 529l236.998 -0.000976562v-263c0 -15.333 1.16699 -31.333 3.5 -48s10.833 -32 25.5 -46c12 -11.333 26.333 -19.166 43 -23.499s31.667 -6.5 45 -6.5c16 0 32.833 2.66699 50.5 8s32.167 14.666 43.5 27.999
c14 15.333 22.333 32.5 25 51.5s4.33398 35.833 5.00098 50.5v249h236v-529h-230v72l-29 -23.5c-12 -9.66699 -27.333 -19 -46 -28s-41 -16.667 -67 -23s-56.667 -9.5 -92 -9.5c-17.333 0 -34.333 1 -51 3s-33 5.33301 -49 10c-36.667 10.667 -65.167 25.667 -85.5 45
s-35.166 39.333 -44.499 60s-15 40.334 -17 59.001s-3 33 -3 43v321z" />
    <glyph glyph-name="udieresis" unicode="&#xfc;" horiz-adv-x="812" 
d="M476 737h207v-124h-207v124zM337 737v-124h-207v124h207zM50 529l236.998 -0.000976562v-263c0 -15.333 1.16699 -31.333 3.5 -48s10.833 -32 25.5 -46c12 -11.333 26.333 -19.166 43 -23.499s31.667 -6.5 45 -6.5c16 0 32.833 2.66699 50.5 8s32.167 14.666 43.5 27.999
c14 15.333 22.333 32.5 25 51.5s4.33398 35.833 5.00098 50.5v249h236v-529h-230v72l-29 -23.5c-12 -9.66699 -27.333 -19 -46 -28s-41 -16.667 -67 -23s-56.667 -9.5 -92 -9.5c-17.333 0 -34.333 1 -51 3s-33 5.33301 -49 10c-36.667 10.667 -65.167 25.667 -85.5 45
s-35.166 39.333 -44.499 60s-15 40.334 -17 59.001s-3 33 -3 43v321z" />
    <glyph glyph-name="yacute" unicode="&#xfd;" horiz-adv-x="708" 
d="M305 737h263l-136 -138h-177zM-3 530l257.003 0.00195312l47 -141c8 -24 14.5 -44.167 19.5 -60.5s9.16699 -31.833 12.5 -46.5s6.5 -30 9.5 -46l10.5 -58l8.5 48c2.33301 13.333 5 26 8 38s6.33301 24.667 10 38s8.5 29.666 14.5 48.999l60 179h259l-251 -550
c-13.333 -27.333 -27.5 -53 -42.5 -77s-37.167 -44.333 -66.5 -61c-10.667 -6 -20.834 -10.667 -30.501 -14s-20.334 -5.83301 -32.001 -7.5s-24.834 -2.83398 -39.501 -3.50098s-32 -1 -52 -1h-124v150h109c12 0 23 2 33 6s15 12.333 15 25
c0 5.33301 -1.16699 10.833 -3.5 16.5s-4.5 11.167 -6.5 16.5z" />
    <glyph glyph-name="thorn" unicode="&#xfe;" horiz-adv-x="792" 
d="M399 383c-24 -1.33301 -43.667 -6.33398 -59 -15.001s-27.333 -19 -36 -31s-14.5 -24.5 -17.5 -37.5s-4.5 -24.5 -4.5 -34.5c0 -16 2.83301 -31.167 8.5 -45.5s13.667 -27.166 24 -38.499s23.166 -20.333 38.499 -27s33 -10 53 -10s37.5 3.33301 52.5 10
s27.5 15.5 37.5 26.5s17.667 23.833 23 38.5s8 30 8 46c0 14 -2.33301 28.333 -7 43s-12 27.667 -22 39s-23.167 20.5 -39.5 27.5s-36.166 9.83301 -59.499 8.5zM282 476.999l24.9971 19.5029c10 7.66699 22.667 15 38 22s33.666 12.833 54.999 17.5s46 7 74 7
c36.667 0 72.334 -5.5 107.001 -16.5s65.667 -28.167 93 -51.5s49.333 -52.833 66 -88.5s25 -77.834 25 -126.501c0 -40.667 -6.83301 -78.167 -20.5 -112.5s-33.167 -63.833 -58.5 -88.5s-55.833 -43.834 -91.5 -57.501s-75.5 -20.5 -119.5 -20.5
c-25.333 0 -47.666 2 -66.999 6s-36.666 9 -51.999 15s-29.166 12.667 -41.499 20s-23.5 14.666 -33.5 21.999v-230h-233v893h234v-225v-5z" />
    <glyph glyph-name="ydieresis" unicode="&#xff;" horiz-adv-x="708" 
d="M425 738h207v-124h-207v124zM286 738v-124h-207v124h207zM-3 530l257.003 0.00195312l47 -141c8 -24 14.5 -44.167 19.5 -60.5s9.16699 -31.833 12.5 -46.5s6.5 -30 9.5 -46l10.5 -58l8.5 48c2.33301 13.333 5 26 8 38s6.33301 24.667 10 38s8.5 29.666 14.5 48.999
l60 179h259l-251 -550c-13.333 -27.333 -27.5 -53 -42.5 -77s-37.167 -44.333 -66.5 -61c-10.667 -6 -20.834 -10.667 -30.501 -14s-20.334 -5.83301 -32.001 -7.5s-24.834 -2.83398 -39.501 -3.50098s-32 -1 -52 -1h-124v150h109c12 0 23 2 33 6s15 12.333 15 25
c0 5.33301 -1.16699 10.833 -3.5 16.5s-4.5 11.167 -6.5 16.5z" />
    <glyph glyph-name="dotlessi" unicode="&#x131;" horiz-adv-x="333" 
d="M49 530h234v-530h-234v530z" />
    <glyph glyph-name="Lslash" unicode="&#x141;" horiz-adv-x="688" 
d="M314 441l266 113v-125l-266 -114v-143h360v-172h-614v206l-60 -26v127l60 26v373h254v-265z" />
    <glyph glyph-name="lslash" unicode="&#x142;" horiz-adv-x="333" 
d="M285 487l48 25v-107l-48 -26v-379h-237v255l-48 -25v107l48 25v344h237v-219z" />
    <glyph glyph-name="OE" unicode="&#x152;" horiz-adv-x="1125" 
d="M542 515c-33.333 34 -74.666 50.999 -123.999 50.999c-30 0 -56.333 -6 -79 -18s-41.667 -28 -57 -48s-26.833 -43.5 -34.5 -70.5s-11.5 -55.5 -11.5 -85.5c0 -39.333 5.5 -72.166 16.5 -98.499s25 -47.5 42 -63.5s35.333 -27.333 55 -34s38.5 -10 56.5 -10
c11.333 0 26.666 1.66699 45.999 5s37.333 9.66602 54 18.999c8.66699 4.66699 15.667 9.33398 21 14.001s10.333 9.66699 15 15v324zM541 30.999c-21.333 -10.667 -41.666 -19.168 -60.999 -25.501s-37.5 -11.166 -54.5 -14.499s-32.167 -5.5 -45.5 -6.5s-24 -1.5 -32 -1.5
c-45.333 0 -87.333 8.5 -126 25.5s-72.5 41.167 -101.5 72.5s-51.667 69.5 -68 114.5s-24.5 95.5 -24.5 151.5c0 60 9.33301 113.333 28 160s43.667 86.167 75 118.5s67.666 57 108.999 74s85 25.5 131 25.5c22 0 42.167 -1.66699 60.5 -5s34.666 -7.5 48.999 -12.5
s26.833 -10.167 37.5 -15.5s19.334 -10 26.001 -14v28h554v-159h-325v-115h285v-160h-287v-112h333v-160h-563v31z" />
    <glyph glyph-name="oe" unicode="&#x153;" horiz-adv-x="1125" 
d="M346 405c-11.333 0 -23.166 -2.16992 -35.499 -6.50293s-23.833 -11.666 -34.5 -21.999s-19.334 -24.333 -26.001 -42s-10 -40.167 -10 -67.5c0 -24 3 -44.667 9 -62s14 -31.666 24 -42.999s21.667 -19.666 35 -24.999s27.333 -8 42 -8c18.667 0 35 3.83301 49 11.5
s25.5 18 34.5 31s15.833 28.333 20.5 46s7 36.5 7 56.5c0 44 -11 77 -33 99s-49.333 32.667 -82 32zM884 326.997c-4.66699 23.333 -15.833 43.333 -33.5 60s-39.167 25 -64.5 25c-16.667 0 -31 -2.83301 -43 -8.5s-22.333 -12.667 -31 -21s-15.5 -17.5 -20.5 -27.5
s-8.83301 -19.333 -11.5 -28h204zM674.001 233.997c4 -24.667 10.835 -44.3291 20.502 -58.9961s20.167 -25.667 31.5 -33s22.333 -12.166 33 -14.499s19.334 -3.5 26.001 -3.5c16 0 33.5 4.66699 52.5 14s33.5 25.666 43.5 48.999l213 -27
c-6 -16.667 -12.167 -31.667 -18.5 -45s-17.166 -28 -32.499 -44c-32 -32.667 -69.667 -55.667 -113 -69s-88 -20 -134 -20c-36 0 -66.833 3 -92.5 9s-47.5 13.167 -65.5 21.5s-32.667 17 -44 26s-20.333 16.5 -27 22.5c-11.333 -10 -22 -18.833 -32 -26.5
s-24.667 -15.834 -44 -24.501c-23.333 -10 -48 -17.333 -74 -22s-51.667 -7 -77 -7c-38 0 -75.833 5.33301 -113.5 16s-71.334 27.167 -101.001 49.5s-53.834 51 -72.501 86s-28 76.833 -28 125.5c0 42.667 7.33301 81.667 22 117s35.5 65.5 62.5 90.5s60 44.333 99 58
s83.167 20.5 132.5 20.5c34.667 0 64.5 -2.66699 89.5 -8s46.333 -12 64 -20s32.5 -16.5 44.5 -25.5s22.333 -17.167 31 -24.5c8.66699 7.33301 19.334 15.666 32.001 24.999s28 18.166 46 26.499s39 15.333 63 21s52 8.5 84 8.5c30.667 0 58.5 -2.83301 83.5 -8.5
s47.167 -12.834 66.5 -21.501s36.166 -18.5 50.499 -29.5s26.166 -21.5 35.499 -31.5c16 -17.333 28.5 -35.666 37.5 -54.999s15.833 -38.5 20.5 -57.5s7.66699 -37.833 9 -56.5s2.66602 -36.334 3.99902 -53.001h-428z" />
    <glyph glyph-name="Scaron" unicode="&#x160;" horiz-adv-x="812" 
d="M246 773l-87 123h189l60 -82l61 82h188l-91 -123h-320zM400 581c-8 0 -18.3291 -0.50293 -30.9961 -1.50293s-25 -3.5 -37 -7.5s-22.167 -9.83301 -30.5 -17.5s-12.5 -17.834 -12.5 -30.501c0 -10 2.66699 -18.333 8 -25c4 -5.33301 11.167 -10.333 21.5 -15
s21.666 -9 33.999 -13s24.833 -7.5 37.5 -10.5s24 -5.5 34 -7.5l72.5 -15.5l72.5 -15.5c15.333 -3.33301 30.5 -6.83301 45.5 -10.5s30.167 -8.5 45.5 -14.5c23.333 -8.66699 43 -19.334 59 -32.001s28.833 -26.5 38.5 -41.5s16.5 -30.667 20.5 -47s6 -32.5 6 -48.5
c0 -23.333 -3.5 -45.5 -10.5 -66.5s-15.833 -39.167 -26.5 -54.5c-30 -44.667 -75 -77.167 -135 -97.5s-137.667 -30.5 -233 -30.5c-18 0 -39.5 0.666992 -64.5 2s-51.167 4.66602 -78.5 9.99902s-54.333 13.333 -81 24s-50.334 25.334 -71.001 44.001
c-15.333 13.333 -27.666 27.166 -36.999 41.499s-16.5 28.333 -21.5 42s-8.66699 26.334 -11 38.001s-3.83301 21.5 -4.5 29.5l249 7c4.66699 -23.333 19.334 -42.666 44.001 -57.999s62 -23 112 -23c13.333 0 28.166 1 44.499 3s30.833 6.66699 43.5 14
c8.66699 5.33301 16.667 12.666 24 21.999s11 20 11 32c0 16.667 -5.33301 29 -16 37s-21 13.667 -31 17c-8 2.66699 -22.5 6.16699 -43.5 10.5l-67.5 13.5l-68.5 13c-21.667 4 -36.834 7 -45.501 9c-28 6 -55 13.333 -81 22c-6.66699 2.66699 -17.667 7.33398 -33 14.001
s-31 16.834 -47 30.501s-30 31.5 -42 53.5s-18 49 -18 81c0 26.667 5.16699 51.834 15.5 75.501s24.166 44.5 41.499 62.5c20 20.667 43.167 37 69.5 49s53.166 21 80.499 27s54.166 9.83301 80.499 11.5s49.166 2.5 68.499 2.5c21.333 0 42.5 -0.666992 63.5 -2
s40.833 -3.33301 59.5 -6s35.834 -5.5 51.501 -8.5s29.167 -6.5 40.5 -10.5c32.667 -10.667 59 -24.167 79 -40.5s35.333 -33.166 46 -50.499s18 -34 22 -50s7 -28.667 9 -38l-248 -14c-1.33301 6 -3.66602 12.667 -6.99902 20s-9.16602 14.333 -17.499 21
s-20.333 12.334 -36 17.001s-36.834 7 -63.501 7z" />
    <glyph glyph-name="scaron" unicode="&#x161;" horiz-adv-x="729" 
d="M205 614l-87 123h189l60 -82l61 82h188l-91 -123h-320zM252 172l4.49609 -13.5c1.66699 -5 5.16699 -10.5 10.5 -16.5c10.667 -11.333 26.167 -19.5 46.5 -24.5s40.5 -7.5 60.5 -7.5c12 0 23.5 0.833008 34.5 2.5s20.833 4.33398 29.5 8.00098s15.667 8.5 21 14.5
s8 13 8 21c0 4.66699 -0.833008 8.5 -2.5 11.5s-3.16699 5.16699 -4.5 6.5c-6.66699 7.33301 -19.667 13 -39 17s-47.666 8.66699 -84.999 14l-62.5 10c-20.333 3.33301 -40.833 7.33301 -61.5 12c-26 6 -49.5 12.5 -70.5 19.5s-39.167 16 -54.5 27
s-27.166 24.667 -35.499 41s-12.5 37.166 -12.5 62.499c0 28 6.5 51.667 19.5 71s29.833 35.333 50.5 48s43.5 22.5 68.5 29.5s49.833 12.167 74.5 15.5s47.5 5.33301 68.5 6s37.5 1 49.5 1c38 0 75.333 -2.66699 112 -8s70.167 -14.666 100.5 -27.999
s56.333 -31.333 78 -54s36.834 -51.334 45.501 -86.001l-234 -10c-2.66699 13.333 -9.16699 23.833 -19.5 31.5s-21.833 13.334 -34.5 17.001s-25 6 -37 7s-20.667 1.5 -26 1.5c-22.667 0 -42.334 -3.33301 -59.001 -10s-25 -17.334 -25 -32.001
c0 -8.66699 3.66699 -15.5 11 -20.5s18.666 -9.5 33.999 -13.5c7.33301 -2 20.833 -4.5 40.5 -7.5s40.834 -6 63.501 -9s44.167 -5.66699 64.5 -8s34.833 -4.16602 43.5 -5.49902c20 -3.33301 40.5 -7.33301 61.5 -12s40.333 -11.834 58 -21.501s32 -22.667 43 -39
s16.5 -37.833 16.5 -64.5c0 -26 -5.33301 -47.667 -16 -65s-22 -32 -34 -44c-11.333 -10 -24.666 -20 -39.999 -30s-34.333 -19 -57 -27s-49.5 -14.5 -80.5 -19.5s-67.5 -7.5 -109.5 -7.5c-57.333 0 -110.166 4.5 -158.499 13.5s-86.5 20.833 -114.5 35.5
c-30.667 16 -51.5 34.667 -62.5 56s-17.833 46 -20.5 74z" />
    <glyph glyph-name="Ydieresis" unicode="&#x178;" horiz-adv-x="875" 
d="M507 896h207v-124h-207v124zM368 896v-124h-207v124h207zM285 706l116.997 -212.001c4.66699 -9.33301 8.33398 -17 11.001 -23s5.33398 -11.667 8.00098 -17s5.33398 -11.166 8.00098 -17.499l10 -23.5c4 10 7.5 18.333 10.5 25l9 20l10 21.5l13.5 28.5l110 198h292
l-320 -496v-210h-250v210l-324 496h295z" />
    <glyph glyph-name="Zcaron" unicode="&#x17d;" horiz-adv-x="833" 
d="M267 773l-87 123h189l60 -82l61 82h188l-91 -123h-320zM44 706h767v-151l-449 -388h448v-167h-804v149l468 398h-430v159z" />
    <glyph glyph-name="zcaron" unicode="&#x17e;" horiz-adv-x="729" 
d="M205 614l-87 123h189l60 -82l61 82h188l-91 -123h-320zM49 530h646v-149l-349 -231h346v-150h-670v151l349 231h-322v148z" />
    <glyph glyph-name="florin" unicode="&#x192;" horiz-adv-x="437" 
d="M450 689l-15 -128c-6 1.33301 -13.167 2.33301 -21.5 3s-16.166 1 -23.499 1c-14 0 -25 -1.83301 -33 -5.5s-14 -9 -18 -16s-6.83301 -15.333 -8.5 -25s-2.83398 -20.167 -3.50098 -31.5h100l-16 -135h-91l-40 -352c-2 -24 -4.16699 -44.667 -6.5 -62s-5 -32.5 -8 -45.5
s-7.16699 -24.333 -12.5 -34s-12 -18.5 -20 -26.5c-10 -10 -21.333 -17.833 -34 -23.5s-25.667 -9.66699 -39 -12s-26.5 -3.83301 -39.5 -4.5s-25.5 -1 -37.5 -1h-157l14 128c6.66699 -1.33301 14.167 -2.33301 22.5 -3s16.166 -1 23.499 -1c14 0 25.167 2.16699 33.5 6.5
s14.5 10 18.5 17s6.66699 15.167 8 24.5s2.33301 19.333 3 30l40 358h-80l15 136h80l9 71c2.66699 15.333 6.33398 30.833 11.001 46.5s13.667 30.167 27 43.5c10 10 21.333 17.833 34 23.5s25.667 9.66699 39 12s26.5 3.83301 39.5 4.5s25.5 1 37.5 1h149z" />
    <glyph glyph-name="circumflex" unicode="&#x2c6;" 
d="M350 737l87 -123h-190l-60 82l-60 -82h-188l90 123h321z" />
    <glyph glyph-name="caron" unicode="&#x2c7;" 
d="M26 614l-87 123h189l60 -82l61 82h188l-91 -123h-320z" />
    <glyph glyph-name="breve" unicode="&#x2d8;" 
d="M412 737c-7.33301 -14.667 -15.002 -27.8311 -23.002 -39.498s-20 -23.5 -36 -35.5c-15.333 -11.333 -36.833 -22.333 -64.5 -33s-60.5 -16 -98.5 -16c-32 0 -62.833 4.5 -92.5 13.5s-54.5 21.167 -74.5 36.5c-16.667 12 -29 24.167 -37 36.5s-15.667 25.166 -23 38.499
h173c0.666992 -4.66699 1.83398 -10 3.50098 -16s4.33398 -11.833 8.00098 -17.5s8.66699 -10.334 15 -14.001s14.833 -5.5 25.5 -5.5c3.33301 0 6.83301 0.333008 10.5 1s7.5 2 11.5 4c11.333 5.33301 18.333 12.5 21 21.5s4.66699 17.5 6 25.5h175z" />
    <glyph glyph-name="dotaccent" unicode="&#x2d9;" 
d="M84 738h207v-124h-207v124z" />
    <glyph glyph-name="ring" unicode="&#x2da;" 
d="M178 725c-19.333 -1.33301 -34.001 -6.33398 -44.001 -15.001s-15 -18 -15 -28c0 -13.333 6 -24.166 18 -32.499s27.333 -12.5 46 -12.5c17.333 0 33 3.5 47 10.5s21 18.5 21 34.5c0 8 -2.33301 14.833 -7 20.5s-10.667 10.167 -18 13.5s-15.166 5.83301 -23.499 7.5
s-16.5 2.16699 -24.5 1.5zM180.999 788.999c24.667 0.666992 46.332 -2.1709 64.999 -8.50391s34.167 -14.666 46.5 -24.999s21.5 -22.166 27.5 -35.499s9 -26.333 9 -39c0 -17.333 -3.83301 -32.666 -11.5 -45.999s-18.167 -24.666 -31.5 -33.999
s-28.833 -16.333 -46.5 -21s-36.5 -7 -56.5 -7c-21.333 0 -40.5 2.83301 -57.5 8.5s-31.5 13.5 -43.5 23.5s-21.167 21.667 -27.5 35s-9.5 27.333 -9.5 42c0 16 3.5 30.5 10.5 43.5s16.667 24.167 29 33.5s26.833 16.5 43.5 21.5s34.334 7.83301 53.001 8.5z" />
    <glyph glyph-name="ogonek" unicode="&#x2db;" 
d="M228 20l7.00195 -6.99414c-8 -9.33301 -15.833 -19 -23.5 -29l-22.5 -29c-3.33301 -4.66699 -7 -10.334 -11 -17.001s-6 -14.334 -6 -23.001c0 -6.66699 1.5 -11.834 4.5 -15.501s6.83301 -6.33398 11.5 -8.00098s9.66699 -2.66699 15 -3s10.333 -0.5 15 -0.5
c25.333 0 46 1.16699 62 3.5s29.667 4.16602 41 5.49902l1 -116c-6 -0.666992 -14 -1.66699 -24 -3s-20.667 -2.5 -32 -3.5l-34.5 -3c-11.667 -1 -22.167 -1.5 -31.5 -1.5s-22.333 0.5 -39 1.5s-33 4.16699 -49 9.5s-29.833 13.833 -41.5 25.5s-17.5 28.167 -17.5 49.5
c0 14 2.66699 27.333 8 40s12.166 25.167 20.499 37.5s17.666 24.166 27.999 35.499l31.5 33z" />
    <glyph glyph-name="tilde" unicode="&#x2dc;" 
d="M-77 590c3.33301 21.333 7.99512 40.998 13.9951 58.998s17.333 35 34 51c2.66699 2.66699 6.83398 6.5 12.501 11.5s13.334 9.83301 23.001 14.5s21.667 8.83398 36 12.501s31.166 5.5 50.499 5.5c14.667 0 28.334 -1.33301 41.001 -4l41 -9
c6 -1.33301 14.5 -3.33301 25.5 -6l34.5 -8c12 -2.66699 23.333 -5 34 -7s18 -3 22 -3c14.667 0 23.834 3.5 27.501 10.5s6.16699 12.833 7.5 17.5h127c-1.33301 -26.667 -6.83301 -49.5 -16.5 -68.5s-22 -34.667 -37 -47s-31.667 -21.5 -50 -27.5s-36.833 -9 -55.5 -9
c-13.333 0 -26.666 0.833008 -39.999 2.5s-26.666 3.83398 -39.999 6.50098c-27.333 6.66699 -48.666 11.667 -63.999 15l-35 7.5c-8 1.66699 -13.5 2.66699 -16.5 3s-5.83301 0.5 -8.5 0.5c-6 0 -13.333 -1.5 -22 -4.5s-14.334 -10.833 -17.001 -23.5h-128z" />
    <glyph glyph-name="hungarumlaut" unicode="&#x2dd;" 
d="M227 737h264l-136 -138h-177zM-67 737h264l-136 -138h-177z" />
    <glyph glyph-name="endash" unicode="&#x2013;" horiz-adv-x="854" 
d="M36 430h781v-175h-781v175z" />
    <glyph glyph-name="emdash" unicode="&#x2014;" horiz-adv-x="1042" 
d="M998 432v-178h-954v178h954z" />
    <glyph glyph-name="quoteleft" unicode="&#x2018;" horiz-adv-x="313" 
d="M42 537c0 8.66699 0.332031 18.166 0.999023 28.499s2.66699 21.333 6 33s8.5 23.167 15.5 34.5s17.167 22.333 30.5 33c12.667 10.667 26.334 18.834 41.001 24.501s29.667 10 45 13s30.5 5 45.5 6s29.5 1.83301 43.5 2.5v-81c-20.667 -2.66699 -37 -7.16699 -49 -13.5
s-21 -14 -27 -23s-10 -19 -12 -30s-3.33301 -22.5 -4 -34.5h92v-187h-228v194z" />
    <glyph glyph-name="quoteright" unicode="&#x2019;" horiz-adv-x="313" 
d="M42 706l229.001 0.00195312v-157c-0.666992 -12.667 -1.5 -25.667 -2.5 -39s-3.33301 -26.833 -7 -40.5s-9.33398 -26.834 -17.001 -39.501s-18.5 -25 -32.5 -37s-28.667 -21.333 -44 -28s-30.5 -11.834 -45.5 -15.501s-29.5 -6 -43.5 -7s-26.667 -1.5 -38 -1.5v84
c13.333 1.33301 25.333 3.5 36 6.5s19.667 8 27 15s13.333 16.667 18 29s8 28.833 10 49.5h-90v181z" />
    <glyph glyph-name="quotesinglbase" unicode="&#x201a;" horiz-adv-x="313" 
d="M40 184h230.999v-169c-0.666992 -10 -1.83398 -22.167 -3.50098 -36.5s-5.66699 -29.333 -12 -45s-15.666 -31.334 -27.999 -47.001s-29.5 -29.5 -51.5 -41.5c-27.333 -15.333 -52.5 -24.166 -75.5 -26.499s-43.167 -3.5 -60.5 -3.5v82
c14.667 2 27.334 4.83301 38.001 8.5s19.5 9.5 26.5 17.5s12.667 18.167 17 30.5s7.5 27.833 9.5 46.5h-91v184z" />
    <glyph glyph-name="quotedblleft" unicode="&#x201c;" horiz-adv-x="625" 
d="M355 348l0.00195312 164.998c0 16 1.5 35.333 4.5 58s11.667 44.5 26 65.5s36.666 39 66.999 54s73.5 23.167 129.5 24.5v-81c-20.667 -3.33301 -36.834 -8.66602 -48.501 -15.999s-20.5 -15.666 -26.5 -24.999s-9.66699 -19.333 -11 -30s-2.33301 -21 -3 -31h90v-184
h-228zM271.002 347.998l-227.998 -0.00488281v179c0.666992 12.667 1.5 25.334 2.5 38.001s3.16699 25.334 6.5 38.001s8.66602 24.834 15.999 36.501s17.333 22.5 30 32.5s27.167 17.833 43.5 23.5s32.5 10 48.5 13s31 4.83301 45 5.5s25.667 1 35 1v-81
c-12.667 -2 -24.334 -4.83301 -35.001 -8.5s-20 -9.16699 -28 -16.5s-14.5 -17.166 -19.5 -29.499s-8.16699 -28.166 -9.5 -47.499h93v-184z" />
    <glyph glyph-name="quotedblright" unicode="&#x201d;" horiz-adv-x="625" 
d="M270 706v-163.999c-0.666992 -10.667 -1.5 -23 -2.5 -37s-3.66699 -28.333 -8 -43s-11.166 -29.167 -20.499 -43.5s-22.333 -27.166 -39 -38.499s-37.834 -20.666 -63.501 -27.999s-57.167 -11.333 -94.5 -12v81c20.667 3.33301 37 8.66602 49 15.999
s20.833 15.666 26.5 24.999s9.16699 19.166 10.5 29.499s2.33301 20.5 3 30.5h-89v184h228zM354 706.001h227.998v-179c-0.666992 -12 -1.5 -24.5 -2.5 -37.5s-3.16699 -25.667 -6.5 -38s-8.66602 -24.333 -15.999 -36s-17.333 -22.5 -30 -32.5c-13.333 -10 -28 -18 -44 -24
s-32 -10.333 -48 -13s-31.167 -4.5 -45.5 -5.5s-25.833 -1.5 -34.5 -1.5v82c12.667 2 24.334 4.83301 35.001 8.5s20 9.16699 28 16.5s14.333 17 19 29s7.66699 27.667 9 47h-92v184z" />
    <glyph glyph-name="quotedblbase" unicode="&#x201e;" horiz-adv-x="625" 
d="M270 184v-164.997c-0.666992 -10.667 -1.5 -22.834 -2.5 -36.501s-3.66699 -27.834 -8 -42.501s-11.166 -29.167 -20.499 -43.5s-22.333 -27.166 -39 -38.499s-37.834 -20.666 -63.501 -27.999s-57.167 -11.333 -94.5 -12v81c20.667 3.33301 37 8.66602 49 15.999
s20.833 15.666 26.5 24.999s9.16699 19.166 10.5 29.499s2.33301 20.5 3 30.5h-89v184h228zM354 184.003h227.999v-179c-0.666992 -12 -1.5 -24.5 -2.5 -37.5s-3.16699 -25.667 -6.5 -38s-8.66602 -24.333 -15.999 -36s-17.333 -22.5 -30 -32.5c-13.333 -10 -28 -18 -44 -24
s-32 -10.333 -48 -13s-31.167 -4.5 -45.5 -5.5s-25.833 -1.5 -34.5 -1.5v82c12.667 2 24.167 4.83301 34.5 8.5s19.5 9.16699 27.5 16.5s14.5 17 19.5 29s8.16699 27.667 9.5 47h-92v184z" />
    <glyph glyph-name="dagger" unicode="&#x2020;" horiz-adv-x="729" 
d="M244 706h240v-169h207v-184h-207v-478h-240v478h-206v184h206v169z" />
    <glyph glyph-name="daggerdbl" unicode="&#x2021;" horiz-adv-x="750" 
d="M256 707h237v-133h206v-181h-206v-184h206v-181h-205v-153h-237v152h-207v181h207v184h-207v182h206v133z" />
    <glyph glyph-name="bullet" unicode="&#x2022;" horiz-adv-x="333" 
d="M322 352c0 -21.333 -3.66699 -41.502 -11 -60.502s-17.666 -35.5 -30.999 -49.5s-29.333 -25 -48 -33s-39.334 -12 -62.001 -12c-24.667 0 -46.834 4.5 -66.501 13.5s-36.167 20.833 -49.5 35.5s-23.666 31.334 -30.999 50.001s-11 37.334 -11 56.001
c0 20.667 4 40.5 12 59.5s19 35.667 33 50s30.5 25.666 49.5 33.999s39.833 12.5 62.5 12.5c20 0 39.167 -3.5 57.5 -10.5s34.5 -17.167 48.5 -30.5s25.333 -29.666 34 -48.999s13 -41.333 13 -66z" />
    <glyph glyph-name="ellipsis" unicode="&#x2026;" horiz-adv-x="1000" 
d="M719 184h230v-184h-230v184zM385 184h230v-184h-230v184zM51 184h230v-184h-230v184z" />
    <glyph glyph-name="perthousand" unicode="&#x2030;" horiz-adv-x="1813" 
d="M1529 340c-12 0 -23.832 -1.99902 -35.499 -5.99902s-22.167 -12.333 -31.5 -25c-10 -13.333 -16.5 -28 -19.5 -44s-4.5 -32.333 -4.5 -49c0 -8.66699 0.666992 -19 2 -31s4.33301 -23.667 9 -35c6.66699 -17.333 16 -30.833 28 -40.5s29 -14.5 51 -14.5
c32 0 55.833 10.5 71.5 31.5s23.5 50.833 23.5 89.5c0 15.333 -1.33301 30.5 -4 45.5s-7.33398 28.167 -14.001 39.5c-5.33301 9.33301 -13.5 18.166 -24.5 26.499s-28.167 12.5 -51.5 12.5zM1520 452.001c36.667 1.33301 71.333 -2 104 -10s61.5 -21.167 86.5 -39.5
s44.833 -42.333 59.5 -72s22 -65.5 22 -107.5v-13c0 -4 -0.333008 -8.33301 -1 -13c-3.33301 -43.333 -13.5 -78.5 -30.5 -105.5s-38 -48.167 -63 -63.5s-53 -25.833 -84 -31.5s-61.833 -8.5 -92.5 -8.5c-13.333 0 -27.833 0.666992 -43.5 2s-31.667 4 -48 8
s-32.666 9.83301 -48.999 17.5s-31.5 18.167 -45.5 31.5c-14.667 14 -26.334 29.167 -35.001 45.5s-15.167 32.5 -19.5 48.5s-7 30.833 -8 44.5s-1.5 24.167 -1.5 31.5c0 26.667 4 55 12 85s24 57 48 81c24.667 24.667 53.5 42 86.5 52s67.167 15.667 102.5 17zM966 340.001
c-12 0 -23.667 -1.99902 -35 -5.99902s-21.666 -12.333 -30.999 -25c-10 -13.333 -16.5 -28 -19.5 -44s-4.5 -32.333 -4.5 -49c0 -8.66699 0.666992 -19 2 -31s4.33301 -23.667 9 -35c6.66699 -17.333 16 -30.833 28 -40.5s28.667 -14.5 50 -14.5
c32 0 55.833 10.5 71.5 31.5s23.5 50.833 23.5 89.5c0 15.333 -1.33301 30.5 -4 45.5s-7.33398 28.167 -14.001 39.5c-5.33301 9.33301 -13.5 18.166 -24.5 26.499s-28.167 12.5 -51.5 12.5zM958 452.002c36 1.33301 70.5 -2 103.5 -10s61.833 -21.167 86.5 -39.5
s44.334 -42.333 59.001 -72s22 -65.5 22 -107.5v-13c0 -4 -0.333008 -8.33301 -1 -13c-3.33301 -43.333 -13.5 -78.5 -30.5 -105.5s-38 -48.167 -63 -63.5s-53 -25.833 -84 -31.5s-61.833 -8.5 -92.5 -8.5c-12.667 0 -26.834 0.666992 -42.501 2s-31.667 4 -48 8
s-32.666 9.83301 -48.999 17.5s-31.5 18.167 -45.5 31.5c-14.667 14 -26.334 29.167 -35.001 45.5s-15.167 32.5 -19.5 48.5s-7 30.833 -8 44.5s-1.5 24.167 -1.5 31.5c0 26.667 4 55 12 85s24 57 48 81c24.667 24.667 53.5 42 86.5 52s67.167 15.667 102.5 17zM829 736.002
l87 -60l-494 -706l-87 62zM279 605.002c-12 0 -23.667 -1.99902 -35 -5.99902s-21.666 -12.333 -30.999 -25c-10 -13.333 -16.5 -28 -19.5 -44s-4.5 -32.333 -4.5 -49c0 -8.66699 0.666992 -19 2 -31s4.33301 -23.667 9 -35c6.66699 -17.333 16 -30.833 28 -40.5
s28.667 -14.5 50 -14.5c32 0 55.833 10.5 71.5 31.5s23.5 50.833 23.5 89.5c0 15.333 -1.33301 30.5 -4 45.5s-7.33398 28.167 -14.001 39.5c-5.33301 9.33301 -13.5 18.166 -24.5 26.499s-28.167 12.5 -51.5 12.5zM271 717.003c36 1.33301 70.5 -2.00098 103.5 -10.001
s61.833 -21.167 86.5 -39.5s44.334 -42.333 59.001 -72s22 -65.5 22 -107.5c0 -13.333 -1 -28.333 -3 -45s-6.16699 -33.667 -12.5 -51s-15 -34.166 -26 -50.499s-25.5 -30.5 -43.5 -42.5c-26 -18 -55.5 -30.167 -88.5 -36.5s-65.5 -9.5 -97.5 -9.5
c-12 0 -25.833 0.666992 -41.5 2s-31.667 4 -48 8s-32.833 9.83301 -49.5 17.5s-32 18.167 -46 31.5c-14.667 14 -26.334 29.167 -35.001 45.5s-15.167 32.5 -19.5 48.5s-7 30.833 -8 44.5s-1.5 24.167 -1.5 31.5c0 26.667 4 55 12 85s24 57 48 81
c24.667 24.667 53.5 42 86.5 52s67.167 15.667 102.5 17z" />
    <glyph glyph-name="guilsinglleft" unicode="&#x2039;" horiz-adv-x="271" 
d="M241 556v-184l-92 -61l92 -64v-183l-206 133v226z" />
    <glyph glyph-name="guilsinglright" unicode="&#x203a;" horiz-adv-x="271" 
d="M31 556l206 -134v-227l-206 -132v182l91 65l-91 63v183z" />
    <glyph glyph-name="fraction" unicode="&#x2044;" horiz-adv-x="125" 
d="M202 726l67 -37l-374 -708l-68 36z" />
    <glyph glyph-name="fraction" unicode="&#x2215;" horiz-adv-x="125" 
d="M202 726l67 -37l-374 -708l-68 36z" />
    <glyph glyph-name="Euro" unicode="&#x20ac;" horiz-adv-x="854" 
d="M772 487c-15.333 11.333 -40.668 22.167 -76.001 32.5s-81 15.5 -137 15.5c-35.333 0 -65.5 -2.83301 -90.5 -8.5s-46.167 -13.334 -63.5 -23.001s-31.166 -20.5 -41.499 -32.5s-18.166 -24 -23.499 -36h371l-44 -85h-338
c-0.666992 -2.66699 -1.16699 -6.16699 -1.5 -10.5s-0.5 -7.83301 -0.5 -10.5c0 -5.33301 0.166992 -10.5 0.5 -15.5s1.16602 -9.16699 2.49902 -12.5h311l-45 -85h-245c11.333 -23.333 33 -42.166 65 -56.499s79.667 -21.5 143 -21.5c22 0 43.667 1.5 65 4.5
s41.5 7 60.5 12s36.167 10.667 51.5 17s27.333 13.166 36 20.499v-166c-15.333 -9.33301 -41 -19.166 -77 -29.499s-83.667 -15.5 -143 -15.5c-66 0 -123.167 5.33301 -171.5 16s-89.333 26 -123 46s-60.834 44.5 -81.501 73.5s-36 62.167 -46 99.5h-113l45 85h56
c-0.666992 4 -1 7.83301 -1 11.5v13.5v12.5c0 3.66699 0.333008 7.5 1 11.5h-101l45 85h65c10.667 34 25.5 66.667 44.5 98s44.833 58.833 77.5 82.5s73.5 42.5 122.5 56.5s108.833 21 179.5 21c57.333 0 104.833 -5.5 142.5 -16.5s63.834 -21.833 78.501 -32.5v-157z" />
    <glyph glyph-name="trademark" unicode="&#x2122;" horiz-adv-x="688" 
d="M186 374h-84v265h-102v67h287v-67h-101v-265zM675 374l-83 0.00195312c0 38 0.333008 70.667 1 98s1.5 50.5 2.5 69.5s2 34.667 3 47s2.16699 22.5 3.5 30.5c-3.33301 -14 -5.83301 -23.833 -7.5 -29.5s-3.83398 -13.834 -6.50098 -24.501l-56 -191h-75l-59 192
c-0.666992 2 -1.66699 5.33301 -3 10s-2.66602 9.66699 -3.99902 15l-4 15.5c-1.33301 5 -2.33301 8.5 -3 10.5c1.33301 -8 3.5 -31.333 6.5 -70s4.5 -96.334 4.5 -173.001h-81v332h106l76 -240l71 240h108v-332z" />
    <glyph glyph-name="minus" unicode="&#x2212;" horiz-adv-x="667" 
d="M667 227h-667v127h667v-127z" />
    <glyph glyph-name="fi" unicode="&#xfb01;" horiz-adv-x="729" 
d="M445 530h234v-530h-234v530zM444 706h235v-124h-235v124zM398 706l0.00195312 -128.998c-8.66699 1.33301 -15.334 2.16602 -20.001 2.49902s-10.334 0.5 -17.001 0.5c-16 0 -28.333 -1.33301 -37 -4s-15 -7 -19 -13s-6.33301 -13.5 -7 -22.5s-1 -19.833 -1 -32.5h100
v-137h-90v-371h-235v371h-77v137h79v61c0.666992 16.667 2.5 33.334 5.5 50.001s11.167 32.667 24.5 48c8.66699 9.33301 18 16.666 28 21.999s20.5 9.16602 31.5 11.499s22.5 3.83301 34.5 4.5s24 1 36 1h164z" />
    <glyph glyph-name="fl" unicode="&#xfb02;" horiz-adv-x="729" 
d="M444 706h237v-706h-237v706zM399 706v-127.999c-8.66699 0.666992 -15.5 1.16699 -20.5 1.5s-10.833 0.5 -17.5 0.5c-16 0 -28.167 -1.33301 -36.5 -4s-14.5 -7 -18.5 -13s-6.33301 -13.5 -7 -22.5s-1 -19.833 -1 -32.5h99v-137h-89v-371h-235v371h-77v137h79v61
c0.666992 17.333 2.5 34.333 5.5 51s11.167 32.334 24.5 47.001c8.66699 9.33301 18 16.666 28 21.999s20.5 9.16602 31.5 11.499s22.5 3.83301 34.5 4.5s24 1 36 1h164z" />
    <glyph glyph-name=".null" horiz-adv-x="0" 
 />
    <glyph glyph-name="nonmarkingreturn" 
 />
    </font>
</defs>
</svg>
